<?xml version="1.0" encoding="UTF-8" standalone="no"?>
<!-- Created with Inkscape (http://www.inkscape.org/) -->

<svg
   width="100"
   height="100"
   viewBox="0 0 11.933846 11.933846"
   version="1.1"
   id="svg135"
   inkscape:version="1.2 (dc2aedaf03, 2022-05-15)"
   sodipodi:docname="empty.svg"
   inkscape:export-filename="..\8s.png"
   inkscape:export-xdpi="96"
   inkscape:export-ydpi="96"
   xmlns:inkscape="http://www.inkscape.org/namespaces/inkscape"
   xmlns:sodipodi="http://sodipodi.sourceforge.net/DTD/sodipodi-0.dtd"
   xmlns:xlink="http://www.w3.org/1999/xlink"
   xmlns="http://www.w3.org/2000/svg"
   xmlns:svg="http://www.w3.org/2000/svg">
  <sodipodi:namedview
     id="namedview137"
     pagecolor="#ffffff"
     bordercolor="#000000"
     borderopacity="0.25"
     inkscape:showpageshadow="2"
     inkscape:pageopacity="0.0"
     inkscape:pagecheckerboard="0"
     inkscape:deskcolor="#d1d1d1"
     inkscape:document-units="mm"
     showgrid="false"
     guidehicolor="#ff238d"
     guidehiopacity="0.49803922"
     inkscape:lockguides="false"
     inkscape:zoom="4"
     inkscape:cx="41.875"
     inkscape:cy="58.625"
     inkscape:window-width="1440"
     inkscape:window-height="878"
     inkscape:window-x="-6"
     inkscape:window-y="-6"
     inkscape:window-maximized="1"
     inkscape:current-layer="layer1" />
  <defs
     id="defs132">
    <color-profile
       name="Agfa-:-Swop-Standard"
       xlink:href="../../../../../../../../WINDOWS/system32/spool/drivers/color/RSWOP.icm"
       id="color-profile1134" />
    <color-profile
       name="ASUS_UX3402ZA_8086_834C4171_CMDEF"
       xlink:href="../../../../../../../../WINDOWS/system32/spool/drivers/color/AsusICM/UX3402ZA_8086_834C4171_CMDEF.icm"
       id="color-profile1136" />
    <radialGradient
       inkscape:collect="always"
       xlink:href="#linearGradient56498"
       id="radialGradient56500"
       cx="5.9669232"
       cy="5.9669232"
       fx="5.9669232"
       fy="5.9669232"
       r="9.5470772"
       gradientUnits="userSpaceOnUse" />
    <linearGradient
       inkscape:collect="always"
       id="linearGradient56498">
      <stop
         style="stop-color:#7f3333;stop-opacity:1;"
         offset="0.22758621"
         id="stop56494" />
      <stop
         style="stop-color:#330033;stop-opacity:1;"
         offset="0.85287356"
         id="stop56502" />
      <stop
         style="stop-color:#333333;stop-opacity:0.24705882;"
         offset="0.91494256"
         id="stop56504" />
      <stop
         style="stop-color:#333333;stop-opacity:0.12156863;"
         offset="0.91494256"
         id="stop56506" />
      <stop
         style="stop-color:#333333;stop-opacity:0.05882353;"
         offset="0.91494256"
         id="stop56508" />
      <stop
         style="stop-color:#333333;stop-opacity:0.02745098;"
         offset="0.91494256"
         id="stop56510" />
      <stop
         style="stop-color:#333333;stop-opacity:0.01176471;"
         offset="1"
         id="stop56512" />
      <stop
         style="stop-color:#333333;stop-opacity:0;"
         offset="1"
         id="stop56496" />
    </linearGradient>
  </defs>
  <g
     inkscape:label="Layer 1"
     inkscape:groupmode="layer"
     id="layer1">
    <g
       id="g1513">
      <path
         style="opacity:0.99;fill:#ffc8c8;fill-opacity:1;stroke-width:0.119526;paint-order:markers fill stroke"
         d="M 1.307969,2.3591 C 1.549303,1.7054017 1.303569,2.373784 1.5154,1.7902879 1.54233,1.7160969 1.616696,1.5171949 1.640393,1.4524934 c 0.03293,-0.089908 0.06635,-0.1859283 0.09919,-0.2771554 0.02855,-0.079309 0.05689,-0.1536095 0.08505,-0.2303594 0.04674,-0.1273936 6.09e-4,-0.00336 0.03734,-0.1080933 0.0079,-0.022545 0.0153,-0.039548 0.0232,-0.061298 0.02509,-0.069109 0.04238,-0.1165334 0.06445,-0.1684032 -0.03148,0.1069081 -0.04952,0.1797565 -0.07189,0.2672633 -0.02141,0.083757 -0.04167,0.1663454 -0.05768,0.2372733 -0.005,0.022179 -0.01537,0.059767 -0.01923,0.079091 -0.0024,0.012181 -8.71e-4,0.018041 -0.0038,0.032624 -0.0017,0.00836 -0.0066,0.024827 -0.0077,0.031636 -0.0037,0.023273 -7.72e-4,0.030729 -0.0037,0.04943 -0.0039,0.02462 -0.0065,0.011676 -0.0064,0.031965 1.5e-5,0.00408 0.0043,-0.00423 0.0039,9.923e-4 -2.22e-4,0.0029 -0.01128,0.058715 -0.01278,0.06393 C 1.753533,1.459924 1.631523,1.8109379 1.628731,1.8189307 1.531821,2.0963221 1.544451,2.057589 1.429054,2.3729123 1.394924,2.4661673 1.218083,2.9602146 1.161017,3.0943096 1.007404,3.4998958 0.852875,3.8998638 0.697022,4.3202584 c -0.02378,0.064143 -0.06393,0.1661128 -0.08635,0.2300297 -0.01888,0.053848 -0.02339,0.068538 -0.03995,0.1074348"
         id="path1188-8" />
      <path
         style="opacity:0.99;fill:#ffc8c8;fill-opacity:1;stroke-width:0.119526;paint-order:markers fill stroke"
         d="M 2.686833,4.2932645 C 2.928167,3.4216622 2.682433,4.3128465 2.894264,3.5348442 2.921194,3.4359212 2.99556,3.1707184 3.019257,3.0844493 3.052187,2.9645707 3.085607,2.8365435 3.118447,2.7149066 3.146997,2.6091604 3.175337,2.5100929 3.203497,2.4077591 3.250237,2.2379 3.204106,2.4032791 3.240837,2.2636338 c 0.0079,-0.030061 0.0153,-0.052731 0.0232,-0.081731 0.02509,-0.092145 0.04238,-0.1553786 0.06445,-0.2245388 -0.03148,0.1425449 -0.04952,0.2396766 -0.07189,0.3563531 -0.02141,0.1116765 -0.04168,0.2217951 -0.05768,0.316366 -0.005,0.029573 -0.01537,0.079689 -0.01923,0.1054552 -0.0024,0.016242 -8.7e-4,0.024055 -0.0038,0.0435 -0.0017,0.011146 -0.0066,0.033102 -0.0077,0.042183 -0.0037,0.031033 -7.71e-4,0.040974 -0.0037,0.065904 -0.0039,0.03283 -0.0065,0.015568 -0.0064,0.04262 1.5e-5,0.00544 0.0043,-0.00565 0.0039,0.00129 -2.22e-4,0.00388 -0.01128,0.078289 -0.01278,0.085242 C 3.132397,3.0943273 3.010386,3.5623484 3.007594,3.5730056 2.910684,3.9428625 2.923314,3.8912181 2.807917,4.3116518 2.773787,4.4359927 2.596946,5.0947261 2.539881,5.2735204 2.386267,5.8143052 2.231738,6.3475983 2.075885,6.9081273 c -0.02378,0.08552 -0.06393,0.221485 -0.08635,0.306709 -0.01889,0.0718 -0.0234,0.09138 -0.03995,0.143247"
         id="path1188-5-7" />
      <path
         style="opacity:0.99;fill:#ffc8c8;fill-opacity:1;stroke-width:0.119526;paint-order:markers fill stroke"
         d="M 4.0656938,6.227428 C 4.3070278,5.1379219 4.0613238,6.251901 4.2731253,5.2793997 4.3000583,5.1557462 4.374421,4.8242414 4.3981184,4.7164042 c 0.03293,-0.1498487 0.066352,-0.3098832 0.099187,-0.4619296 0.028542,-0.1321832 0.056888,-0.2560185 0.085044,-0.3839355 0.046735,-0.2123249 6.315e-4,-0.00561 0.037337,-0.1801577 0.00791,-0.037578 0.015308,-0.065914 0.023202,-0.1021632 0.025087,-0.1151824 0.04238,-0.1942243 0.064451,-0.2806745 -0.031483,0.1781815 -0.049519,0.2995966 -0.071888,0.4454426 -0.021406,0.1395961 -0.041672,0.2772446 -0.057682,0.3954589 -0.005,0.036965 -0.015367,0.099612 -0.019226,0.131819 -0.00245,0.020304 -8.66e-4,0.03007 -0.00379,0.054373 -0.00168,0.013933 -0.00662,0.041379 -0.00769,0.052727 -0.00365,0.03879 -7.668e-4,0.051215 -0.0037,0.082381 -0.00384,0.041036 -0.00646,0.019462 -0.00639,0.053276 1.54e-5,0.00681 0.00432,-0.00706 0.00389,0.00158 -2.218e-4,0.00485 -0.011284,0.097861 -0.012777,0.1065522 C 4.5112704,4.7287144 4.3892662,5.3137442 4.386474,5.3270658 4.289568,5.7894007 4.302198,5.7248451 4.1867973,6.2503893 c -0.03413,0.155426 -0.2109711,0.978845 -0.2680372,1.202339 -0.1536139,0.675983 -0.3081421,1.342602 -0.4639941,2.043265 -0.02378,0.106906 -0.06393,0.276858 -0.08635,0.383387 -0.01889,0.08975 -0.02339,0.114231 -0.03995,0.1790597"
         id="path1188-5-3-6" />
      <path
         style="opacity:0.99;fill:#ffc8c8;fill-opacity:1;stroke-width:0.119526;paint-order:markers fill stroke"
         d="m 6.8830919,8.4419103 c 0.4132352,-0.781078 -0.00827,0.01776 0.3571205,-0.680168 0.046462,-0.08874 0.1730895,-0.326213 0.2138088,-0.403561 0.056584,-0.107481 0.1153434,-0.22262 0.1722051,-0.331794 0.049431,-0.09491 0.097274,-0.183507 0.1456206,-0.275248 0.080247,-0.152278 0.00158,-0.0042 0.065873,-0.129675 0.013852,-0.02702 0.025669,-0.04711 0.039295,-0.07313 0.043282,-0.08266 0.073051,-0.139372 0.1086373,-0.20076 -0.059938,0.12935 -0.09751,0.21818 -0.1433185,0.324742 -0.043846,0.101995 -0.086266,0.202738 -0.1213603,0.289539 -0.010978,0.02714 -0.03137,0.07276 -0.04045,0.09651 -0.00574,0.01497 -0.00589,0.02272 -0.01271,0.04065 -0.00388,0.01028 -0.013252,0.03017 -0.016183,0.0386 -0.010004,0.0288 -0.00933,0.03884 -0.017347,0.06199 -0.010532,0.03048 -0.00944,0.01352 -0.015024,0.03929 -0.00117,0.0052 0.0053,-0.0045 0.00347,0.002 -0.00104,0.0036 -0.027166,0.07225 -0.030053,0.07857 -0.032416,0.07091 -0.2470493,0.491852 -0.2519499,0.501434 -0.1700892,0.332563 -0.1472033,0.285946 -0.3455661,0.662918 -0.058664,0.111488 -0.3656628,0.702925 -0.457667,0.861626 -0.260103,0.483838 -0.5195159,0.9603607 -0.7858897,1.4625437 -0.040648,0.07662 -0.107502,0.197957 -0.1467766,0.274567 -0.033089,0.06454 -0.041496,0.08228 -0.068186,0.128312"
         id="path1188-5-3-8-8" />
      <path
         style="opacity:0.99;fill:#ffc8c8;fill-opacity:1;stroke-width:0.119526;paint-order:markers fill stroke"
         d="m 8.2022907,8.5260023 c 0.2413342,-0.435801 -0.00438,0.0098 0.2074315,-0.37921 0.026932,-0.04946 0.1012957,-0.182063 0.1249926,-0.225197 0.032931,-0.05994 0.066352,-0.123953 0.099188,-0.184771 0.028542,-0.05287 0.056887,-0.102407 0.085045,-0.153574 0.046735,-0.08493 6.315e-4,-0.0022 0.037337,-0.07206 0.00791,-0.01503 0.015308,-0.02637 0.023202,-0.04087 0.025087,-0.04607 0.04238,-0.07769 0.064451,-0.112269 -0.031478,0.07127 -0.049519,0.119838 -0.071888,0.178176 -0.021411,0.05584 -0.041676,0.110898 -0.057682,0.158183 -0.005,0.01478 -0.015367,0.03984 -0.019228,0.05273 -0.00244,0.0081 -8.569e-4,0.01203 -0.00379,0.02174 -0.00167,0.0056 -0.00662,0.01655 -0.00769,0.02109 -0.00365,0.01552 -7.668e-4,0.02049 -0.0037,0.03295 -0.00383,0.01641 -0.00646,0.0078 -0.00639,0.02131 1.53e-5,0.0027 0.00433,-0.0028 0.00388,6.77e-4 -2.223e-4,0.0019 -0.011285,0.03914 -0.012778,0.04262 -0.016815,0.03902 -0.1388202,0.273035 -0.1416126,0.278364 -0.096906,0.184933 -0.084277,0.159111 -0.1996768,0.369327 -0.03413,0.06217 -0.2109708,0.391537 -0.2680372,0.480933 -0.1536136,0.270393 -0.3081422,0.537039 -0.4639952,0.817303 -0.023779,0.04276 -0.063931,0.110743 -0.086347,0.153354 -0.018885,0.0359 -0.023396,0.0457 -0.039944,0.07162"
         id="path1188-5-3-8-3-50" />
      <path
         style="opacity:0.99;fill:#ffc8c8;fill-opacity:1;stroke-width:0.119526;paint-order:markers fill stroke"
         d="m 5.4359073,8.1615843 c 0.2412904,-1.307407 0,0.02937 0.2074162,-1.137633 0.026057,-0.148385 0.1016232,-0.54619 0.1250747,-0.675595 0.031266,-0.1798183 0.066186,-0.3718602 0.099017,-0.5543152 0.031271,-0.1586206 0.057326,-0.3072225 0.085468,-0.4607224 0.046903,-0.2547901 0,-0.00673 0.03648,-0.216189 0.00521,-0.045095 0.015633,-0.079098 0.026057,-0.1225971 0.026057,-0.138218 0.041694,-0.2330688 0.064101,-0.3368091 -0.031271,0.2138178 -0.046903,0.359516 -0.071918,0.5345311 -0.020843,0.167516 -0.041694,0.3326933 -0.057326,0.4745509 -0.00521,0.04436 -0.015633,0.1195336 -0.020843,0.1581826 0,0.02437 0,0.036079 0,0.065248 0,0.01672 -0.00521,0.049658 -0.00521,0.063273 0,0.046543 0,0.061459 0,0.098857 0,0.049239 -0.00521,0.023355 -0.00521,0.063932 0,0.00817 0,-0.00848 0,0.00189 0,0.00582 -0.010424,0.1174332 -0.010424,0.1278622 -0.015633,0.117073 -0.1386245,0.819109 -0.1412306,0.835095 -0.096933,0.554802 -0.084425,0.477335 -0.1995983,1.107988 -0.03648,0.186511 -0.2110642,1.174614 -0.2683899,1.442807 -0.1537385,0.8111787 -0.307997,1.6111217 -0.4638197,2.4519177 -0.026057,0.128287 -0.064101,0.332229 -0.08651,0.460065 -0.020843,0.107698 -0.026061,0.137076 -0.041694,0.214871"
         id="path1188-5-3-2-8" />
      <path
         style="opacity:0.99;fill:#ffc8c8;fill-opacity:1;stroke-width:0.119526;paint-order:markers fill stroke"
         d="m 9.5811973,8.3437933 c 0.2413305,-0.871598 -0.00438,0.01958 0.2074288,-0.758417 0.026927,-0.09892 0.1012943,-0.364125 0.1249908,-0.450393 0.032931,-0.119878 0.066352,-0.247905 0.099186,-0.369541 0.02854,-0.105746 0.05689,-0.204813 0.08504,-0.307146 0.04673,-0.169858 6.31e-4,-0.0045 0.03734,-0.144125 0.0079,-0.03006 0.01531,-0.05273 0.0232,-0.08173 0.02509,-0.092145 0.04238,-0.1553775 0.06445,-0.2245382 -0.03148,0.1425441 -0.04952,0.2396752 -0.07189,0.3563522 -0.02141,0.111676 -0.04168,0.221794 -0.05768,0.316364 -0.005,0.02957 -0.01537,0.07969 -0.01923,0.105454 -0.0024,0.01625 -8.57e-4,0.02405 -0.0038,0.0435 -0.0017,0.01115 -0.0066,0.03311 -0.0077,0.04218 -0.0037,0.03103 -7.67e-4,0.04097 -0.0037,0.0659 -0.0039,0.03283 -0.0065,0.01557 -0.0064,0.04262 1.6e-5,0.0054 0.0043,-0.0056 0.0039,0.0013 -2.18e-4,0.0039 -0.01128,0.07829 -0.01277,0.08524 -0.01681,0.07805 -0.1388193,0.54607 -0.1416117,0.556725 -0.096905,0.369856 -0.084276,0.318212 -0.1996745,0.738643 -0.03413,0.124341 -0.2109681,0.783071 -0.2680336,0.961865 -0.1536113,0.540781 -0.3081382,1.0740727 -0.4639889,1.6345987 -0.023779,0.08552 -0.06393,0.221485 -0.086346,0.306707 -0.018881,0.0718 -0.023396,0.09139 -0.039944,0.143247"
         id="path1188-3-3" />
      <path
         style="opacity:0.99;fill:#ffc8c8;fill-opacity:1;stroke-width:0.119526;paint-order:markers fill stroke"
         d="m 3.376268,9.9267313 c 0.241333,0.6536977 -0.0044,-0.01469 0.207431,0.5688117 0.02693,0.07419 0.1012951,0.273093 0.1249926,0.337795 0.032931,0.08991 0.066352,0.185928 0.099187,0.277155 0.028543,0.07931 0.056888,0.15361 0.085045,0.230359 0.046736,0.127394 6.225e-4,0.0034 0.03734,0.108093 0.00791,0.02254 0.015306,0.03955 0.023202,0.0613 0.025088,0.06911 0.04238,0.116534 0.064451,0.168403 -0.031482,-0.106908 -0.049519,-0.179756 -0.071888,-0.267263 -0.021408,-0.08376 -0.041676,-0.166345 -0.057682,-0.237273 -0.005,-0.02218 -0.015363,-0.05977 -0.019225,-0.07909 -0.00245,-0.01218 -8.885e-4,-0.01804 -0.0038,-0.03262 -0.00166,-0.0084 -0.00662,-0.02483 -0.00769,-0.03164 -0.00365,-0.02327 -7.848e-4,-0.03073 -0.0037,-0.04943 -0.00386,-0.02462 -0.00646,-0.01168 -0.00639,-0.03197 1.62e-5,-0.0041 0.00433,0.0042 0.00391,-9.47e-4 -2.216e-4,-0.0029 -0.011282,-0.05872 -0.012779,-0.06393 C 3.8218596,10.825935 3.6998521,10.474921 3.6970598,10.466928 3.6001528,10.189537 3.6127828,10.22827 3.497383,9.9129463 3.463253,9.8196863 3.286412,9.3256443 3.229346,9.1915493 3.075733,8.7859633 2.921204,8.3859943 2.76535,7.9656003 2.74157,7.9014603 2.70142,7.7994883 2.679,7.7355703 2.66011,7.6817203 2.65561,7.6670303 2.63905,7.6281353"
         id="path1188-2-3" />
      <path
         style="opacity:0.99;fill:#ffc8c8;fill-opacity:1;stroke-width:0.119526;paint-order:markers fill stroke"
         d="m 4.7551319,7.9925673 c 0.2413342,0.871602 -0.00438,-0.01958 0.2074315,0.75842 0.026932,0.09892 0.1012957,0.364126 0.1249931,0.450395 0.032931,0.119879 0.066352,0.247906 0.099187,0.369543 0.028542,0.105746 0.056888,0.204814 0.085045,0.307147 0.046735,0.1698597 6.315e-4,0.0045 0.037337,0.1441257 0.0079,0.03006 0.015308,0.05273 0.023202,0.08173 0.025087,0.09215 0.04238,0.155378 0.06445,0.224538 -0.031478,-0.142545 -0.049519,-0.239676 -0.071888,-0.3563527 -0.021406,-0.111677 -0.041672,-0.221795 -0.057682,-0.316366 -0.005,-0.02957 -0.015372,-0.07969 -0.019232,-0.105455 -0.00244,-0.01625 -8.57e-4,-0.02406 -0.00379,-0.0435 -0.00167,-0.01114 -0.00662,-0.0331 -0.00769,-0.04218 -0.00365,-0.03103 -7.668e-4,-0.04097 -0.0037,-0.06591 -0.00383,-0.03283 -0.00646,-0.01557 -0.00639,-0.04262 1.58e-5,-0.0054 0.00433,0.0056 0.00388,-0.0013 -2.219e-4,-0.0039 -0.011285,-0.07829 -0.012778,-0.08524 C 5.2007065,9.1914723 5.0786963,8.7234543 5.0759039,8.7127983 4.9789979,8.3429413 4.9916279,8.3945853 4.8762272,7.9741513 4.8420972,7.8498103 4.6652556,7.1910773 4.6081897,7.0122833 4.4545758,6.4714983 4.3000477,5.9382047 4.1441948,5.3776759 4.1204168,5.2921519 4.0802628,5.1561908 4.0578478,5.0709671 4.0389628,4.9991691 4.0344538,4.9795831 4.0179018,4.9277204"
         id="path1188-5-5-2" />
      <path
         style="opacity:0.99;fill:#ffc8c8;fill-opacity:1;stroke-width:0.119526;paint-order:markers fill stroke"
         d="m 6.1339929,6.0584042 c 0.2413342,1.0895061 -0.00438,-0.024474 0.2074315,0.9480281 0.026932,0.123653 0.1012957,0.455159 0.1249935,0.562995 0.032931,0.149849 0.066352,0.309883 0.099187,0.46193 0.028542,0.132183 0.056888,0.256018 0.085045,0.383936 0.046735,0.212324 6.315e-4,0.0056 0.037337,0.180157 0.0079,0.03758 0.015308,0.06591 0.023202,0.102163 0.025087,0.115183 0.04238,0.194224 0.06445,0.280675 -0.031483,-0.178182 -0.049519,-0.299597 -0.071888,-0.445442 -0.021411,-0.139597 -0.041676,-0.277245 -0.057682,-0.39546 -0.005,-0.03697 -0.015367,-0.09961 -0.019228,-0.131819 -0.00244,-0.02031 -8.57e-4,-0.03007 -0.00379,-0.05437 -0.00167,-0.01393 -0.00662,-0.04138 -0.00769,-0.05273 -0.00365,-0.03879 -7.667e-4,-0.05122 -0.0037,-0.08238 -0.00383,-0.04103 -0.00646,-0.01946 -0.00639,-0.05328 1.58e-5,-0.0068 0.00433,0.0071 0.00388,-0.0016 -2.219e-4,-0.0048 -0.011285,-0.09786 -0.012778,-0.106552 C 6.5795669,7.5571053 6.4575617,6.9720783 6.4547698,6.9587573 6.3578728,6.4964043 6.3705018,6.5609603 6.2551021,6.0354167 6.2209721,5.8799904 6.0441308,5.0565713 5.9870648,4.8330777 5.8334508,4.1570947 5.6789221,3.4904755 5.5230701,2.7898125 5.4992901,2.6829064 5.4591381,2.5129547 5.4367221,2.4064251 5.4178361,2.3166771 5.4133281,2.2921946 5.3967761,2.227366"
         id="path1188-5-3-25-2" />
      <path
         style="opacity:0.99;fill:#ffc8c8;fill-opacity:1;stroke-width:0.119526;paint-order:markers fill stroke"
         d="m 8.8917271,3.942021 c 0.2413342,0.8716051 -0.00438,-0.019581 0.2074311,0.7584226 0.026932,0.098923 0.1012952,0.3641266 0.1249934,0.4503957 0.032931,0.1198792 0.066352,0.2479073 0.099187,0.3695441 0.028542,0.1057466 0.056887,0.204815 0.085044,0.3071481 0.046735,0.1698605 6.314e-4,0.00451 0.037337,0.1441267 0.0079,0.030062 0.015308,0.052731 0.023202,0.081731 0.025087,0.092145 0.04238,0.1553794 0.06445,0.2245391 C 9.5018936,6.1353834 9.4838526,6.0382518 9.4614836,5.9215742 9.4400726,5.8098973 9.4198116,5.6997787 9.4038006,5.6052076 c -0.005,-0.029575 -0.015362,-0.07969 -0.019228,-0.1054556 -0.00244,-0.016247 -8.57e-4,-0.024054 -0.00379,-0.043499 -0.00167,-0.011145 -0.00662,-0.033102 -0.00769,-0.042182 -0.00365,-0.031032 -7.668e-4,-0.040968 -0.0037,-0.065905 -0.00383,-0.032827 -0.00646,-0.01557 -0.00639,-0.042619 1.62e-5,-0.00544 0.00433,0.00565 0.00388,-0.00126 C 9.3666612,5.300407 9.3555976,5.225998 9.3541046,5.219045 9.3373089,5.1409804 9.215304,4.6729566 9.2125116,4.6622998 9.1156054,4.2924319 9.1282346,4.3440763 9.0128344,3.923641 8.9787049,3.7992998 8.8018635,3.140565 8.744798,2.9617703 8.5911841,2.4209836 8.4366549,1.8876882 8.2808029,1.3271579 8.2570225,1.241633 8.2168711,1.1056717 8.1944547,1.0204478 8.1755687,0.9486496 8.171061,0.9290641 8.154509,0.8772009"
         id="path1188-5-3-8-0-3" />
      <path
         style="opacity:0.99;fill:#ffc8c8;fill-opacity:1;stroke-width:0.119526;paint-order:markers fill stroke"
         d="m 10.27059,3.7598298 c 0.241334,0.4358006 -0.0044,-0.00979 0.207431,0.3792094 0.02693,0.049459 0.101296,0.1820628 0.124993,0.2251969 0.03293,0.05994 0.06635,0.123953 0.09919,0.1847712 0.02854,0.052873 0.05689,0.102407 0.08504,0.1535738 0.04673,0.08493 6.32e-4,0.00226 0.03734,0.072063 0.0079,0.015029 0.01531,0.026368 0.0232,0.040864 0.02509,0.046075 0.04238,0.077689 0.06445,0.1122695 -0.03148,-0.071272 -0.04952,-0.1198385 -0.07189,-0.1781768 -0.02141,-0.055838 -0.04167,-0.1108975 -0.05768,-0.1581831 -0.005,-0.014785 -0.01537,-0.039845 -0.01923,-0.052727 -0.0024,-0.00812 -8.57e-4,-0.012029 -0.0038,-0.021749 -0.0017,-0.00557 -0.0066,-0.016549 -0.0077,-0.021091 -0.0037,-0.015516 -7.67e-4,-0.020486 -0.0037,-0.032949 -0.0038,-0.016418 -0.0065,-0.00778 -0.0064,-0.021312 1.5e-5,-0.00271 0.0043,0.0028 0.0039,-6.766e-4 -2.22e-4,-0.00194 -0.01129,-0.039146 -0.01278,-0.042619 -0.0168,-0.03902 -0.138803,-0.2730343 -0.141595,-0.2783629 C 10.494469,3.9350097 10.507098,3.9608321 10.391698,3.7506155 10.357568,3.6884455 10.180727,3.3590791 10.123661,3.2696825 9.9700475,2.9992901 9.8155188,2.7326435 9.6596658,2.4523794 9.6358858,2.4096164 9.5957338,2.3416368 9.5733188,2.2990253 c -0.018885,-0.0359 -0.023394,-0.045693 -0.039946,-0.071624"
         id="path1188-5-3-8-3-5-1" />
      <path
         style="opacity:0.99;fill:#ffc8c8;fill-opacity:1;stroke-width:0.119526;paint-order:markers fill stroke"
         d="m 7.5042061,4.124248 c 0.2412904,1.3074071 0,-0.029368 0.2074161,1.1376341 0.026057,0.1483836 0.1016232,0.5461896 0.1250752,0.6755938 0.031271,0.1798182 0.066186,0.3718604 0.099017,0.5543154 0.031271,0.15862 0.057326,0.307222 0.085468,0.460723 0.046903,0.254789 0,0.0067 0.03648,0.216189 0.00521,0.04509 0.015633,0.0791 0.026057,0.122596 0.026057,0.138219 0.041694,0.233069 0.064101,0.33681 -0.031271,-0.213818 -0.046903,-0.359517 -0.071918,-0.534532 -0.020843,-0.167515 -0.041695,-0.332693 -0.057326,-0.47455 -0.00521,-0.04436 -0.015633,-0.119534 -0.020843,-0.158183 0,-0.02437 0,-0.03608 0,-0.06525 0,-0.01672 -0.00521,-0.04966 -0.00521,-0.06327 0,-0.04654 0,-0.06146 0,-0.09886 0,-0.049239 -0.00521,-0.023355 -0.00521,-0.063932 0,-0.00817 0,0.00848 0,-0.00189 0,-0.00582 -0.010424,-0.117434 -0.010424,-0.1278631 C 7.9612514,5.9227155 7.8382609,5.2206802 7.8356557,5.2046939 7.7387197,4.6498889 7.7512267,4.727356 7.6360538,4.0967036 7.5995738,3.9101917 7.42499,2.9220887 7.3676638,2.6538964 7.2139263,1.8427175 7.0596668,1.0427734 6.9038446,0.2019784 6.8777856,0.073691 6.8397436,-0.130251 6.8173346,-0.2580868 6.7964906,-0.3657839 6.7912756,-0.3951632 6.7756416,-0.4729575"
         id="path1188-5-3-2-1-4" />
      <path
         style="opacity:0.99;fill:#ffc8c8;fill-opacity:1;stroke-width:0.119526;paint-order:markers fill stroke"
         d="m 11.649497,3.9420394 c 0.24133,0.8715984 -0.0044,-0.019581 0.207429,0.7584164 0.02693,0.098923 0.101295,0.3641252 0.124991,0.4503935 0.03293,0.1198777 0.06635,0.2479054 0.09919,0.3695404 0.02854,0.1057466 0.05689,0.2048128 0.08504,0.3071463 0.04673,0.1698583 6.31e-4,0.00451 0.03734,0.1441249 0.0079,0.030062 0.01531,0.052731 0.0232,0.08173 0.02509,0.092146 0.04238,0.155378 0.06445,0.2245384 -0.03148,-0.1425442 -0.04952,-0.2396754 -0.07189,-0.3563516 -0.02141,-0.111676 -0.04167,-0.2217941 -0.05768,-0.3163652 -0.005,-0.02957 -0.01536,-0.079688 -0.01923,-0.1054539 -0.0024,-0.016246 -8.57e-4,-0.024059 -0.0038,-0.043498 -0.0017,-0.011145 -0.0066,-0.033102 -0.0077,-0.042182 -0.0036,-0.031032 -7.67e-4,-0.040968 -0.0037,-0.065905 -0.0039,-0.032836 -0.0065,-0.01557 -0.0064,-0.042619 1.5e-5,-0.00544 0.0043,0.00565 0.0039,-0.00131 -2.18e-4,-0.00388 -0.01128,-0.078288 -0.01277,-0.085241 -0.0168,-0.078069 -0.138808,-0.54609 -0.1416,-0.5567454 C 11.87332,4.2924048 11.88595,4.3440488 11.770551,3.923618 11.736421,3.7992773 11.559583,3.1405466 11.502518,2.9617529 c -0.153612,-0.540781 -0.30814,-1.0740728 -0.46399,-1.634599 -0.02378,-0.085524 -0.06393,-0.2214848 -0.08635,-0.3067066 -0.01888,-0.071799 -0.02339,-0.091385 -0.03995,-0.1432475"
         id="path1188-3-4-8" />
      <path
         style="opacity:0.99;fill:#ffc8c8;fill-opacity:1;stroke-width:0.119526;paint-order:markers fill stroke"
         d="m 9.6447528,10.174094 c -0.2413337,-0.6536977 0.00438,0.01469 -0.207431,-0.5688117 -0.026932,-0.07419 -0.1012953,-0.273093 -0.1249931,-0.337795 -0.032931,-0.08991 -0.066352,-0.185928 -0.099187,-0.277155 -0.028542,-0.07931 -0.056888,-0.153609 -0.085045,-0.230359 -0.046735,-0.127394 -6.314e-4,-0.0034 -0.037337,-0.108093 -0.0079,-0.02254 -0.015308,-0.03955 -0.023202,-0.0613 -0.025087,-0.06911 -0.04238,-0.116533 -0.064451,-0.168403 0.031478,0.106908 0.049519,0.179756 0.071888,0.267263 0.021411,0.08376 0.041672,0.166345 0.057683,0.237273 0.005,0.02218 0.015367,0.05977 0.019228,0.07909 0.00244,0.01218 8.57e-4,0.01804 0.00379,0.03262 0.00167,0.0084 0.00662,0.02482 0.00769,0.03164 0.00365,0.02327 7.667e-4,0.03073 0.0037,0.04943 0.00383,0.02462 0.00646,0.01168 0.00639,0.03197 -1.58e-5,0.0041 -0.00433,-0.0042 -0.00388,9.47e-4 2.219e-4,0.0029 0.011285,0.05872 0.012778,0.06393 0.01681,0.05853 0.1388202,0.409549 0.1416121,0.417542 0.096906,0.277391 0.084277,0.238658 0.1996777,0.5539807 0.03413,0.09325 0.2109704,0.587303 0.2680363,0.721398 0.153614,0.405586 0.3081432,0.805554 0.4639952,1.225948 0.02378,0.06414 0.06393,0.166113 0.08635,0.23003 0.01888,0.05385 0.0234,0.06854 0.03994,0.107435"
         id="path1188-4-3" />
      <path
         style="opacity:0.99;fill:#ffc8c8;fill-opacity:1;stroke-width:0.119526;paint-order:markers fill stroke"
         d="m 11.825066,9.4300483 c 0.241335,-0.871602 -0.0044,0.01958 0.207432,-0.75842 0.02693,-0.09892 0.101295,-0.364125 0.124993,-0.450394 0.03293,-0.119879 0.06635,-0.247906 0.09919,-0.369543 0.02854,-0.105746 0.05689,-0.204814 0.08504,-0.307147 0.04673,-0.16986 6.31e-4,-0.0045 0.03734,-0.144126 0.0079,-0.03006 0.01531,-0.05273 0.0232,-0.08173 0.02509,-0.09214 0.04238,-0.155379 0.06445,-0.224539 -0.03148,0.142545 -0.04952,0.239677 -0.07189,0.356353 -0.02141,0.111677 -0.04167,0.221795 -0.05768,0.316366 -0.005,0.02957 -0.01537,0.07969 -0.01923,0.105456 -0.0024,0.01625 -8.57e-4,0.02406 -0.0038,0.0435 -0.0017,0.01115 -0.0066,0.0331 -0.0077,0.04218 -0.0037,0.03103 -7.67e-4,0.04097 -0.0037,0.0659 -0.0038,0.03283 -0.0065,0.01557 -0.0064,0.04262 1.6e-5,0.0054 0.0043,-0.0056 0.0039,0.0013 -2.22e-4,0.0039 -0.01129,0.07829 -0.01278,0.08524 -0.01681,0.07805 -0.13882,0.54607 -0.141612,0.556727 -0.09691,0.369857 -0.08428,0.318212 -0.199677,0.738645 -0.03413,0.124342 -0.210971,0.7830747 -0.268038,0.9618687 -0.153613,0.540785 -0.308142,1.074079 -0.463994,1.634608 -0.02378,0.08552 -0.06393,0.221485 -0.08635,0.306709 -0.01888,0.0718 -0.0234,0.09138 -0.03994,0.143246"
         id="path1188-5-6-1" />
      <path
         style="opacity:0.99;fill:#ffc8c8;fill-opacity:1;stroke-width:0.119526;paint-order:markers fill stroke"
         d="m 0.73027,8.8769513 c 0.241335,-1.089506 -0.0044,0.02447 0.207432,-0.948028 0.02693,-0.123654 0.101296,-0.455158 0.124993,-0.562996 0.03293,-0.149848 0.06635,-0.309883 0.09919,-0.461929 0.02854,-0.132183 0.05689,-0.256019 0.08505,-0.383935 0.04674,-0.212325 6.22e-4,-0.0056 0.03734,-0.180158 0.0079,-0.03758 0.01531,-0.06591 0.0232,-0.102163 0.02509,-0.1151836 0.04238,-0.1942248 0.06445,-0.2806753 -0.03148,0.1781818 -0.04952,0.2995973 -0.07189,0.4454433 -0.02141,0.139596 -0.04168,0.277244 -0.05768,0.395458 -0.005,0.03697 -0.01536,0.09961 -0.01923,0.131819 -0.0024,0.02031 -8.84e-4,0.03007 -0.0038,0.05437 -0.0017,0.01393 -0.0066,0.04138 -0.0077,0.05273 -0.0036,0.03879 -7.85e-4,0.05122 -0.0037,0.08238 -0.0039,0.04103 -0.0065,0.01947 -0.0064,0.05328 1.6e-5,0.0068 0.0043,-0.0071 0.0039,0.0016 -2.22e-4,0.0048 -0.01128,0.09786 -0.01278,0.106552 -0.01682,0.09756 -0.13882,0.682591 -0.141612,0.695912 -0.09691,0.462335 -0.08428,0.39778 -0.199677,0.923324 -0.03413,0.155426 -0.210971,0.978845 -0.268037,1.2023377 -0.153614,0.675983 -0.308143,1.342603 -0.463995,2.043266 -0.02378,0.106906 -0.06393,0.276857 -0.08635,0.383387 -0.01889,0.08975 -0.02339,0.114231 -0.03995,0.179059"
         id="path1188-5-3-4-0" />
      <path
         style="opacity:0.99;fill:#ffc8c8;fill-opacity:1;stroke-width:0.119526;paint-order:markers fill stroke"
         d="m 2.578201,9.1488373 c 0.486303,-0.767323 -0.0099,0.01753 0.420698,-0.668402 0.05476,-0.08722 0.203615,-0.320428 0.251567,-0.396429 0.06663,-0.10561 0.136123,-0.218889 0.203181,-0.32621 0.0583,-0.0933 0.114445,-0.18026 0.17137,-0.2704 0.094489,-0.14962 0.0019,-0.0041 0.077955,-0.127603 0.016372,-0.02658 0.030097,-0.04622 0.046148,-0.07179 0.051004,-0.08124 0.086077,-0.13697 0.127463,-0.197035 -0.07188,0.127732 -0.1175882,0.215727 -0.1731665,0.321234 -0.053195,0.100985 -0.1048405,0.200798 -0.1478535,0.286911 -0.01345,0.02693 -0.03804,0.07203 -0.04928,0.09564 -0.0071,0.01487 -0.0079,0.0228 -0.01638,0.0406 -0.0049,0.01021 -0.01603,0.02986 -0.01971,0.03825 -0.01258,0.0287 -0.01274,0.03903 -0.02283,0.0621 -0.0133,0.03037 -0.01075,0.0131 -0.0186,0.03904 -0.0016,0.0052 0.0058,-0.0042 0.0034,0.0023 -0.0013,0.0037 -0.03372,0.07184 -0.03719,0.07808 -0.03895,0.07005 -0.292815,0.484212 -0.29861,0.493639 -0.20109,0.32716 -0.173876,0.281226 -0.407484,0.651643 -0.06909,0.109548 -0.431304,0.691028 -0.538304,0.8463087 -0.305442,0.474998 -0.609568,0.942561 -0.922934,1.435845 -0.04781,0.07526 -0.126072,0.194256 -0.17249,0.269615 -0.03911,0.06349 -0.04916,0.08099 -0.08019,0.126029"
         id="path1188-5-3-8-9-1" />
      <path
         style="opacity:0.99;fill:#ffc8c8;fill-opacity:1;stroke-width:0.119526;paint-order:markers fill stroke"
         d="m 11.260252,11.69687 c 0.450369,-0.226463 -0.0093,0.0057 0.38977,-0.198472 0.05073,-0.02595 0.18854,-0.09435 0.23296,-0.116867 0.06173,-0.03129 0.126206,-0.06568 0.18836,-0.09775 0.05403,-0.02788 0.105977,-0.05312 0.158707,-0.0798 0.08753,-0.0443 0.0018,-0.0015 0.07235,-0.03887 0.01519,-0.008 0.02783,-0.01332 0.0427,-0.02092 0.04726,-0.02418 0.07975,-0.04073 0.117904,-0.05708 -0.06706,0.04145 -0.109938,0.07158 -0.162022,0.107386 -0.04985,0.03428 -0.09831,0.06853 -0.138772,0.09873 -0.01265,0.0094 -0.03564,0.02441 -0.04626,0.03291 -0.0067,0.0053 -0.0077,0.0094 -0.01568,0.01585 -0.0046,0.0037 -0.015,0.01001 -0.01851,0.01316 -0.01196,0.0108 -0.01245,0.01648 -0.02204,0.02516 -0.01264,0.01142 -0.0098,0.0028 -0.01755,0.01406 -0.0016,0.0022 0.0052,7.2e-5 0.0029,0.0027 -0.0013,0.0015 -0.03188,0.02609 -0.03511,0.02813 -0.03637,0.02293 -0.271942,0.148722 -0.277318,0.151579 -0.18657,0.09914 -0.161264,0.0848 -0.377672,0.194598 -0.064,0.03247 -0.399794,0.206695 -0.498421,0.248972 -0.282633,0.138367 -0.563863,0.273136 -0.854032,0.418415 -0.044274,0.02217 -0.1165957,0.05611 -0.1596563,0.0789 -0.036277,0.01921 -0.045641,0.0248 -0.074251,0.03706"
         id="path1188-5-3-8-3-1-73" />
      <path
         style="opacity:0.99;fill:#ffc8c8;fill-opacity:1;stroke-width:0.119526;paint-order:markers fill stroke"
         d="m 0.506327,9.0379013 c 0.24129,1.3074077 0,-0.02937 0.207416,1.1376337 0.02606,0.148384 0.101623,0.54619 0.125074,0.675594 0.03127,0.179819 0.06619,0.37186 0.09902,0.554316 0.03127,0.15862 0.05733,0.307222 0.08547,0.460722 0.0469,0.25479 0,0.0067 0.03648,0.216189 0.0052,0.0451 0.01563,0.0791 0.02606,0.122597 0.02606,0.138218 0.04169,0.233069 0.0641,0.336809 -0.03127,-0.213818 -0.0469,-0.359516 -0.07192,-0.534531 -0.02085,-0.167515 -0.04169,-0.332693 -0.05733,-0.474551 -0.0052,-0.04436 -0.01563,-0.119533 -0.02085,-0.158182 0,-0.02437 0,-0.03608 0,-0.06525 0,-0.01672 -0.0052,-0.04966 -0.0052,-0.06327 0,-0.04654 0,-0.06146 0,-0.09886 0,-0.04924 -0.0052,-0.02336 -0.0052,-0.06393 0,-0.0082 0,0.0085 0,-0.0019 0,-0.0058 -0.01042,-0.117434 -0.01042,-0.127863 C 0.963397,10.836359 0.840402,10.134323 0.837796,10.118337 0.740866,9.5635353 0.753376,9.6410023 0.638197,9.0103493 0.601717,8.8238383 0.427134,7.8357353 0.369808,7.5675423 0.21607,6.7563633 0.061811,5.9564196 -0.094012,5.1156245 -0.120072,4.987337 -0.158112,4.7833948 -0.180522,4.6555588 -0.201372,4.5478615 -0.206582,4.5184823 -0.222212,4.4406882"
         id="path1188-5-3-2-5-0" />
      <path
         style="display:inline;opacity:0.99;fill:#ffc8c8;fill-opacity:1;stroke-width:0.119526;paint-order:markers fill stroke"
         d="m 1.34018,4.9880981 c 0.321666,-0.5651984 -0.0063,0.012793 0.27765,-0.4920437 0.0361,-0.064191 0.134797,-0.2360767 0.166468,-0.2920362 0.04401,-0.077761 0.08948,-0.1609708 0.133635,-0.2399256 0.03838,-0.068641 0.07574,-0.1327964 0.113353,-0.1991722 0.06243,-0.1101741 0.0011,-0.00296 0.05094,-0.093699 0.01073,-0.019534 0.02008,-0.034129 0.03066,-0.052945 0.03363,-0.059793 0.05678,-0.1008166 0.08486,-0.1453917 -0.04561,0.093179 -0.0737,0.1569919 -0.108047,0.2335793 -0.03288,0.073305 -0.06456,0.1456659 -0.09054,0.2079413 -0.0081,0.019473 -0.02354,0.052301 -0.03018,0.069313 -0.0042,0.010727 -0.0038,0.016136 -0.0088,0.028975 -0.0029,0.00736 -0.01,0.021703 -0.01207,0.027725 -0.0071,0.020586 -0.0059,0.027557 -0.01162,0.04409 -0.0076,0.021775 -0.0076,0.0099 -0.01099,0.028144 -6.72e-4,0.00368 0.0045,-0.00342 0.0033,0.00128 -6.81e-4,0.0026 -0.01978,0.051737 -0.02197,0.056286 -0.0246,0.05106 -0.19068,0.3552604 -0.194474,0.3621853 C 1.580679,4.772754 1.598275,4.7391089 1.444,5.0118371 1.39837,5.0924951 1.160132,5.5201751 1.087523,5.6354103 c -0.202976,0.3503138 -0.405806,0.695493 -0.61324,1.058912 -0.03165,0.05545 -0.08402,0.143381 -0.114439,0.198754 -0.02562,0.04665 -0.03205,0.05944 -0.05311,0.09286"
         id="path1188-3-8-8" />
      <path
         style="opacity:0.99;fill:#ffc8c8;fill-opacity:1;stroke-width:0.119526;paint-order:markers fill stroke"
         d="m 5.3991009,0.3954504 c -0.3735349,-0.3995727 0.00717,0.00922 -0.3220321,-0.3482647 -0.041857,-0.045448 -0.1566044,-0.166821 -0.1933549,-0.2064119 -0.051072,-0.055016 -0.1035658,-0.1141658 -0.1547083,-0.170118 -0.044459,-0.048642 -0.087983,-0.093854 -0.1316316,-0.1408077 -0.07245,-0.077935 -0.00122,-0.0022 -0.058766,-0.066651 -0.012398,-0.01387 -0.023423,-0.02402 -0.035691,-0.037339 -0.038995,-0.04234 -0.065836,-0.071377 -0.098893,-0.1024226 0.051755,0.067148 0.083023,0.1136759 0.1214077,0.1694072 0.036738,0.053342 0.071977,0.106132 0.1006072,0.1517818 0.00895,0.014273 0.026318,0.038043 0.033535,0.050597 0.00461,0.0079 0.00356,0.012334 0.00901,0.0218 0.00311,0.00543 0.011204,0.015748 0.013419,0.020239 0.0075,0.01535 0.00521,0.021167 0.011253,0.033486 0.00794,0.016233 0.00919,0.00665 0.011944,0.020759 5.412e-4,0.00281 -0.00565,-0.00194 -0.00442,0.00158 6.766e-4,0.00194 0.021398,0.038237 0.023878,0.041524 0.027847,0.036859 0.2195517,0.2531307 0.2239345,0.2580521 0.1520741,0.1708019 0.1318944,0.1467492 0.3108922,0.3397192 0.052939,0.057069 0.3287553,0.3603078 0.4142185,0.440567 0.2362937,0.2470392 0.4728716,0.4899705 0.7138536,0.7467892 0.036769,0.039186 0.097967,0.1009484 0.1331086,0.1402842 0.029611,0.033139 0.036936,0.042324 0.061722,0.065606"
         id="path1188-5-3-8-3-9-1" />
      <path
         style="opacity:0.99;fill:#ffc8c8;fill-opacity:1;stroke-width:0.119526;paint-order:markers fill stroke"
         d="m 4.0582468,2.4379141 c 0.1450806,-0.735484 -0.00202,0.016289 0.1232429,-0.6393983 0.015932,-0.08337 0.061164,-0.307368 0.075303,-0.3801215 0.019649,-0.1010973 0.038587,-0.2086736 0.057848,-0.3111237 0.016744,-0.089066 0.034304,-0.1728676 0.051124,-0.2591799 0.027927,-0.1432649 1.06e-5,-0.00362 0.020993,-0.1210376 0.00451,-0.02527 0.0096,-0.044657 0.014276,-0.069096 0.014842,-0.07766 0.025108,-0.1309686 0.040041,-0.1899873 -0.014395,0.1184824 -0.020206,0.1984456 -0.028008,0.2946593 -0.00747,0.092089 -0.013843,0.1827037 -0.017689,0.2602086 -0.0012,0.024234 -0.00543,0.065732 -0.00589,0.086736 -3.088e-4,0.013242 0.00278,0.018994 0.0024,0.034844 -1.911e-4,0.00908 -0.00254,0.027358 -0.00235,0.034691 6.224e-4,0.025066 0.00552,0.032195 0.00602,0.052334 6.721e-4,0.02652 -0.00511,0.01362 -7.667e-4,0.034742 8.66e-4,0.00424 0.00418,-0.00538 0.00475,1.234e-4 3.553e-4,0.00311 -8.66e-4,0.063717 -0.00149,0.069488 C 4.390671,1.4005711 4.32163,1.7937913 4.320042,1.8027482 4.26491,2.1136035 4.271555,2.0704012 4.2027546,2.4249467 4.1823856,2.529802 4.0792299,3.0844083 4.0406302,3.2369856 3.9460362,3.6941899 3.849239,4.1457493 3.755177,4.6188861 3.740827,4.6910771 3.715265,4.8063698 3.702459,4.8780176 3.691667,4.9383796 3.68948,4.9546996 3.678283,4.9989575"
         id="path1188-4-7-0" />
      <path
         style="opacity:0.99;fill:#ffc8c8;fill-opacity:1;stroke-width:0.119526;paint-order:markers fill stroke"
         d="M 0.788942,2.555802 C 0.324025,1.7022051 0.798142,2.575214 0.387394,1.81247 0.335164,1.715488 0.192613,1.4559736 0.146818,1.3714438 0.083178,1.253984 0.017261,1.128143 -0.046634,1.0088288 -0.102184,0.9051013 -0.156091,0.8082859 -0.210468,0.708026 c -0.09026,-0.1664169 -0.0017,-0.00454 -0.07388,-0.1417268 -0.01555,-0.029531 -0.02895,-0.051483 -0.04426,-0.079914 -0.04865,-0.090339 -0.08213,-0.1523146 -0.122435,-0.2193864 0.0667,0.1414017 0.108153,0.2385258 0.15877,0.3550344 0.04845,0.1115157 0.09524,0.2216654 0.133777,0.3165799 0.01205,0.029679 0.03468,0.079555 0.04459,0.1055258 0.0063,0.016371 0.0061,0.024867 0.01357,0.044458 0.0043,0.011237 0.01467,0.032991 0.01784,0.042207 0.01075,0.031512 0.0095,0.042508 0.01817,0.067821 0.01138,0.033333 0.01082,0.014763 0.01641,0.042962 0.0011,0.00567 -0.0062,-0.0049 -0.0043,0.00224 0.0011,0.00398 0.02961,0.079017 0.03282,0.085923 0.03602,0.077519 0.276805,0.5375825 0.282304,0.5480555 0.19085,0.3634574 0.165256,0.3125031 0.388334,0.7244798 0.06598,0.1218396 0.410856,0.7682179 0.515065,0.9416131 0.292992,0.5287382 0.585483,1.0494664 0.885232,1.5982694 0.04574,0.083736 0.121188,0.216322 0.165265,0.3000518 0.03714,0.070538 0.04651,0.089927 0.07674,0.1402235"
         id="path1188-5-6-9-6" />
      <path
         style="opacity:0.99;fill:#ffc8c8;fill-opacity:1;stroke-width:0.119526;paint-order:markers fill stroke"
         d="M 2.041163,0.8393109 C 1.667628,0.4397386 2.048363,0.8485309 1.719131,0.4910472 1.677271,0.4455992 1.562526,0.3242267 1.525777,0.2846343 1.474707,0.2296193 1.422211,0.1704701 1.371069,0.1145172 1.326609,0.0658752 1.283089,0.0206622 1.239437,-0.02629 c -0.07245,-0.077937 -0.0012,-0.00219 -0.05877,-0.066651 -0.0124,-0.01387 -0.02343,-0.02402 -0.03569,-0.037339 -0.03899,-0.04234 -0.06584,-0.071376 -0.09889,-0.1024216 0.05175,0.067148 0.08302,0.1136763 0.121408,0.1694071 0.03674,0.053342 0.07198,0.1061316 0.100607,0.1517823 0.0089,0.014273 0.02632,0.038043 0.03354,0.050597 0.0046,0.0079 0.0035,0.012334 0.009,0.0218 0.0031,0.00543 0.01121,0.015748 0.01342,0.020239 0.0075,0.01535 0.0052,0.021167 0.01126,0.033486 0.0079,0.016233 0.0092,0.00665 0.01194,0.020759 5.23e-4,0.00281 -0.0057,-0.00194 -0.0044,0.00158 6.76e-4,0.00194 0.0214,0.038237 0.02388,0.041524 0.02784,0.036859 0.219552,0.2531308 0.223934,0.2580521 0.152076,0.1708015 0.131897,0.1467489 0.310895,0.3397188 0.05294,0.057069 0.328755,0.3603079 0.414218,0.4405675 0.236294,0.2470393 0.472872,0.48997 0.713853,0.7467887 0.03677,0.039186 0.09797,0.100949 0.133109,0.1402847 0.02961,0.033139 0.03693,0.042324 0.06172,0.065606"
         id="path1188-5-3-8-3-1-2-9" />
      <path
         style="opacity:0.99;fill:#ffc8c8;fill-opacity:1;stroke-width:0.119526;paint-order:markers fill stroke"
         d="m 8.2878549,1.6405531 c 0.6010446,-0.4902384 -0.01373,0.00969 0.523541,-0.4233264 0.068313,-0.055059 0.250995,-0.205406 0.3105255,-0.2536888 0.082721,-0.067095 0.1714387,-0.1365327 0.2554974,-0.2038767 0.073077,-0.058543 0.1411981,-0.1154242 0.2118043,-0.1727571 0.117195,-0.095164 0.0032,-0.00174 0.099931,-0.07781 0.02082,-0.016378 0.036214,-0.030554 0.05624,-0.046694 0.063633,-0.051288 0.1072846,-0.086572 0.1543537,-0.1291843 -0.099994,0.070046 -0.168857,0.1134446 -0.2514277,0.1664664 -0.079032,0.050748 -0.1571406,0.099719 -0.2245183,0.1400013 -0.021068,0.012593 -0.056376,0.036329 -0.074839,0.046671 -0.011641,0.00654 -0.017816,0.00621 -0.031749,0.014015 -0.00799,0.00447 -0.023369,0.015388 -0.02994,0.018669 -0.022453,0.011184 -0.0305,0.00965 -0.048539,0.018618 -0.023747,0.011827 -0.010275,0.011485 -0.03054,0.017108 -0.00406,0.00113 0.00329,-0.00661 -0.0018,-0.00469 -0.00289,0.0011 -0.056195,0.030851 -0.061082,0.034217 C 9.0904748,0.8221105 8.7661214,1.0757318 8.7587387,1.0815241 8.5025211,1.2825751 8.538489,1.2556456 8.2483498,1.490838 8.1625428,1.560396 7.7071094,1.9238619 7.5854226,2.0340149 7.2133292,2.3431017 6.8470376,2.6517663 6.4606431,2.9678644 6.4016881,3.0160934 6.3084639,3.0957439 6.2494445,3.142181 6.1997215,3.181304 6.1860215,3.19116 6.1507245,3.223117"
         id="path1188-50-6" />
      <path
         style="opacity:0.99;fill:#ffc8c8;fill-opacity:1;stroke-width:0.119526;paint-order:markers fill stroke"
         d="m 11.03408,0.7936447 c 0.703116,-0.3912002 -0.01582,0.00717 0.611872,-0.3364345 0.07981,-0.043692 0.293728,-0.1641631 0.363325,-0.2025907 0.09671,-0.053399 0.200038,-0.107724 0.29818,-0.1610155 0.08532,-0.046328 0.165217,-0.092204 0.247774,-0.137855 0.137031,-0.075781 0.0036,-0.00103 0.116324,-0.060722 0.02425,-0.012869 0.04252,-0.024762 0.06592,-0.037569 0.07434,-0.040702 0.125359,-0.068741 0.181082,-0.1043039 -0.115176,0.051634 -0.193738,0.08153 -0.288093,0.1185295 -0.09031,0.035414 -0.179381,0.069025 -0.255907,0.095737 -0.02393,0.00835 -0.06444,0.025405 -0.0853,0.0319100024 -0.01315,0.004119998 -0.01954,0.001849998 -0.03529,0.006779998 -0.009,0.0028 -0.02676,0.010946 -0.03412,0.012747 -0.02515,0.00627 -0.0333,0.00206 -0.0535,0.00711 -0.02661,0.00661 -0.01251,0.010314 -0.0345,0.010779 -0.0044,6.95e-5 0.0045,-0.0068 -0.0012,-0.00598 -0.0032,4.261e-4 -0.06339,0.019073 -0.06902,0.021492 -0.06307,0.027607 -0.440798,0.2259491 -0.449399,0.2304864 -0.29849,0.1574955 -0.25679,0.1368975 -0.595974,0.3240356 -0.100307,0.055376 -0.631834,0.342445 -0.775889,0.4343836 -0.4361561,0.2487175 -0.8662017,0.4986948 -1.318361,0.751282 -0.06899,0.03854 -0.1786099,0.1034399 -0.2473867,0.1398626 -0.057942,0.030693 -0.073765,0.03806 -0.11555,0.064733"
         id="path1188-4-7-2-5" />
      <path
         style="opacity:0.99;fill:#ffc8c8;fill-opacity:1;stroke-width:0.119526;paint-order:markers fill stroke"
         d="m 7.9764368,1.5712369 c 0.950625,0.3491859 -0.02133,-0.00623 0.8271222,0.2998771 0.10788,0.038921 0.3971497,0.1466116 0.4912354,0.1808811 0.1307403,0.047623 0.2703282,0.095776 0.4029736,0.1432018 0.1153159,0.041229 0.2233867,0.082328 0.334995,0.1230508 0.185252,0.067593 0.0049,8.344e-4 0.157131,0.053771 0.03278,0.011398 0.05753,0.022221 0.08915,0.033623 0.10049,0.036252 0.169452,0.061253 0.24495,0.09348 C 10.368712,2.4543617 10.26298,2.4291477 10.135958,2.397772 10.014378,2.367744 9.8945138,2.339431 9.791606,2.317288 9.759429,2.310368 9.704847,2.295719 9.6768228,2.290457 9.6591558,2.287117 9.6507208,2.2897714 9.6295738,2.285767 9.6174498,2.283517 9.5935308,2.276447 9.5836648,2.275032 c -0.033729,-0.00476 -0.044446,-8.76e-5 -0.071542,-0.00394 -0.035682,-0.00505 -0.017031,-0.00957 -0.04636,-0.0087 -0.0059,1.444e-4 0.00622,0.00655 -0.00135,0.00605 C 9.4601728,2.2681752 9.3792688,2.253152 9.3716938,2.251026 9.2867018,2.2271848 8.7764256,2.0514056 8.7648054,2.0473815 8.3615445,1.907716 8.4178324,1.9258229 7.9593044,1.7589516 7.8236974,1.7095987 7.1053704,1.4542795 6.9101896,1.3709592 6.3202845,1.1483096 5.7384801,0.924039 5.127117,0.6984715 5.0338359,0.6640543 4.8854901,0.6057097 4.7925671,0.5733941 4.7142831,0.5461651 4.6929421,0.5397361 4.6363265,0.5155671"
         id="path1188-5-6-9-5-9" />
      <path
         style="opacity:0.99;fill:#ffc8c8;fill-opacity:1;stroke-width:0.119526;paint-order:markers fill stroke"
         d="m 9.4293496,3.696274 c 0.4781259,0.3611901 -0.010717,-0.0065 0.4159785,0.3103228 0.054249,0.040285 0.1997559,0.1516264 0.2470759,0.1870822 0.06575,0.049276 0.135936,0.099191 0.202641,0.1482923 0.05799,0.042687 0.112358,0.085149 0.168489,0.1272821 0.09317,0.069932 0.0024,9.021e-4 0.079,0.055756 0.01648,0.011817 0.02895,0.022945 0.04485,0.034753 0.05054,0.037527 0.08522,0.063394 0.123225,0.096573 -0.07801,-0.046724 -0.131084,-0.073274 -0.194855,-0.1062581 -0.06104,-0.031564 -0.121208,-0.061389 -0.172848,-0.084841 -0.01614,-0.00733 -0.04356,-0.02266 -0.05762,-0.02828 -0.0089,-0.00356 -0.01306,-0.00104 -0.02367,-0.00529 -0.0061,-0.00244 -0.01809,-0.00977 -0.02305,-0.011317 -0.01691,-0.00519 -0.02223,-6.766e-4 -0.03581,-0.00485 -0.01789,-0.0055 -0.0086,-0.00978 -0.02326,-0.00929 -0.0029,1.294e-4 0.0031,0.00661 -6.32e-4,0.00606 -0.0021,-3.13e-4 -0.0427,-0.016364 -0.04651,-0.018583 C 10.089658,4.3687628 9.8330935,4.1865402 9.8272512,4.1823691 9.6244857,4.0376101 9.6527774,4.0564275 9.4221672,3.883766 9.3539659,3.8327007 8.9927418,3.5683098 8.8944857,3.4825263 8.5977422,3.2524287 8.3050388,3.020814 7.9975402,2.7875266 7.9506212,2.7519346 7.8759814,2.6917146 7.8292588,2.6582246 c -0.039362,-0.028214 -0.050087,-0.03492 -0.078587,-0.0598"
         id="path1188-5-3-8-3-1-2-0-3" />
      <path
         style="opacity:0.99;fill:#ffc8c8;fill-opacity:1;stroke-width:0.119526;paint-order:markers fill stroke"
         d="m 8.6813088,6.2400273 c 0.6149881,-0.347169 -0.013017,0.0085 0.5331689,-0.3037065 0.069448,-0.039687 0.2572835,-0.1447361 0.3180092,-0.1792174 0.084384,-0.047913 0.1731689,-0.1001898 0.2583484,-0.1491721 0.07405,-0.042583 0.144649,-0.081467 0.2167187,-0.12234 0.119624,-0.067844 0.0027,-0.00216 0.09973,-0.059028 0.02089,-0.012237 0.03775,-0.020558 0.05811,-0.032195 0.06469,-0.036972 0.109142,-0.062295 0.160173,-0.087997 -0.09447,0.06182 -0.156239,0.1061034 -0.23097,0.1588524 -0.07153,0.05049 -0.1414121,0.1008077 -0.2003608,0.1449044 -0.018434,0.013788 -0.051109,0.035971 -0.066789,0.0483 -0.0099,0.00776 -0.012562,0.013229 -0.024392,0.02253 -0.00678,0.00534 -0.021411,0.014794 -0.026711,0.019318 -0.018123,0.01548 -0.020838,0.02299 -0.035384,0.035434 -0.019165,0.016382 -0.012629,0.00485 -0.025939,0.020396 -0.00266,0.00311 0.0061,-5.413e-4 0.00235,0.0032 -0.00207,0.00207 -0.047292,0.037743 -0.051875,0.040792 -0.051406,0.034117 -0.375837,0.2253212 -0.383235,0.2296666 -0.2567607,0.1507931 -0.2215979,0.1291679 -0.5174758,0.2972696 -0.087505,0.04971 -0.5480524,0.315603 -0.6799852,0.382044 -0.3845326,0.212951 -0.766065,0.421031 -1.1620622,0.643885 -0.060421,0.034 -0.1582678,0.08657 -0.2174975,0.121266 -0.049899,0.02923 -0.063021,0.0376 -0.1012893,0.05688"
         id="path1188-9-5" />
      <path
         style="opacity:0.99;fill:#ffc8c8;fill-opacity:1;stroke-width:0.119526;paint-order:markers fill stroke"
         d="m 11.357775,8.5548573 c 0.595296,-0.470459 -0.01228,0.01116 0.515321,-0.410818 0.06709,-0.05365 0.249189,-0.196274 0.307912,-0.242945 0.0816,-0.06485 0.16693,-0.135108 0.249129,-0.201239 0.07146,-0.05749 0.140073,-0.110449 0.209778,-0.165788 0.115704,-0.09185 0.0024,-0.0028 0.09576,-0.07924 0.02011,-0.01645 0.03675,-0.02806 0.05642,-0.04379 0.06249,-0.04998 0.10545,-0.08423 0.155733,-0.119909 -0.08904,0.08146 -0.146146,0.138899 -0.215478,0.207501 -0.06636,0.06566 -0.130915,0.130888 -0.184902,0.187691 -0.01688,0.01776 -0.04745,0.0468 -0.06163,0.06256 -0.009,0.0099 -0.0104,0.01626 -0.02112,0.02815 -0.0061,0.0068 -0.01997,0.0193 -0.02464,0.02503 -0.01603,0.01955 -0.01698,0.02809 -0.02987,0.0438 -0.01695,0.0207 -0.01287,0.0072 -0.02348,0.02606 -0.0021,0.0038 0.0067,-0.0015 0.0036,0.0031 -0.0018,0.0026 -0.04265,0.04814 -0.04692,0.05215 -0.0483,0.04485 -0.36006,0.301752 -0.367172,0.307594 -0.246876,0.202749 -0.213344,0.173928 -0.499442,0.401434 -0.08463,0.06727 -0.528751,0.425973 -0.658744,0.518201 -0.373392,0.2897 -0.744784,0.573667 -1.128297,0.8758507 -0.058516,0.04611 -0.1539888,0.118074 -0.2109636,0.164744 -0.048003,0.03931 -0.060423,0.05041 -0.098133,0.07716"
         id="path1188-4-7-7-0" />
      <path
         style="opacity:0.99;fill:#ffc8c8;fill-opacity:1;stroke-width:0.119526;paint-order:markers fill stroke"
         d="m 10.869162,6.0593153 c -0.02229,-0.5412625 -5.86e-4,0.011574 -0.01673,-0.469525 -0.002,-0.061167 -0.0098,-0.2263893 -0.01182,-0.2798555 -0.0028,-0.074298 -0.0039,-0.1526523 -0.0062,-0.2277108 -0.0019,-0.065251 -0.0054,-0.1272907 -0.0079,-0.1907384 -0.004,-0.1053154 5.42e-4,-0.00244 -9.92e-4,-0.08805 -3.39e-4,-0.018425 -0.0021,-0.033147 -0.0027,-0.051077 -0.0019,-0.056983 -0.0033,-0.096126 -0.0081,-0.1407281 -0.0047,0.084002 -0.01143,0.1393069 -0.0188,0.2061393 -0.0071,0.063965 -0.01489,0.126564 -0.02308,0.1795323 -0.0025,0.016558 -0.0049,0.045694 -0.0077,0.059847 -0.0017,0.00894 -0.0054,0.011664 -0.0075,0.022354 -0.0012,0.00613 -0.0018,0.019111 -0.0031,0.023941 -0.0044,0.016468 -0.0099,0.019476 -0.01345,0.032696 -0.0047,0.017419 0.0027,0.010884 -0.0045,0.0234 -0.0014,0.00248 -0.003,-0.00505 -0.0044,-0.00158 -7.67e-4,0.00189 -0.0088,0.042741 -0.0091,0.046818 -0.003,0.045746 0.001,0.3321025 0.0012,0.3386309 0.0037,0.2265702 0.0042,0.1954451 0.01384,0.4559608 0.0029,0.077047 0.01393,0.4829755 0.02638,0.5982855 0.01788,0.338021 0.03867,0.673081 0.05368,1.021536 0.0023,0.05317 0.0084,0.139016 0.0093,0.191271 7.67e-4,0.04403 3.49e-4,0.05567 0.0039,0.08912"
         id="path1188-5-3-8-3-1-2-1-3" />
      <path
         style="opacity:0.99;fill:#ffc8c8;fill-opacity:1;stroke-width:0.119526;paint-order:markers fill stroke"
         d="m 4.8982339,9.9315613 c -0.4619788,-0.896216 0.00879,0.02001 -0.398138,-0.779556 C 4.4483519,9.0503403 4.3063854,8.7775453 4.2609457,8.6888603 4.1978007,8.5656263 4.1329851,8.4342063 4.0697805,8.3092273 4.0148375,8.2005763 3.9609569,8.0986093 3.9069834,7.9934063 c -0.089584,-0.174623 -0.00151,-0.0046 -0.072535,-0.147913 -0.015306,-0.03087 -0.029002,-0.0543 -0.044172,-0.0841 -0.048201,-0.0947 -0.081392,-0.159697 -0.1224358,-0.231131 0.06356,0.145691 0.10174,0.244591 0.1486624,0.36347 0.044907,0.113783 0.087922,0.225887 0.1227604,0.322008 0.010892,0.03006 0.032175,0.0812 0.040915,0.107336 0.00553,0.01647 0.00411,0.0241 0.010647,0.04382 0.00375,0.0113 0.013717,0.03375 0.016364,0.04293 0.00907,0.03137 0.00588,0.04097 0.013128,0.06617 0.00951,0.03318 0.011486,0.01625 0.014463,0.04323 6.225e-4,0.0054 -0.00713,-0.0061 -0.00567,8.12e-4 7.667e-4,0.0039 0.025886,0.07935 0.02893,0.08646 0.034174,0.07972 0.2708455,0.56013 0.276256,0.57107 0.1877747,0.379706 0.162911,0.326787 0.3842349,0.758983 0.065454,0.1278187 0.4062675,0.8045427 0.5123885,0.9892177 0.2924567,0.556483 0.5854326,1.105592 0.8835071,1.682021 0.045482,0.08795 0.1213066,0.228027 0.1647046,0.315527 0.036566,0.07372 0.045568,0.09375 0.076351,0.147323"
         id="path1188-5-3-8-6-0" />
      <path
         style="opacity:0.99;fill:#ffc8c8;fill-opacity:1;stroke-width:0.119526;paint-order:markers fill stroke"
         d="m 5.3907218,11.276273 c 0.2741715,-0.503497 -0.00461,0.01097 0.2346619,-0.437292 0.030418,-0.057 0.1152623,-0.210496 0.1421102,-0.26027 0.03731,-0.06917 0.074493,-0.142473 0.111468,-0.212468 0.032141,-0.06085 0.064697,-0.118371 0.096617,-0.177429 0.052981,-0.09803 4.962e-4,-0.0024 0.041424,-0.08243 0.00882,-0.01722 0.017663,-0.03069 0.026575,-0.0474 0.028334,-0.0531 0.047897,-0.08955 0.074103,-0.1304397 -0.032669,0.07978 -0.049727,0.1330487 -0.071286,0.1972607 -0.020631,0.06146 -0.039696,0.121791 -0.053933,0.173155 -0.00442,0.01606 -0.014857,0.04389 -0.017974,0.05772 -0.00198,0.0087 0.00126,0.01204 -0.00117,0.02248 -0.00135,0.006 -0.00653,0.0183 -0.0072,0.02309 -0.00226,0.01634 0.0032,0.02028 0.00144,0.0334 -0.00235,0.01728 -0.00818,0.0097 -0.00516,0.02288 6.315e-4,0.0027 0.00599,-0.0041 0.0061,-6.32e-4 7.76e-5,0.002 -0.00879,0.04189 -0.010324,0.04577 -0.017248,0.04355 -0.1529095,0.311476 -0.1560203,0.317581 -0.1079567,0.211894 -0.094258,0.182596 -0.2249667,0.425143 -0.038659,0.07173 -0.2374083,0.450479 -0.3051703,0.556188 -0.1760195,0.313639 -0.354237,0.623909 -0.5315483,0.947917 -0.027054,0.04944 -0.073641,0.128781 -0.098649,0.177632 -0.021068,0.04115 -0.02584,0.05218 -0.045492,0.08284"
         id="path1188-5-3-8-3-91-7" />
      <path
         style="opacity:0.99;fill:#ffc8c8;fill-opacity:1;stroke-width:0.119526;paint-order:markers fill stroke"
         d="m 7.0428486,9.4114193 c 0.1805976,-0.929553 -0.00244,0.02055 0.1532396,-0.808023 0.019792,-0.105351 0.076171,-0.388488 0.093756,-0.480432 0.024442,-0.127765 0.047878,-0.263655 0.071797,-0.393107 0.020789,-0.112542 0.042705,-0.218488 0.063641,-0.327569 0.034744,-0.181057 4.1e-6,-0.0046 0.025953,-0.152885 0.00559,-0.03192 0.012002,-0.05646 0.017812,-0.08735 0.018443,-0.09814 0.031217,-0.165503 0.049999,-0.240199 -0.01737,0.14946 -0.024,0.250207 -0.03303,0.371453 -0.00865,0.11605 -0.015886,0.230209 -0.019972,0.327801 -0.00126,0.03052 -0.0063,0.08284 -0.00666,0.109268 -2.318e-4,0.01666 0.00383,0.0238 0.00356,0.04375 -1.551e-4,0.01143 -0.00298,0.03449 -0.00266,0.04371 0.00108,0.03151 0.00763,0.04031 0.00843,0.06564 0.00108,0.03335 -0.00651,0.01729 -5.864e-4,0.04372 0.00122,0.0053 0.0053,-0.0069 0.00624,4.3e-5 4.961e-4,0.0039 -3.663e-4,0.08015 -0.00117,0.08743 -0.00886,0.0817 -0.094284,0.578406 -0.096251,0.58972 -0.068251,0.392683 -0.060095,0.338141 -0.1456689,0.786203 -0.025308,0.132513 -0.1533393,0.8332617 -0.2019058,1.0263697 -0.1179621,0.577984 -0.238926,1.148939 -0.3560601,1.746945 -0.017875,0.09124 -0.049863,0.237047 -0.065721,0.327557 -0.01336,0.07625 -0.016034,0.09685 -0.030112,0.152862"
         id="path1188-3-5-3" />
      <path
         style="opacity:0.99;fill:#ffc8c8;fill-opacity:1;stroke-width:0.119526;paint-order:markers fill stroke"
         d="m 7.9835669,10.698767 c -0.5080941,-0.561653 0.00982,0.01295 -0.4382072,-0.489542 -0.05697,-0.06389 -0.212987,-0.2344867 -0.2629892,-0.2901377 -0.069484,-0.07733 -0.1410263,-0.160483 -0.2106461,-0.239135 -0.060525,-0.06838 -0.1196653,-0.131923 -0.1790492,-0.197923 -0.098568,-0.10955 -0.00167,-0.0031 -0.080106,-0.0937 -0.016887,-0.0195 -0.031817,-0.03375 -0.048513,-0.05248 -0.053066,-0.05951 -0.089598,-0.100331 -0.1343666,-0.14396 0.070929,0.09442 0.1140516,0.15985 0.1669251,0.238224 0.050603,0.07502 0.09922,0.149256 0.1388396,0.213462 0.012381,0.02008 0.036241,0.0535 0.046279,0.07115 0.00634,0.01113 0.00525,0.01735 0.012805,0.03067 0.00433,0.0076 0.015412,0.02215 0.018511,0.02846 0.010559,0.02159 0.00777,0.0298 0.016256,0.04714 0.011163,0.02284 0.012354,0.0093 0.016598,0.0292 8.119e-4,0.004 -0.00751,-0.0028 -0.00575,0.0022 9.472e-4,0.0028 0.0298,0.05378 0.033192,0.0584 0.038185,0.05183 0.2994641,0.3558517 0.305435,0.3627707 0.2072209,0.240098 0.1796608,0.206283 0.4232078,0.47753 0.072029,0.08022 0.4475704,0.506483 0.5633175,0.61927 0.3211562,0.347231 0.6425009,0.688677 0.9702477,1.049668 0.050009,0.05508 0.1330824,0.141886 0.1809643,0.197182 0.040341,0.04659 0.050363,0.0595 0.083935,0.09222"
         id="path1188-4-4-4" />
      <path
         style="opacity:0.99;fill:#ffc8c8;fill-opacity:1;stroke-width:0.119526;paint-order:markers fill stroke"
         d="m 10.267512,9.4917683 c 0.180602,-0.929557 -0.0024,0.02054 0.153243,-0.808027 0.0198,-0.105354 0.07617,-0.38849 0.09376,-0.480434 0.02444,-0.127766 0.04788,-0.263655 0.0718,-0.393109 0.0208,-0.112541 0.04271,-0.21849 0.06364,-0.327571 0.03474,-0.181059 4e-6,-0.0046 0.02595,-0.152885 0.0056,-0.03192 0.012,-0.05646 0.01781,-0.08735 0.01844,-0.09814 0.03122,-0.165504 0.05,-0.2402 -0.01737,0.149461 -0.024,0.250208 -0.03303,0.371455 -0.0086,0.11605 -0.01589,0.23021 -0.01997,0.327803 -0.0013,0.03052 -0.0063,0.08284 -0.0067,0.109268 -2.32e-4,0.01666 0.0038,0.02381 0.0036,0.04375 -1.54e-4,0.01143 -0.003,0.03449 -0.0027,0.04371 0.0011,0.03151 0.0076,0.0403 0.0085,0.06562 0.0012,0.03333 -0.0065,0.01729 -5.86e-4,0.04371 0.0012,0.0053 0.0054,-0.0069 0.0062,-6e-6 4.96e-4,0.0039 -3.87e-4,0.08016 -0.0012,0.08744 -0.0089,0.0817 -0.09429,0.578408 -0.09625,0.589723 -0.06825,0.392684 -0.0601,0.338141 -0.145672,0.786207 -0.02531,0.132512 -0.153343,0.8332647 -0.201911,1.0263737 -0.117964,0.577988 -0.23893,1.148946 -0.3560669,1.746955 -0.017879,0.09124 -0.049863,0.237048 -0.065723,0.327559 -0.013364,0.07625 -0.01603,0.09685 -0.030112,0.152863"
         id="path1188-5-6-3-6" />
      <path
         style="opacity:0.99;fill:#ffc8c8;fill-opacity:1;stroke-width:0.119526;paint-order:markers fill stroke"
         d="m 9.6751883,7.2912003 c 0.274171,-0.503496 -0.00461,0.01097 0.2346619,-0.437292 0.030418,-0.05699 0.1152628,-0.210496 0.1421108,-0.260269 0.03731,-0.06917 0.07449,-0.142473 0.111468,-0.212468 0.03214,-0.06085 0.0647,-0.118372 0.09662,-0.1774294 0.05298,-0.098027 4.96e-4,-0.00244 0.04142,-0.082433 0.0088,-0.017225 0.01766,-0.030693 0.02658,-0.047397 0.02834,-0.053096 0.0479,-0.089552 0.0741,-0.1304403 -0.03267,0.079781 -0.04973,0.1330491 -0.07129,0.1972609 -0.02064,0.061459 -0.0397,0.1217908 -0.05393,0.1731558 -0.0044,0.01606 -0.01486,0.04389 -0.01797,0.05772 -0.002,0.0087 0.0013,0.01204 -0.0012,0.02248 -0.0014,0.006 -0.0065,0.0183 -0.0072,0.02309 -0.0023,0.01634 0.0032,0.02028 0.0014,0.0334 -0.0023,0.01729 -0.0082,0.0097 -0.0052,0.02288 6.31e-4,0.0027 0.006,-0.0041 0.0061,-6.32e-4 7.8e-5,0.002 -0.0088,0.04189 -0.01032,0.04577 -0.01725,0.04355 -0.15291,0.311476 -0.15602,0.317581 -0.1079576,0.211894 -0.094258,0.182597 -0.2249677,0.425143 -0.038659,0.07173 -0.2374083,0.450479 -0.3051712,0.556188 -0.1760186,0.313639 -0.3542361,0.623909 -0.5315465,0.947918 -0.027054,0.04944 -0.073641,0.128781 -0.098649,0.177632 -0.021068,0.04115 -0.02584,0.05218 -0.045492,0.08284"
         id="path1188-5-3-8-3-1-9-3" />
      <path
         style="opacity:0.99;fill:#ffc8c8;fill-opacity:1;stroke-width:0.119526;paint-order:markers fill stroke"
         d="m 2.18509,10.859826 c 0.686769,0.573159 -0.01539,-0.01162 0.59749,0.495663 0.07793,0.0645 0.286927,0.240014 0.354894,0.296517 0.09445,0.07852 0.195247,0.160283 0.291057,0.23926 0.08329,0.06866 0.161387,0.134896 0.2420132,0.201978 0.1338271,0.111345 0.00353,0.0022 0.1134629,0.0917 0.023671,0.01928 0.041577,0.03552 0.064424,0.05443 0.072589,0.06009 0.122405,0.101407 0.1770119,0.150383 C 3.9134334,12.305577 3.8372402,12.252297 3.7456892,12.18746 3.6580612,12.1254 3.571688,12.065219 3.497564,12.015207 c -0.02318,-0.01564 -0.06253,-0.04439 -0.08271,-0.05742 -0.01272,-0.0082 -0.01873,-0.0089 -0.03396,-0.01875 -0.0087,-0.0056 -0.02598,-0.01871 -0.03308,-0.02297 -0.02426,-0.0145 -0.03188,-0.01432 -0.05137,-0.02593 -0.02566,-0.01533 -0.01235,-0.01281 -0.03337,-0.02155 -0.0042,-0.0017 0.0046,0.007 -8.66e-4,0.0043 -0.003,-0.0015 -0.06129,-0.03905 -0.06675,-0.04311 C 3.134148,11.784167 2.765667,11.485476 2.757276,11.478659 2.466063,11.242026 2.506691,11.273989 2.175454,10.998724 2.077494,10.917314 1.558665,10.490781 1.417494,10.364163 0.99124,10.003907 0.570772,9.6450023 0.129085,9.2756243 c -0.06739,-0.05636 -0.174618,-0.148763 -0.241723,-0.203392 -0.05654,-0.04603 -0.07193,-0.05781 -0.112881,-0.09454"
         id="path1188-9-7-2" />
      <path
         style="opacity:0.99;fill:#ffc8c8;fill-opacity:1;stroke-width:0.119526;paint-order:markers fill stroke"
         d="m 9.710201,9.6181523 c 0.702472,-0.757379 -0.013978,0.017 0.606831,-0.658969 0.07894,-0.08595 0.294287,-0.316419 0.363489,-0.391378 0.09616,-0.104162 0.195851,-0.215364 0.292433,-0.321041 0.08396,-0.09187 0.16538,-0.177976 0.247545,-0.266896 0.136389,-0.14759 0.0025,-0.0039 0.111737,-0.125176 0.02354,-0.02611 0.04372,-0.04584 0.06686,-0.07103 0.07353,-0.08006 0.124116,-0.135003 0.184897,-0.195168 -0.101123,0.123679 -0.164137,0.207874 -0.241041,0.309029 -0.07361,0.09682 -0.14473,0.192269 -0.203411,0.274207 -0.01834,0.02562 -0.05268,0.06909 -0.0678,0.0914 -0.0096,0.01406 -0.0094,0.02077 -0.02084,0.0376 -0.0065,0.0097 -0.02232,0.0287 -0.0271,0.03656 -0.01646,0.02684 -0.01483,0.03536 -0.02806,0.05693 -0.0174,0.02841 -0.01626,0.01358 -0.02504,0.0369 -0.0018,0.0047 0.0093,-0.005 0.0063,10e-4 -0.0017,0.0034 -0.04519,0.06779 -0.05002,0.07382 -0.05463,0.06771 -0.418767,0.474216 -0.427081,0.483473 -0.288605,0.321259 -0.24986,0.276422 -0.5869669,0.641734 -0.09973,0.108035 -0.6210641,0.6803117 -0.7781957,0.8358517 -0.4425346,0.470004 -0.8841828,0.93357 -1.3370647,1.420656 -0.069101,0.07432 -0.1830008,0.192521 -0.2496487,0.266548 -0.056155,0.06236 -0.070358,0.07937 -0.1159406,0.124481"
         id="path1188-4-7-7-6-3" />
      <path
         style="opacity:0.99;fill:#ffc8c8;fill-opacity:1;stroke-width:0.119526;paint-order:markers fill stroke"
         d="m 8.5149357,6.7647353 c -0.1501861,-0.522012 0.00162,0.0115 -0.1263002,-0.453664 C 8.3723975,6.2519213 8.3250835,6.0928887 8.3105475,6.0412618 8.2903185,5.9695248 8.2717305,5.8932913 8.2522305,5.8206247 8.2352665,5.7574537 8.2166345,5.6979184 8.1993095,5.6366695 c -0.028722,-0.1016746 2.896e-4,-0.00257 -0.020437,-0.08576 -0.00447,-0.017906 -0.010275,-0.03174 -0.015092,-0.049066 -0.015191,-0.055086 -0.025633,-0.092925 -0.042583,-0.1349773 0.010884,0.08363 0.012503,0.1398594 0.015624,0.2075614 0.00298,0.064801 0.00447,0.1285152 0.00343,0.1829255 -3.171e-4,0.017004 0.00226,0.046258 0.00117,0.060979 -6.766e-4,0.00928 -0.00574,0.013143 -0.00659,0.024253 -5.412e-4,0.00638 0.00131,0.019273 4.511e-4,0.024397 -0.00311,0.017501 -0.010987,0.022236 -0.013477,0.036291 -0.00329,0.018515 0.00636,0.0098 -0.00189,0.024338 -0.00171,0.00284 -0.00567,-0.00397 -0.00709,-1.249e-4 -7.667e-4,0.00207 -0.00428,0.044617 -0.00379,0.048688 0.00524,0.045694 0.072884,0.3243471 0.07454,0.3306761 0.054287,0.22032 0.048316,0.189739 0.1189906,0.441329 0.020928,0.0744 0.124924,0.467711 0.1686553,0.576448 0.099813,0.324731 0.2034385,0.64563 0.3011312,0.981479 0.014934,0.05124 0.042615,0.133221 0.055283,0.184003 0.010626,0.04279 0.012462,0.05432 0.025173,0.08585"
         id="path1188-5-3-8-3-1-2-1-7-4" />
      <path
         style="opacity:0.99;fill:#ffc8c8;fill-opacity:1;stroke-width:0.119526;paint-order:markers fill stroke"
         d="m 5.0840302,2.4921782 c 0.7976732,0.4046385 -0.018136,-0.0081 0.6946193,0.3496909 0.090626,0.045494 0.3331426,0.1694889 0.4121333,0.209361 0.1097654,0.055407 0.2273501,0.1129441 0.3388434,0.1686229 0.096929,0.048402 0.1874061,0.09525 0.2810963,0.1425917 0.1555128,0.078578 0.00428,0.00153 0.1324294,0.064503 0.027595,0.013564 0.048112,0.025138 0.07468,0.038477 0.084417,0.042381 0.1423325,0.071532 0.2050248,0.1063775 C 7.0907588,3.5131112 7.0000419,3.4763202 6.8912156,3.4314649 6.7870535,3.3885329 6.684171,3.3469929 6.5955253,3.3126293 c -0.027721,-0.010747 -0.074309,-0.030715 -0.098564,-0.03961 -0.015286,-0.00562 -0.023202,-0.00577 -0.04151,-0.012447 -0.010496,-0.00383 -0.030815,-0.012977 -0.039426,-0.015845 -0.029417,-0.0098 -0.039674,-0.00914 -0.063304,-0.016988 -0.031131,-0.010313 -0.013806,-0.00925 -0.040125,-0.014712 -0.0053,-0.00112 0.00461,0.0052 -0.00203,0.00337 -0.0037,-0.00102 -0.0738,-0.026602 -0.080252,-0.029429 C 6.1579135,3.155226 5.7280271,2.9450567 5.7182409,2.9402578 5.3786131,2.7737073 5.4262207,2.7961173 5.0412397,2.6018808 4.9273839,2.5444373 4.3233806,2.2438249 4.161308,2.1537342 3.6671909,1.8990424 3.180545,1.6450263 2.667693,1.3841936 2.589443,1.3443946 2.465531,1.278928 2.387293,1.24047 2.321383,1.208071 2.303263,1.199835 2.256255,1.173703"
         id="path1188-5-3-8-31-1" />
      <path
         style="opacity:0.99;fill:#ffc8c8;fill-opacity:1;stroke-width:0.119526;paint-order:markers fill stroke"
         d="m 2.724945,7.3153643 c 0.445059,0.236314 -0.01,-0.0043 0.387266,0.203117 0.05051,0.02637 0.18593,0.09919 0.229981,0.122392 0.06121,0.03225 0.126586,0.06497 0.188696,0.09712 0.054,0.02795 0.104583,0.0557 0.1568369,0.08328 0.086734,0.04576 0.0023,6.31e-4 0.073594,0.03657 0.015348,0.0077 0.026928,0.01499 0.041733,0.02272 0.047054,0.02457 0.07934,0.0415 0.1146545,0.06311 -0.072786,-0.03083 -0.1223842,-0.04849 -0.1819621,-0.07039 -0.057024,-0.02096 -0.1132533,-0.04081 -0.1615433,-0.05648 -0.0151,-0.0049 -0.04069,-0.01505 -0.05385,-0.01883 -0.0083,-0.0024 -0.01228,-8.57e-4 -0.02221,-0.0037 -0.0057,-0.0016 -0.0169,-0.0065 -0.02154,-0.0075 -0.01585,-0.0036 -0.02092,-7.67e-4 -0.03365,-0.0036 -0.01676,-0.0038 -0.0079,-0.0063 -0.02176,-0.0063 -0.0028,1.5e-5 0.0029,0.0042 -6.76e-4,0.0038 -0.002,-2.17e-4 -0.03998,-0.01105 -0.04353,-0.01251 C 3.337135,7.7516933 3.098149,7.6322263 3.092707,7.6294913 2.903845,7.5346013 2.930216,7.5469713 2.715533,7.4339683 2.652043,7.4005483 2.315679,7.2273863 2.224383,7.1715073 1.948246,7.0210893 1.675935,6.8697753 1.389717,6.7171643 c -0.04367,-0.02328 -0.113096,-0.0626 -0.156612,-0.08455 -0.03666,-0.01849 -0.04666,-0.02291 -0.07315,-0.03912"
         id="path1188-5-3-8-3-2-6" />
      <path
         style="opacity:0.99;fill:#ffc8c8;fill-opacity:1;stroke-width:0.119526;paint-order:markers fill stroke"
         d="m 2.241186,2.4085657 c -0.890115,0.23631 0.02,-0.00429 -0.774529,0.2031137 -0.101024,0.026367 -0.37186,0.099187 -0.459962,0.1223904 -0.122424,0.032246 -0.253171,0.064971 -0.377391,0.097123 -0.107993,0.027949 -0.209164,0.055703 -0.313671,0.083274 -0.173467,0.045764 -0.0046,6.135e-4 -0.147186,0.036563 -0.0307,0.00774 -0.05385,0.014988 -0.08347,0.022719 -0.0941,0.024566 -0.158679,0.041498 -0.229308,0.063109 0.145572,-0.030827 0.244767,-0.048489 0.363922,-0.070391 0.114048,-0.020963 0.226505,-0.040809 0.323085,-0.056482 0.0302,-0.0049 0.08138,-0.015044 0.107695,-0.01883 0.01659,-0.0024 0.02457,-8.66e-4 0.04442,-0.00372 0.01138,-0.00163 0.03381,-0.00648 0.04308,-0.00753 0.03169,-0.00357 0.04184,-7.622e-4 0.0673,-0.00368 0.03353,-0.00383 0.0159,-0.00633 0.04353,-0.00626 0.0056,1.53e-5 -0.0058,0.00418 0.0014,0.00383 0.004,-2.133e-4 0.07995,-0.011038 0.08705,-0.012508 C 1.016861,2.8448238 1.494822,2.7253558 1.505705,2.7226216 1.883418,2.6277286 1.830677,2.6400956 2.26004,2.5270973 2.387022,2.4936773 3.059748,2.3205176 3.24234,2.2646398 3.7946096,2.1142235 4.3392312,1.9629112 4.9116654,1.8103027 c 0.087341,-0.023285 0.2261904,-0.0626 0.3132228,-0.08455 0.073324,-0.018488 0.093327,-0.022908 0.1462904,-0.039115"
         id="path1188-3-2-0" />
      <path
         style="opacity:0.99;fill:#ffc8c8;fill-opacity:1;stroke-width:0.119526;paint-order:markers fill stroke"
         d="M 2.493407,0.5757925 C 1.825821,0.3394789 2.508407,0.5800825 1.912511,0.3726767 1.836741,0.3463047 1.633616,0.2734887 1.56754,0.2502838 1.47572,0.2180378 1.377661,0.1853118 1.284496,0.1531598 1.203506,0.1252108 1.127624,0.0974558 1.049243,0.0698838 c -0.1301,-0.045764 -0.0034,-6.123e-4 -0.11039,-0.036563 -0.02302,-0.00774 -0.04039,-0.014988 -0.0626,-0.022719 -0.07058,-0.024566 -0.119009,-0.041498 -0.171981,-0.06311 0.10918,0.030828 0.183576,0.048489 0.272942,0.070392 0.08554,0.020963 0.169879,0.040809 0.242314,0.056482 0.02265,0.0049 0.06104,0.015044 0.08077,0.018825 0.01244,0.0024 0.01842,8.674e-4 0.03332,0.00373 0.0085,0.00163 0.02535,0.00648 0.03231,0.00753 0.02377,0.00357 0.03138,7.654e-4 0.05048,0.00362 0.02515,0.00378 0.01192,0.00633 0.03264,0.00626 0.0042,-1.59e-5 -0.0043,-0.00424 9.88e-4,-0.00383 0.003,2.168e-4 0.05996,0.011048 0.06529,0.012513 0.05978,0.016462 0.418251,0.1359317 0.426413,0.1386659 0.283285,0.09489 0.243729,0.082524 0.565751,0.1955235 0.09524,0.03342 0.59978,0.2065814 0.736723,0.2624607 0.4142026,0.1504177 0.8226679,0.3017321 1.2519932,0.4543431 0.065506,0.023285 0.1696419,0.062601 0.2349175,0.084551 0.054993,0.018493 0.069994,0.022907 0.1097171,0.039115"
         id="path1188-4-1-2" />
      <path
         style="opacity:0.99;fill:#ffc8c8;fill-opacity:1;stroke-width:0.119526;paint-order:markers fill stroke"
         d="M 4.4748543,1.1416923 C 3.584736,1.3780059 4.4948483,1.1374023 3.700322,1.3448086 3.599298,1.3711806 3.328461,1.4439966 3.240359,1.4672015 c -0.122425,0.032246 -0.253172,0.064971 -0.377394,0.097124 -0.107992,0.02795 -0.209164,0.055704 -0.313672,0.083276 -0.173468,0.045764 -0.0046,6.119e-4 -0.147187,0.036563 -0.0307,0.00774 -0.05385,0.014988 -0.08347,0.022719 -0.0941,0.024566 -0.158679,0.041498 -0.229309,0.06311 0.145573,-0.030828 0.244769,-0.048489 0.363924,-0.070392 0.114049,-0.020963 0.226507,-0.040809 0.323087,-0.056482 0.0302,-0.0049 0.08138,-0.015049 0.107696,-0.01883 0.01659,-0.0024 0.02457,-8.66e-4 0.04442,-0.00372 0.01138,-0.00163 0.03381,-0.00648 0.04308,-0.00753 0.03169,-0.00357 0.04184,-7.623e-4 0.0673,-0.00362 0.03353,-0.00378 0.0159,-0.00633 0.04353,-0.00626 0.0056,1.53e-5 -0.0058,0.00424 0.0013,0.00383 0.004,-2.173e-4 0.07995,-0.011048 0.08705,-0.012512 0.07971,-0.01647 0.5576705,-0.13594 0.5685542,-0.1386742 0.3777143,-0.09489 0.3249727,-0.082523 0.7543379,-0.1955231 0.1269831,-0.03342 0.7997112,-0.2065823 0.9823034,-0.2624611 0.5522732,-0.1504183 1.0968973,-0.3017322 1.669334,-0.4543427 0.087341,-0.023285 0.2261909,-0.062602 0.3132246,-0.084551 0.073324,-0.018494 0.093326,-0.022907 0.1462903,-0.039115"
         id="path1188-5-6-0-9" />
      <path
         style="opacity:0.99;fill:#ffc8c8;fill-opacity:1;stroke-width:0.119526;paint-order:markers fill stroke"
         d="m 2.780728,6.161739 c 0.445059,0.2363133 -0.01,-0.00428 0.387266,0.2031163 0.05051,0.02637 0.18593,0.09919 0.229981,0.122392 0.06121,0.03225 0.126586,0.06497 0.188696,0.09712 0.054,0.02795 0.1045832,0.0557 0.1568369,0.08328 0.086734,0.04577 0.0023,6.31e-4 0.073594,0.03657 0.015348,0.0077 0.026928,0.01499 0.041733,0.02272 0.047054,0.02456 0.07934,0.0415 0.1146546,0.06311 -0.072786,-0.03083 -0.1223842,-0.04849 -0.1819621,-0.07039 -0.057024,-0.02097 -0.1132532,-0.04081 -0.1615434,-0.05648 -0.0151,-0.0049 -0.04069,-0.01505 -0.05385,-0.01883 -0.0083,-0.0024 -0.01228,-8.57e-4 -0.02221,-0.0037 -0.0057,-0.0016 -0.0169,-0.0065 -0.02154,-0.0075 -0.01585,-0.0036 -0.02092,-7.67e-4 -0.03365,-0.0036 -0.01676,-0.0038 -0.0079,-0.0063 -0.02176,-0.0063 -0.0028,1.5e-5 0.0029,0.0042 -6.76e-4,0.0038 -0.002,-2.17e-4 -0.03998,-0.01105 -0.04353,-0.01251 C 3.392918,6.5980673 3.153932,6.4786023 3.14849,6.4758673 2.959628,6.3809773 2.985999,6.3933473 2.771317,6.2803443 2.707827,6.2469243 2.371462,6.0737625 2.280166,6.0178841 2.00403,5.8674653 1.731718,5.7161517 1.4455,5.5635413 1.40183,5.5402553 1.332405,5.5009393 1.288888,5.4789893 1.252228,5.4604963 1.242228,5.4560813 1.215738,5.4398743"
         id="path1188-5-3-8-3-1-7-0" />
      <path
         style="opacity:0.99;fill:#ffc8c8;fill-opacity:1;stroke-width:0.119526;paint-order:markers fill stroke"
         d="m 2.22508,7.8655843 c 0.614989,-0.347168 -0.01302,0.0085 0.53317,-0.303706 0.06945,-0.03969 0.257283,-0.144737 0.318009,-0.179218 0.08438,-0.04791 0.173168,-0.100189 0.258348,-0.149172 0.07405,-0.04259 0.144649,-0.08147 0.216718,-0.12234 0.1196247,-0.06784 0.0027,-0.0022 0.099732,-0.05903 0.020893,-0.01224 0.037746,-0.02056 0.058105,-0.0322 0.064691,-0.03697 0.1091419,-0.0623 0.1601735,-0.088 -0.094474,0.06182 -0.1562394,0.106102 -0.2309695,0.158851 -0.07153,0.05049 -0.141413,0.100808 -0.200362,0.144905 -0.01843,0.01379 -0.05111,0.03597 -0.06679,0.0483 -0.0099,0.0078 -0.01256,0.01323 -0.02439,0.02253 -0.0068,0.0053 -0.02141,0.0148 -0.02671,0.01932 -0.01812,0.01548 -0.02084,0.02299 -0.03539,0.03543 -0.01916,0.01638 -0.01263,0.0048 -0.02594,0.0204 -0.0027,0.0031 0.0061,-5.42e-4 0.0023,0.0032 -0.0021,0.0021 -0.04729,0.03774 -0.05188,0.04079 -0.05141,0.03411 -0.375837,0.225322 -0.383235,0.229667 -0.256761,0.150793 -0.221597,0.129168 -0.517476,0.29727 -0.08751,0.04971 -0.548052,0.315602 -0.679985,0.382043 -0.384533,0.212951 -0.766065,0.421031 -1.162062,0.643885 -0.06042,0.034 -0.158268,0.08657 -0.217497,0.121266 -0.0499,0.02923 -0.06302,0.0376 -0.10129,0.05688"
         id="path1188-9-0-0" />
      <path
         style="opacity:0.99;fill:#ffc8c8;fill-opacity:1;stroke-width:0.119526;paint-order:markers fill stroke"
         d="M 4.0126252,2.4779221 C 3.532171,3.0608349 4.0240282,2.4658941 3.593079,2.9825231 3.538289,3.0482141 3.392635,3.226528 3.344972,3.2840301 3.278742,3.3639351 3.206994,3.4474872 3.139458,3.5279764 3.080748,3.5979484 3.026663,3.665135 2.970148,3.7333902 c -0.0938,0.1132966 -0.0028,0.00235 -0.08093,0.093771 -0.0168,0.019692 -0.02866,0.035986 -0.04472,0.055244 -0.05104,0.061193 -0.08602,0.1032565 -0.122456,0.1524932 0.08319,-0.087186 0.14185,-0.1431056 0.21191,-0.210996 0.06706,-0.06498 0.133667,-0.128191 0.191677,-0.1810554 0.01814,-0.016529 0.0478,-0.046458 0.06389,-0.06035 0.01014,-0.00877 0.0166,-0.01018 0.02874,-0.020678 0.007,-0.006 0.0197,-0.019555 0.02556,-0.024127 0.01996,-0.015697 0.02869,-0.016631 0.04472,-0.029246 0.02114,-0.016595 0.0073,-0.012604 0.02661,-0.022989 0.0039,-0.00209 -0.0015,0.00659 0.0032,0.00347 0.0027,-0.00174 0.04916,-0.041758 0.05326,-0.045948 C 3.417409,3.395676 3.6797713,3.0904071 3.685738,3.0834419 3.8927937,2.8417017 3.863361,2.8745367 4.0957005,2.594391 4.1643985,2.511521 4.5307231,2.0766389 4.6249109,1.9493502 4.9207651,1.5837254 5.2107641,1.2200608 5.5193682,0.8445249 5.5664542,0.7872259 5.639951,0.6937392 5.6876122,0.6379497 c 0.040147,-0.047004 0.051479,-0.059166 0.078798,-0.096091"
         id="path1188-4-7-7-2-0" />
      <path
         style="opacity:0.99;fill:#ffc8c8;fill-opacity:1;stroke-width:0.119526;paint-order:markers fill stroke"
         d="m 3.6593327,4.9602286 c -0.022295,-0.5412629 -5.729e-4,0.011574 -0.016729,-0.4695254 -0.002,-0.061167 -0.0098,-0.2263892 -0.01181,-0.2798553 -0.0028,-0.074298 -0.004,-0.1526529 -0.0062,-0.227711 -0.0019,-0.065251 -0.0054,-0.1272907 -0.0079,-0.1907384 -0.004,-0.1053155 5.23e-4,-0.00245 -9.88e-4,-0.088049 -3.39e-4,-0.018427 -0.0021,-0.033149 -0.0027,-0.051077 -0.0019,-0.056982 -0.0033,-0.096125 -0.0081,-0.1407276 -0.0047,0.084002 -0.01142,0.1393064 -0.01879,0.2061389 -0.0071,0.063965 -0.01489,0.1265641 -0.02308,0.1795326 -0.0026,0.016559 -0.005,0.045693 -0.0077,0.059846 -0.0017,0.00894 -0.0054,0.011665 -0.0075,0.022352 -0.0012,0.00613 -0.0018,0.019111 -0.0031,0.023944 -0.0044,0.016468 -0.01,0.019473 -0.01345,0.0327 -0.0046,0.017422 0.0027,0.010885 -0.0045,0.023402 -0.0015,0.00245 -0.003,-0.00505 -0.0044,-0.00158 -7.85e-4,0.00189 -0.0088,0.042738 -0.0091,0.046815 -0.003,0.045749 10e-4,0.3321032 0.0012,0.3386311 0.0037,0.2265707 0.0042,0.1954451 0.01384,0.4559612 0.0029,0.077047 0.01393,0.4829755 0.02638,0.5982855 0.01788,0.3380207 0.03867,0.6730807 0.05368,1.0215351 0.0023,0.05317 0.0084,0.139016 0.0093,0.191272 7.85e-4,0.04403 3.49e-4,0.05567 0.004,0.08912"
         id="path1188-5-3-8-3-1-2-1-5-8" />
    </g>
    <rect
       style="opacity:0.99;fill:url(#radialGradient56500);fill-opacity:1;stroke-width:0.119526;paint-order:markers fill stroke"
       id="rect56451"
       width="19.094154"
       height="19.094004"
       x="-3.5801537"
       y="-3.5801537" />
    <text
       xml:space="preserve"
       style="font-style:normal;font-variant:normal;font-weight:normal;font-stretch:normal;font-size:18.9032px;font-family:'Berlin Sans FB';-inkscape-font-specification:'Berlin Sans FB, Normal';font-variant-ligatures:normal;font-variant-caps:normal;font-variant-numeric:normal;font-variant-east-asian:normal;opacity:0.99;fill:#b3b3b3;fill-opacity:1;stroke-width:7.48818"
       x="2.0952303"
       y="13.376084"
       id="text18372"
       transform="scale(1.2432007,0.80437536)"><tspan
         sodipodi:role="line"
         id="tspan553"
         x="2.0952303"
         y="13.376084"
         style="stroke-width:7.48818;fill:#b3b3b3">/</tspan></text>
  </g>
</svg>
