<?xml version="1.0" encoding="UTF-8" standalone="no"?>
<!-- Created with Inkscape (http://www.inkscape.org/) -->

<svg
   width="100"
   height="100"
   viewBox="0 0 26.458333 26.458333"
   version="1.1"
   id="svg5"
   inkscape:export-filename="..\unoppened.png"
   inkscape:export-xdpi="96"
   inkscape:export-ydpi="96"
   inkscape:version="1.2 (dc2aedaf03, 2022-05-15)"
   sodipodi:docname="questionmark.svg"
   xmlns:inkscape="http://www.inkscape.org/namespaces/inkscape"
   xmlns:sodipodi="http://sodipodi.sourceforge.net/DTD/sodipodi-0.dtd"
   xmlns="http://www.w3.org/2000/svg"
   xmlns:svg="http://www.w3.org/2000/svg">
  <sodipodi:namedview
     id="namedview7"
     pagecolor="#ffffff"
     bordercolor="#000000"
     borderopacity="0.25"
     inkscape:showpageshadow="2"
     inkscape:pageopacity="0.0"
     inkscape:pagecheckerboard="0"
     inkscape:deskcolor="#d1d1d1"
     inkscape:document-units="mm"
     showgrid="false"
     inkscape:zoom="3.3638608"
     inkscape:cx="70.008842"
     inkscape:cy="54.550414"
     inkscape:window-width="1440"
     inkscape:window-height="878"
     inkscape:window-x="-6"
     inkscape:window-y="-6"
     inkscape:window-maximized="1"
     inkscape:current-layer="layer1" />
  <defs
     id="defs2" />
  <g
     inkscape:label="Layer 1"
     inkscape:groupmode="layer"
     id="layer1">
    <path
       style="opacity:0.99;fill:#e83627;fill-opacity:1;stroke-width:0.264999;paint-order:markers fill stroke"
       d="M 2.3998706,5.7303218 C 2.9349284,4.2810181 2.3901554,5.762878 2.8597633,4.4692178 2.9194737,4.304729 3.084344,3.8637479 3.136883,3.7202991 3.2098904,3.5209652 3.2839912,3.3080807 3.3567888,3.1058226 3.4200763,2.9299874 3.4829139,2.7652575 3.54534,2.5950965 3.6489595,2.3126543 3.54669,2.5876365 3.628132,2.3554447 3.645662,2.3054597 3.662063,2.2677637 3.679568,2.2195425 3.735188,2.0663224 3.773521,1.9611782 3.8224611,1.8461785 3.7526591,2.0832026 3.7126743,2.2447137 3.6630795,2.4387236 c -0.04747,0.1856961 -0.092396,0.3688017 -0.1278862,0.5260546 -0.011092,0.049173 -0.034068,0.1325076 -0.042629,0.1753512 -0.0054,0.027007 -0.00193,0.039999 -0.00839,0.072331 -0.0037,0.018534 -0.014673,0.055043 -0.017051,0.07014 -0.00812,0.051598 -0.00171,0.068129 -0.00824,0.1095907 -0.00858,0.054585 -0.014333,0.025887 -0.014163,0.07087 3.44e-5,0.00904 0.00953,-0.00937 0.00867,0.0022 -4.902e-4,0.00644 -0.02501,0.1301764 -0.02833,0.1417386 -0.03728,0.1297761 -0.3077757,0.9080043 -0.313966,0.9257248 -0.2148488,0.615 -0.1868487,0.5291254 -0.4427007,1.2282236 -0.075667,0.2067542 -0.4677403,1.3020983 -0.59426,1.599398 C 1.733559,8.2595645 1.3909553,9.146327 1.0454173,10.078377 c -0.052721,0.14221 -0.14174104,0.368286 -0.19144004,0.509995 -0.041869,0.119386 -0.051869,0.151955 -0.088569,0.238192"
       id="path1188" />
    <path
       style="opacity:0.99;fill:#e83627;fill-opacity:1;stroke-width:0.264999;paint-order:markers fill stroke"
       d="M 5.4569273,10.018526 C 5.9919851,8.0861108 5.4472102,10.061941 5.9168201,8.3370447 5.9765299,8.1177249 6.1414007,7.5297474 6.1939397,7.3384816 6.2669473,7.0727009 6.3410479,6.7888539 6.4138455,6.5191747 6.4771326,6.2847266 6.5399705,6.0650855 6.6023967,5.8382029 c 0.1036189,-0.3765917 0.00135,-0.00994 0.082791,-0.3195377 0.01753,-0.066647 0.033931,-0.1169091 0.051436,-0.181204 C 6.7922437,5.1331668 6.8305777,4.9929738 6.8795168,4.83964 6.8097158,5.1556739 6.7697296,5.371023 6.7201352,5.6297045 6.6726652,5.8773007 6.6277392,6.1214428 6.592249,6.3311144 6.581157,6.3966794 6.558181,6.5077923 6.54962,6.5649174 c -0.0054,0.03601 -0.00193,0.053332 -0.00839,0.096442 -0.0037,0.024711 -0.014673,0.07339 -0.017051,0.093522 -0.00812,0.068804 -0.00171,0.090843 -0.00824,0.1461157 -0.00858,0.072787 -0.014333,0.034515 -0.014163,0.094493 3.44e-5,0.012069 0.00953,-0.012521 0.00867,0.00286 -4.918e-4,0.0086 -0.025011,0.1735728 -0.028332,0.1889884 C 6.4448329,7.3603809 6.174337,8.3980238 6.1681467,8.4216517 5.9532979,9.2416553 5.981298,9.1271553 5.7254459,10.059292 5.6497784,10.334966 5.2577057,11.795433 5.131186,12.191835 4.7906114,13.3908 4.4480077,14.573156 4.1024697,15.815896 c -0.052721,0.189614 -0.1417409,0.491051 -0.19144,0.679998 -0.041869,0.159183 -0.05187,0.202607 -0.088569,0.317591"
       id="path1188-5" />
    <path
       style="opacity:0.99;fill:#e83627;fill-opacity:1;stroke-width:0.264999;paint-order:markers fill stroke"
       d="m 8.5139771,14.306728 c 0.5350578,-2.415526 -0.00969,0.05426 0.459893,-2.101858 0.059712,-0.27415 0.224581,-1.009124 0.2771202,-1.248208 0.073009,-0.332227 0.1471071,-0.687037 0.2199054,-1.0241365 0.063279,-0.2930613 0.1261253,-0.5676144 0.1885508,-0.8512171 0.103616,-0.4707419 0.0014,-0.012445 0.08278,-0.3994246 0.01753,-0.083313 0.03394,-0.1461361 0.05144,-0.2265044 0.05562,-0.255369 0.09396,-0.4306115 0.1428924,-0.6222788 -0.0698,0.3950433 -0.1097884,0.6642307 -0.1593814,0.9875835 -0.04746,0.3094961 -0.09239,0.6146745 -0.127885,0.8767653 -0.01109,0.081955 -0.03407,0.2208475 -0.042626,0.2922537 -0.00543,0.045015 -0.00192,0.066667 -0.00841,0.1205499 -0.00373,0.03089 -0.01467,0.09174 -0.017055,0.116901 -0.00809,0.086 -0.0017,0.113549 -0.0082,0.182645 -0.00852,0.09098 -0.014329,0.04315 -0.01417,0.118118 3.41e-5,0.01509 0.00958,-0.01566 0.00862,0.0035 -4.918e-4,0.01075 -0.025018,0.216966 -0.028328,0.236235 -0.037282,0.216301 -0.307776,1.513361 -0.3139665,1.542896 -0.2148486,1.025035 -0.186848,0.88191 -0.4427,2.047085 -0.07567,0.344593 -0.4677405,2.170182 -0.5942607,2.665686 -0.3405748,1.49871 -0.6831772,2.976661 -1.0287157,4.530089 -0.052722,0.23702 -0.1417415,0.613817 -0.1914397,0.850002 -0.041872,0.198978 -0.051867,0.253259 -0.088564,0.396989"
       id="path1188-5-3" />
    <path
       style="opacity:0.99;fill:#e83627;fill-opacity:1;stroke-width:0.264999;paint-order:markers fill stroke"
       d="m 14.760384,19.216421 c 0.916177,-1.731717 -0.01833,0.03937 0.791766,-1.507991 0.103009,-0.196746 0.383754,-0.72324 0.474032,-0.894727 0.125452,-0.238295 0.255726,-0.493567 0.381793,-0.735616 0.109592,-0.210427 0.215664,-0.40685 0.322853,-0.610248 0.177915,-0.337612 0.0035,-0.0093 0.146047,-0.2875 0.03071,-0.05991 0.05691,-0.104452 0.08712,-0.162129 0.09596,-0.183267 0.161961,-0.308998 0.240858,-0.4451 -0.132887,0.286779 -0.216188,0.483722 -0.317749,0.719979 -0.09721,0.226132 -0.19126,0.449487 -0.269066,0.641933 -0.02434,0.06018 -0.06955,0.161323 -0.08968,0.213978 -0.01272,0.03319 -0.01306,0.05037 -0.02818,0.09012 -0.0086,0.02279 -0.02938,0.0669 -0.03588,0.08559 -0.02218,0.06385 -0.02069,0.08612 -0.03846,0.137431 -0.02335,0.06757 -0.02094,0.02997 -0.03331,0.0871 -0.0026,0.01149 0.01176,-0.01 0.0077,0.0044 -0.0023,0.008 -0.06023,0.160191 -0.06663,0.174198 -0.07187,0.15721 -0.547729,1.090478 -0.558594,1.111722 -0.377102,0.73732 -0.326362,0.633965 -0.766149,1.469744 -0.130062,0.247178 -0.810705,1.558444 -1.014686,1.910297 -0.57667,1.07271 -1.15181,2.129201 -1.742383,3.242581 -0.09012,0.169878 -0.238341,0.438888 -0.325416,0.608739 -0.07336,0.143093 -0.092,0.182416 -0.151174,0.284479"
       id="path1188-5-3-8" />
    <path
       style="opacity:0.99;fill:#e83627;fill-opacity:1;stroke-width:0.264999;paint-order:markers fill stroke"
       d="m 17.685158,19.40286 c 0.535058,-0.966208 -0.0097,0.02171 0.459893,-0.84074 0.05971,-0.109654 0.224581,-0.403649 0.277119,-0.499281 0.07301,-0.132891 0.147108,-0.274814 0.219908,-0.409653 0.06328,-0.117224 0.126124,-0.227045 0.188551,-0.340486 0.103616,-0.188295 0.0014,-0.0049 0.08278,-0.159769 0.01753,-0.03332 0.03394,-0.05846 0.05144,-0.0906 0.05562,-0.102149 0.09396,-0.172244 0.142893,-0.248911 -0.06979,0.158016 -0.109788,0.265692 -0.159381,0.395033 -0.04747,0.123796 -0.0924,0.245868 -0.127886,0.350704 -0.01109,0.03278 -0.03407,0.08834 -0.04263,0.1169 -0.0054,0.018 -0.0019,0.02667 -0.0084,0.04821 -0.0037,0.01236 -0.01467,0.03669 -0.01706,0.04676 -0.0081,0.03441 -0.0017,0.04543 -0.0082,0.07305 -0.0085,0.03639 -0.01433,0.01726 -0.01417,0.04725 3.4e-5,0.006 0.0096,-0.0062 0.0086,0.0015 -4.93e-4,0.0043 -0.02502,0.08678 -0.02833,0.09449 -0.03728,0.08652 -0.307776,0.605343 -0.313967,0.617156 -0.214849,0.410013 -0.186849,0.352763 -0.4427,0.81883 -0.07567,0.137837 -0.46774,0.868069 -0.594261,1.066269 -0.340574,0.599483 -0.683177,1.19066 -1.028716,1.812029 -0.05272,0.09481 -0.141741,0.245526 -0.191439,0.339999 -0.04187,0.07959 -0.05187,0.101308 -0.08856,0.158795"
       id="path1188-5-3-8-3" />
    <path
       style="opacity:0.99;fill:#e83627;fill-opacity:1;stroke-width:0.264999;paint-order:markers fill stroke"
       d="m 11.551855,18.594914 c 0.534961,-2.898631 0,0.06511 0.459859,-2.522228 0.05777,-0.328981 0.225307,-1.210949 0.277301,-1.497849 0.06932,-0.398673 0.146739,-0.824446 0.21953,-1.228964 0.06933,-0.351675 0.127097,-0.681138 0.18949,-1.02146 0.103988,-0.564891 0,-0.01493 0.08088,-0.479309 0.01155,-0.09998 0.03466,-0.175366 0.05777,-0.271808 0.05777,-0.306441 0.09244,-0.516733 0.142117,-0.746734 -0.06933,0.474052 -0.103988,0.797077 -0.159449,1.1851 -0.04621,0.371397 -0.09244,0.737609 -0.127096,1.052119 -0.01155,0.09835 -0.03466,0.265016 -0.04621,0.350704 0,0.05403 0,0.07999 0,0.14466 0,0.03707 -0.01155,0.110095 -0.01155,0.140281 0,0.10319 0,0.136259 0,0.219175 0,0.109167 -0.01155,0.05178 -0.01155,0.141742 0,0.01811 0,-0.01879 0,0.0042 0,0.0129 -0.02311,0.260359 -0.02311,0.283482 -0.03466,0.25956 -0.307342,1.816031 -0.31312,1.851474 -0.214908,1.230042 -0.187178,1.058292 -0.442526,2.456502 -0.08088,0.413511 -0.467947,2.604218 -0.595043,3.198823 -0.340851,1.798452 -0.682855,3.571994 -1.028327,5.436108 -0.05777,0.284424 -0.142117,0.73658 -0.1918,1.020003 -0.04621,0.238774 -0.05778,0.303909 -0.09244,0.476386"
       id="path1188-5-3-2" />
    <path
       style="opacity:0.99;fill:#e83627;fill-opacity:1;stroke-width:0.264999;paint-order:markers fill stroke"
       d="m 20.742309,18.998886 c 0.53505,-1.932406 -0.0097,0.04341 0.459887,-1.681473 0.0597,-0.219319 0.224578,-0.807295 0.277115,-0.998559 0.07301,-0.265779 0.147107,-0.549627 0.219904,-0.819304 0.06328,-0.234447 0.126123,-0.454086 0.188548,-0.680968 0.103616,-0.37659 0.0014,-0.01 0.08278,-0.319536 0.01752,-0.06665 0.03394,-0.11691 0.05144,-0.181203 0.05562,-0.204294 0.09396,-0.344485 0.14289,-0.49782 -0.06979,0.316032 -0.109788,0.53138 -0.159377,0.790062 -0.04747,0.247595 -0.0924,0.491736 -0.127884,0.701406 -0.01109,0.06556 -0.03407,0.176678 -0.04264,0.233801 -0.0054,0.03602 -0.0019,0.05333 -0.0084,0.09644 -0.0037,0.02471 -0.01467,0.0734 -0.01705,0.09352 -0.0081,0.0688 -0.0017,0.09083 -0.0083,0.146116 -0.0086,0.07279 -0.01434,0.03452 -0.01417,0.09449 3.5e-5,0.01207 0.0095,-0.01252 0.0086,0.0029 -4.83e-4,0.0086 -0.025,0.173571 -0.02832,0.188987 -0.03727,0.17304 -0.30777,1.210681 -0.313961,1.234306 -0.214846,0.82 -0.186846,0.705502 -0.442695,1.637632 -0.07567,0.275674 -0.467734,1.736135 -0.594253,2.132535 -0.340569,1.198957 -0.683168,2.381309 -1.028702,3.624042 -0.05272,0.189615 -0.141738,0.491051 -0.191437,0.679995 -0.04186,0.159184 -0.05187,0.202608 -0.08856,0.317591"
       id="path1188-3" />
    <path
       style="opacity:0.99;fill:#e83627;fill-opacity:1;stroke-width:0.264999;paint-order:markers fill stroke"
       d="m 6.9854617,22.508392 c 0.5350567,1.449304 -0.00971,-0.03256 0.459893,1.261105 0.059712,0.164489 0.2245795,0.605469 0.2771188,0.748918 0.073011,0.199335 0.1471085,0.412218 0.2199059,0.614476 0.063283,0.175836 0.1261249,0.340566 0.1885512,0.510726 0.1036179,0.282443 0.00138,0.0075 0.082786,0.239652 0.017527,0.04998 0.033935,0.08768 0.05144,0.135902 0.055622,0.15322 0.093959,0.258365 0.1428927,0.373364 C 8.3382513,26.155511 8.2982618,25.994 8.2486687,25.799989 c -0.047464,-0.185694 -0.092399,-0.3688 -0.1278869,-0.526053 -0.011092,-0.04917 -0.034061,-0.132508 -0.042624,-0.175352 -0.00543,-0.027 -0.00197,-0.03999 -0.00843,-0.07233 -0.00369,-0.01853 -0.014674,-0.05504 -0.017055,-0.07014 -0.00809,-0.0516 -0.00174,-0.06813 -0.00821,-0.109586 -0.00855,-0.05459 -0.014327,-0.02589 -0.014165,-0.07088 3.59e-5,-0.009 0.00959,0.0094 0.00867,-0.0021 -4.911e-4,-0.0064 -0.025014,-0.130178 -0.028331,-0.14174 C 7.9733609,24.501997 7.7028603,23.72377 7.6966695,23.706049 7.4818198,23.09105 7.5098203,23.176924 7.2539681,22.477825 7.1782994,22.27107 6.7862297,21.175727 6.6597087,20.878427 6.3191351,19.97921 5.9765314,19.092446 5.6309918,18.160397 5.5782698,18.018188 5.4892514,17.792112 5.4395521,17.650402 5.3976795,17.531016 5.3876851,17.498448 5.3509888,17.412209"
       id="path1188-2" />
    <path
       style="opacity:0.99;fill:#e83627;fill-opacity:1;stroke-width:0.264999;paint-order:markers fill stroke"
       d="m 10.042519,18.22019 c 0.535058,1.932414 -0.0097,-0.04341 0.459893,1.68148 0.05971,0.21932 0.224581,0.807297 0.27712,0.998564 0.07301,0.265781 0.147108,0.549628 0.219906,0.819306 0.06328,0.234448 0.126125,0.45409 0.188551,0.680971 0.103616,0.376593 0.0014,0.01 0.08278,0.319539 0.01752,0.06665 0.03394,0.116909 0.05144,0.181204 0.05562,0.204294 0.09396,0.344488 0.142892,0.497821 -0.06979,-0.316034 -0.109788,-0.531383 -0.159382,-0.790065 -0.04746,-0.247596 -0.09239,-0.491738 -0.127886,-0.701409 -0.01109,-0.06556 -0.03408,-0.176678 -0.04264,-0.233803 -0.0054,-0.03602 -0.0019,-0.05334 -0.0084,-0.09644 -0.0037,-0.02471 -0.01467,-0.07339 -0.01705,-0.09352 -0.0081,-0.0688 -0.0017,-0.09083 -0.0082,-0.146116 -0.0085,-0.07278 -0.01433,-0.03452 -0.01417,-0.09449 3.5e-5,-0.01207 0.0096,0.01252 0.0086,-0.0028 -4.92e-4,-0.0086 -0.02502,-0.173574 -0.02833,-0.188988 -0.03725,-0.173077 -0.307756,-1.210721 -0.313947,-1.234348 -0.214849,-0.820004 -0.186848,-0.705504 -0.4427,-1.637642 C 10.235326,17.903781 9.8432545,16.443314 9.7167345,16.046913 9.3761596,14.847948 9.033558,13.665591 8.6880192,12.422852 8.6353011,12.233238 8.5462776,11.931801 8.4965797,11.742853 c -0.04187,-0.159182 -0.051867,-0.202606 -0.088563,-0.31759"
       id="path1188-5-5" />
    <path
       style="opacity:0.99;fill:#e83627;fill-opacity:1;stroke-width:0.264999;paint-order:markers fill stroke"
       d="m 13.099569,13.931988 c 0.535058,2.415526 -0.0097,-0.05426 0.459893,2.101858 0.05971,0.274149 0.224581,1.009124 0.277121,1.248207 0.07301,0.332227 0.147107,0.687037 0.219905,1.024137 0.06328,0.293061 0.126125,0.567614 0.188551,0.851218 0.103616,0.470741 0.0014,0.01245 0.08278,0.399423 0.01752,0.08331 0.03394,0.146137 0.05144,0.226504 0.05562,0.25537 0.09396,0.430612 0.142892,0.622279 -0.0698,-0.395043 -0.109788,-0.66423 -0.159382,-0.987582 -0.04747,-0.309498 -0.0924,-0.614675 -0.127886,-0.876767 -0.01109,-0.08196 -0.03407,-0.220847 -0.04263,-0.292253 -0.0054,-0.04502 -0.0019,-0.06666 -0.0084,-0.120549 -0.0037,-0.03088 -0.01467,-0.09175 -0.01705,-0.116902 -0.0081,-0.086 -0.0017,-0.11355 -0.0082,-0.182645 -0.0085,-0.09097 -0.01433,-0.04315 -0.01417,-0.118118 3.5e-5,-0.01509 0.0096,0.01566 0.0086,-0.0035 -4.92e-4,-0.01075 -0.02502,-0.216965 -0.02833,-0.236234 -0.03726,-0.216271 -0.307756,-1.513331 -0.313946,-1.542865 C 13.595929,14.903125 13.623929,15.04625 13.368077,13.881076 13.292408,13.536483 12.900336,11.710894 12.773816,11.21539 12.433241,9.7166794 12.090638,8.2387288 11.745101,6.6853006 11.692378,6.4482807 11.603359,6.0714837 11.553661,5.8352987 11.511788,5.6363206 11.501794,5.5820401 11.465098,5.4383097"
       id="path1188-5-3-25" />
    <path
       style="opacity:0.99;fill:#e83627;fill-opacity:1;stroke-width:0.264999;paint-order:markers fill stroke"
       d="m 19.213696,9.2397897 c 0.535058,1.9324213 -0.0097,-0.043412 0.459892,1.6814863 0.05971,0.219321 0.22458,0.807299 0.277121,0.998565 0.07301,0.265782 0.147108,0.549631 0.219906,0.81931 0.06328,0.234449 0.126124,0.454092 0.18855,0.680973 0.103616,0.376595 0.0014,0.01 0.08278,0.319541 0.01752,0.06665 0.03394,0.116909 0.05144,0.181204 0.05562,0.204294 0.09396,0.344489 0.142892,0.497822 -0.06979,-0.316034 -0.109788,-0.531383 -0.159382,-0.790067 -0.04747,-0.247597 -0.09239,-0.491739 -0.127887,-0.701411 -0.01109,-0.06557 -0.03406,-0.176679 -0.04263,-0.233804 -0.0054,-0.03602 -0.0019,-0.05333 -0.0084,-0.09644 -0.0037,-0.02471 -0.01467,-0.07339 -0.01705,-0.09352 -0.0081,-0.0688 -0.0017,-0.09083 -0.0082,-0.146116 -0.0085,-0.07278 -0.01433,-0.03452 -0.01417,-0.09449 3.6e-5,-0.01207 0.0096,0.01253 0.0086,-0.0028 -4.91e-4,-0.0086 -0.02502,-0.173573 -0.02833,-0.188988 -0.03724,-0.173072 -0.307735,-1.21072 -0.313926,-1.234347 C 19.710053,10.01668 19.738053,10.13118 19.482201,9.1990398 19.406533,8.9233649 19.014461,7.462895 18.887942,7.066492 18.547367,5.8675228 18.204763,4.6851625 17.859226,3.44242 17.806503,3.2528041 17.717484,2.9513665 17.667785,2.7624181 17.625913,2.6032353 17.615919,2.5598127 17.579222,2.4448276"
       id="path1188-5-3-8-0" />
    <path
       style="opacity:0.99;fill:#e83627;fill-opacity:1;stroke-width:0.264999;paint-order:markers fill stroke"
       d="m 22.27075,8.8358566 c 0.535058,0.9662064 -0.0097,-0.021712 0.459893,0.8407389 0.05971,0.109654 0.224581,0.4036485 0.277119,0.4992805 0.07301,0.132891 0.147108,0.274814 0.219906,0.409653 0.06328,0.117224 0.126126,0.227045 0.188552,0.340486 0.103615,0.188296 0.0014,0.005 0.08278,0.159769 0.01753,0.03332 0.03394,0.05846 0.05144,0.0906 0.05562,0.102152 0.09396,0.172244 0.142893,0.248911 -0.0698,-0.158017 -0.109789,-0.265692 -0.159382,-0.395033 -0.04746,-0.123797 -0.09239,-0.245869 -0.127885,-0.350705 -0.01109,-0.03278 -0.03407,-0.08834 -0.04263,-0.1169 -0.0054,-0.018 -0.0019,-0.02667 -0.0084,-0.04822 -0.0037,-0.01235 -0.01467,-0.03669 -0.01705,-0.04676 -0.0081,-0.0344 -0.0017,-0.04542 -0.0082,-0.07305 -0.0085,-0.0364 -0.01433,-0.01725 -0.01417,-0.04725 3.4e-5,-0.006 0.0096,0.0062 0.0086,-0.0015 -4.93e-4,-0.0043 -0.02502,-0.08679 -0.02833,-0.09449 -0.03724,-0.08651 -0.307738,-0.60534 -0.313928,-0.6171539 C 22.767109,9.2242468 22.795108,9.2814972 22.539258,8.8154294 22.463589,8.6775926 22.071516,7.9473604 21.944997,7.7491607 21.604423,7.1496783 21.26182,6.5585004 20.916281,5.9371315 20.863559,5.8423212 20.774539,5.6916058 20.724842,5.5971327 20.682972,5.5175401 20.672975,5.4958285 20.636279,5.438337"
       id="path1188-5-3-8-3-5" />
    <path
       style="opacity:0.99;fill:#e83627;fill-opacity:1;stroke-width:0.264999;paint-order:markers fill stroke"
       d="m 16.137446,9.6438023 c 0.534961,2.8986307 0,-0.065112 0.459859,2.5222297 0.05777,0.328979 0.225307,1.210948 0.277302,1.497848 0.06933,0.398672 0.146739,0.824445 0.219529,1.228963 0.06933,0.351675 0.127097,0.681138 0.189489,1.021461 0.103989,0.56489 0,0.01493 0.08088,0.479309 0.01155,0.09998 0.03466,0.175365 0.05777,0.271807 0.05777,0.306442 0.09244,0.516733 0.142118,0.746735 -0.06933,-0.474053 -0.103988,-0.797078 -0.159449,-1.185101 -0.04621,-0.371396 -0.09244,-0.737609 -0.127096,-1.052118 -0.01155,-0.09835 -0.03466,-0.265016 -0.04621,-0.350704 0,-0.05403 0,-0.07999 0,-0.144661 0,-0.03707 -0.01155,-0.110095 -0.01155,-0.14028 0,-0.10319 0,-0.13626 0,-0.219175 0,-0.109168 -0.01155,-0.05178 -0.01155,-0.141742 0,-0.01812 0,0.01879 0,-0.0042 0,-0.0129 -0.02311,-0.260361 -0.02311,-0.283483 -0.03467,-0.25954 -0.307351,-1.816011 -0.313127,-1.851454 C 16.657385,10.809188 16.685115,10.980939 16.429767,9.58273 16.348887,9.1692175 15.961821,6.9785108 15.834724,6.383906 15.493875,4.5854545 15.151869,2.8119117 14.806398,0.94779907 14.748623,0.6633752 14.664281,0.2112187 14.614598,-0.07220388 14.568385,-0.3109775 14.556823,-0.3761137 14.522161,-0.5485902"
       id="path1188-5-3-2-1" />
    <path
       style="opacity:0.99;fill:#e83627;fill-opacity:1;stroke-width:0.264999;paint-order:markers fill stroke"
       d="m 25.327903,9.2398305 c 0.535048,1.9324065 -0.0097,-0.043412 0.459886,1.6814725 0.0597,0.21932 0.224579,0.807296 0.277116,0.99856 0.07301,0.265779 0.147107,0.549627 0.219904,0.819302 0.06328,0.234449 0.126123,0.454087 0.188547,0.680969 0.103616,0.37659 0.0014,0.01 0.08278,0.319537 0.01752,0.06665 0.03394,0.116909 0.05144,0.181202 0.05562,0.204295 0.09396,0.344486 0.142889,0.49782 -0.06979,-0.316032 -0.109788,-0.53138 -0.159378,-0.790061 -0.04747,-0.247595 -0.09239,-0.491736 -0.127885,-0.701408 -0.01109,-0.06556 -0.03406,-0.176676 -0.04264,-0.2338 -0.0054,-0.03602 -0.0019,-0.05334 -0.0084,-0.09644 -0.0037,-0.02471 -0.01467,-0.07339 -0.01705,-0.09352 -0.0081,-0.0688 -0.0017,-0.09083 -0.0083,-0.146116 -0.0086,-0.0728 -0.01434,-0.03452 -0.01417,-0.09449 3.4e-5,-0.01207 0.0095,0.01252 0.0086,-0.0029 -4.84e-4,-0.0086 -0.025,-0.173571 -0.02832,-0.188987 -0.03725,-0.173085 -0.307748,-1.210727 -0.31394,-1.234351 -0.214845,-0.82 -0.186844,-0.705501 -0.442693,-1.6376312 C 25.520619,8.9233151 25.128555,7.4628542 25.002037,7.0664535 24.661466,5.8674969 24.318866,4.6851444 23.973333,3.442411 23.920612,3.2527973 23.831595,2.9513608 23.781895,2.7624169 23.740035,2.6032331 23.730029,2.5598082 23.693332,2.4448253"
       id="path1188-3-4" />
    <path
       style="opacity:0.99;fill:#e83627;fill-opacity:1;stroke-width:0.264999;paint-order:markers fill stroke"
       d="m 20.883217,23.056817 c -0.535057,-1.449303 0.0097,0.03257 -0.459892,-1.261103 -0.05971,-0.164489 -0.22458,-0.605471 -0.27712,-0.74892 -0.07301,-0.199332 -0.147108,-0.412218 -0.219905,-0.614476 -0.06328,-0.175834 -0.126125,-0.340564 -0.188551,-0.510726 -0.103616,-0.282442 -0.0014,-0.0075 -0.08278,-0.239651 -0.01752,-0.04998 -0.03394,-0.08768 -0.05144,-0.135903 -0.05562,-0.15322 -0.09396,-0.258364 -0.142893,-0.373364 0.06979,0.237025 0.109788,0.398535 0.159381,0.592546 0.04747,0.185695 0.09239,0.368801 0.127887,0.526054 0.01109,0.04917 0.03407,0.132508 0.04263,0.175351 0.0054,0.027 0.0019,0.03999 0.0084,0.07233 0.0037,0.01853 0.01467,0.05504 0.01705,0.07014 0.0081,0.0516 0.0017,0.06813 0.0082,0.109586 0.0085,0.05459 0.01433,0.02589 0.01417,0.07087 -3.5e-5,0.009 -0.0096,-0.0094 -0.0086,0.0021 4.92e-4,0.0064 0.02502,0.130179 0.02833,0.141741 0.03727,0.129776 0.307776,0.908004 0.313966,0.925725 0.214849,0.615 0.186849,0.529125 0.442702,1.228223 0.07567,0.206754 0.467739,1.3021 0.594259,1.599399 0.340575,0.899217 0.683179,1.78598 1.028716,2.718029 0.05272,0.142211 0.141741,0.368287 0.191441,0.509996 0.04187,0.119386 0.05187,0.151955 0.08856,0.238192"
       id="path1188-4" />
    <path
       style="opacity:0.99;fill:#e83627;fill-opacity:1;stroke-width:0.264999;paint-order:markers fill stroke"
       d="m 25.717154,21.407205 c 0.535058,-1.932414 -0.0097,0.04341 0.459893,-1.681481 0.05971,-0.219319 0.22458,-0.807296 0.27712,-0.998561 0.07301,-0.265782 0.147107,-0.549629 0.219905,-0.819308 0.06328,-0.234447 0.126126,-0.454089 0.188552,-0.680971 0.103615,-0.376593 0.0014,-0.01 0.08278,-0.319538 0.01752,-0.06665 0.03394,-0.116911 0.05144,-0.181204 0.05562,-0.204295 0.09396,-0.344489 0.142893,-0.497822 -0.06979,0.316034 -0.10979,0.531383 -0.159382,0.790064 -0.04747,0.247597 -0.09239,0.491738 -0.127886,0.70141 -0.01109,0.06556 -0.03408,0.176679 -0.04264,0.233804 -0.0054,0.03602 -0.0019,0.05334 -0.0084,0.09644 -0.0037,0.02471 -0.01467,0.07339 -0.01705,0.09352 -0.0081,0.0688 -0.0017,0.09083 -0.0082,0.146114 -0.0085,0.07278 -0.01433,0.03452 -0.01417,0.09449 3.5e-5,0.01207 0.0096,-0.01252 0.0086,0.0028 -4.92e-4,0.0086 -0.02502,0.173573 -0.02833,0.188989 -0.03727,0.17304 -0.307776,1.210683 -0.313966,1.23431 -0.214849,0.820004 -0.186848,0.705504 -0.4427,1.637639 -0.07567,0.275675 -0.467741,1.736142 -0.594262,2.132544 -0.340574,1.198965 -0.683177,2.381321 -1.028715,3.624061 -0.05272,0.189615 -0.141741,0.491051 -0.191439,0.679999 -0.04187,0.159182 -0.05187,0.202606 -0.08856,0.31759"
       id="path1188-5-6" />
    <path
       style="opacity:0.99;fill:#e83627;fill-opacity:1;stroke-width:0.264999;paint-order:markers fill stroke"
       d="m 1.119065,20.180942 c 0.5350579,-2.415525 -0.00971,0.05426 0.459893,-2.101857 0.059712,-0.27415 0.2245807,-1.009124 0.2771201,-1.248208 0.073011,-0.332226 0.1471073,-0.687037 0.2199058,-1.024136 0.063283,-0.293062 0.1261249,-0.567615 0.1885512,-0.851217 0.1036179,-0.470742 0.00138,-0.01244 0.082786,-0.399425 0.017527,-0.08332 0.033935,-0.146137 0.05144,-0.226504 0.055622,-0.255371 0.093959,-0.430612 0.1428923,-0.62228 -0.069799,0.395044 -0.1097883,0.664232 -0.1593813,0.987585 -0.047464,0.309495 -0.092399,0.614673 -0.1278857,0.876764 -0.011092,0.08196 -0.034062,0.220848 -0.042624,0.292254 -0.00543,0.04502 -0.00196,0.06667 -0.00843,0.12055 -0.00369,0.03088 -0.014674,0.09174 -0.017055,0.116901 -0.00809,0.086 -0.00174,0.11355 -0.00821,0.182646 -0.00855,0.09097 -0.014327,0.04316 -0.014165,0.118118 3.47e-5,0.01509 0.00959,-0.01566 0.00867,0.0035 -4.922e-4,0.01075 -0.025015,0.216967 -0.028331,0.236234 -0.037286,0.216302 -0.3077757,1.513361 -0.3139665,1.542896 -0.2148486,1.025035 -0.1868481,0.88191 -0.4427003,2.047085 -0.075668,0.344594 -0.46774064,2.170182 -0.59426064,2.665685 -0.34057474,1.498711 -0.68317721,2.976662 -1.02871569,4.530091 -0.0527224,0.237019 -0.14174153,0.613816 -0.19143972,0.850001 -0.0418721,0.198978 -0.0518675,0.253259 -0.0885637,0.396989"
       id="path1188-5-3-4" />
    <path
       style="opacity:0.99;fill:#e83627;fill-opacity:1;stroke-width:0.264999;paint-order:markers fill stroke"
       d="m 5.2160812,20.783737 c 1.0781754,-1.70122 -0.022004,0.03887 0.9327225,-1.481904 0.1213956,-0.193363 0.4514322,-0.710416 0.5577446,-0.878916 0.1477349,-0.234146 0.3017979,-0.485295 0.4504699,-0.723235 0.1292443,-0.206858 0.2537334,-0.399652 0.3799426,-0.5995 0.2094892,-0.33172 0.00424,-0.0091 0.172833,-0.282905 0.036299,-0.05893 0.066727,-0.102486 0.1023149,-0.159169 0.1130801,-0.180117 0.1908393,-0.303674 0.2825961,-0.436844 -0.1593651,0.283192 -0.260703,0.478286 -0.3839246,0.712204 -0.1179376,0.223892 -0.2324405,0.445185 -0.3278031,0.636104 -0.029816,0.05971 -0.084341,0.159709 -0.1092626,0.212036 -0.015743,0.03298 -0.017491,0.05055 -0.036305,0.09002 -0.010768,0.02264 -0.035539,0.0662 -0.04371,0.08481 -0.027883,0.06364 -0.028246,0.08654 -0.050624,0.137685 -0.029492,0.06733 -0.023829,0.02905 -0.041227,0.08655 -0.0035,0.01158 0.012853,-0.0093 0.00747,0.005 -0.00299,0.0081 -0.074764,0.159271 -0.082453,0.17311 -0.086365,0.155318 -0.6491974,1.07354 -0.6620437,1.094439 C 5.918988,20.178564 5.9793235,20.076724 5.4613954,20.897969 5.3082191,21.140847 4.5051578,22.430037 4.2679297,22.774308 3.5907388,23.827417 2.916466,24.864044 2.2217085,25.957696 2.1157027,26.124564 1.942196,26.388378 1.8392829,26.555454 1.7525789,26.69621 1.7302953,26.735008 1.6614856,26.834872"
       id="path1188-5-3-8-9" />
    <path
       style="opacity:0.99;fill:#e83627;fill-opacity:1;stroke-width:0.264999;paint-order:markers fill stroke"
       d="m 24.464914,26.432939 c 0.998505,-0.502088 -0.02053,0.01256 0.864151,-0.440029 0.112479,-0.05754 0.418009,-0.209176 0.516492,-0.259104 0.136853,-0.06938 0.279809,-0.14561 0.41761,-0.216714 0.119794,-0.06182 0.23496,-0.117766 0.351868,-0.176934 0.19405,-0.09821 0.004,-0.0034 0.160412,-0.08617 0.03367,-0.01783 0.0617,-0.02952 0.09467,-0.04638 0.104787,-0.05361 0.176824,-0.0903 0.261402,-0.126555 -0.14868,0.0919 -0.243741,0.158699 -0.359215,0.238085 -0.110528,0.07599 -0.217963,0.15194 -0.30767,0.218887 -0.02804,0.02094 -0.07902,0.05411 -0.102551,0.07297 -0.01486,0.01185 -0.01698,0.02093 -0.03476,0.03515 -0.01022,0.0081 -0.03326,0.02219 -0.04103,0.02918 -0.02651,0.02394 -0.0276,0.03654 -0.04886,0.05578 -0.02803,0.02532 -0.02177,0.0063 -0.03891,0.03118 -0.0035,0.0049 0.01155,1.6e-4 0.0064,0.006 -0.0029,0.0033 -0.07067,0.05784 -0.07784,0.06236 -0.08064,0.05083 -0.602918,0.32973 -0.614837,0.336063 -0.413642,0.219805 -0.357535,0.188009 -0.83733,0.431441 -0.141898,0.07199 -0.886378,0.458259 -1.105041,0.551992 -0.626621,0.30677 -1.250131,0.605564 -1.893461,0.92766 -0.09816,0.04915 -0.258502,0.124397 -0.353971,0.174937 -0.08043,0.04258 -0.101189,0.05499 -0.164621,0.08217"
       id="path1188-5-3-8-3-1" />
    <path
       style="opacity:0.99;fill:#e83627;fill-opacity:1;stroke-width:0.264999;paint-order:markers fill stroke"
       d="m 0.62256306,20.537782 c 0.53496084,2.898632 0,-0.06511 0.45985834,2.52223 0.057772,0.32898 0.2253074,1.210948 0.2773015,1.497849 0.069326,0.398672 0.1467387,0.824444 0.2195303,1.228963 0.069326,0.351674 0.1270965,0.681138 0.1894894,1.02146 0.1039884,0.56489 0,0.01493 0.080879,0.47931 0.011554,0.09998 0.034663,0.175365 0.057772,0.271806 0.057771,0.306442 0.092433,0.516734 0.142117,0.746735 -0.069326,-0.474052 -0.1039884,-0.797077 -0.1594484,-1.185101 -0.046217,-0.371395 -0.092433,-0.737608 -0.1270965,-1.052119 -0.011554,-0.09835 -0.034663,-0.265015 -0.046217,-0.350703 0,-0.05402 0,-0.07999 0,-0.14466 0,-0.03707 -0.011554,-0.110096 -0.011554,-0.140281 0,-0.103189 0,-0.13626 0,-0.219174 0,-0.109168 -0.011554,-0.05178 -0.011554,-0.141743 0,-0.01811 0,0.01879 0,-0.0042 0,-0.0129 -0.023109,-0.26036 -0.023109,-0.283482 C 1.635869,24.525126 1.3631892,22.968655 1.357412,22.933213 1.1425034,21.70317 1.1702335,21.87492 0.91488496,20.476711 0.83400536,20.063199 0.44693873,17.872492 0.31984224,17.277887 -0.0210075,15.479435 -0.36301274,13.705893 -0.7084842,11.84178 c -0.057771,-0.284424 -0.142117,-0.736581 -0.1918001,-1.020004 -0.046217,-0.238774 -0.057771,-0.30391 -0.092434,-0.476386"
       id="path1188-5-3-2-5" />
    <path
       style="display:inline;opacity:0.99;fill:#e83627;fill-opacity:1;stroke-width:0.264999;paint-order:markers fill stroke"
       d="M 2.4712859,11.55903 C 3.1844461,10.305938 2.4572926,11.587393 3.0868583,10.468128 3.1669003,10.325812 3.3857142,9.9447263 3.4559322,9.8206595 3.5535123,9.6482577 3.654327,9.4637738 3.7522121,9.2887244 3.8373055,9.1365416 3.9201391,8.9943036 4.0035249,8.847143 4.1419345,8.6028777 4.0059975,8.8405809 4.1164675,8.6394045 4.1402531,8.596095 4.1609837,8.5637374 4.1844514,8.5220198 4.25902,8.3894545 4.3103375,8.298501 4.3726006,8.1996744 4.2714814,8.4062606 4.2092125,8.5477384 4.1330524,8.7175392 4.0601556,8.8800629 3.9899134,9.0404925 3.9323089,9.1785624 c -0.018009,0.043174 -0.052186,0.1159548 -0.06692,0.1536729 -0.00932,0.023782 -0.00847,0.035774 -0.019585,0.06424 -0.00636,0.016315 -0.022137,0.048117 -0.026768,0.061468 -0.015787,0.04564 -0.013004,0.061095 -0.025765,0.097752 -0.016798,0.048276 -0.016929,0.021938 -0.02436,0.062397 -0.00149,0.00815 0.00989,-0.00758 0.00722,0.00283 -0.00151,0.00577 -0.043846,0.1147055 -0.04871,0.1247907 C 3.6728841,9.8589162 3.304667,10.533355 3.2962552,10.548708 3.0043195,11.081585 3.0433316,11.006991 2.7012906,11.611652 2.6001308,11.790477 2.07193,12.73868 1.910951,12.994166 1.4609372,13.770841 1.0112452,14.536132 0.55134686,15.341863 0.48117496,15.4648 0.36506344,15.65975 0.29762516,15.782517 c -0.0568071,0.103431 -0.0710651,0.131779 -0.11775787,0.205888"
       id="path1188-3-8" />
    <path
       style="opacity:0.99;fill:#e83627;fill-opacity:1;stroke-width:0.264999;paint-order:markers fill stroke"
       d="M 11.470252,1.3767465 C 10.642094,0.49086043 11.486152,1.3971794 10.75628,0.60461459 10.66348,0.50385323 10.409075,0.23475856 10.327596,0.14698218 10.214365,0.02500736 10.097982,-0.1061328 9.9845949,-0.2301837 9.8860249,-0.3380275 9.7895295,-0.438266 9.6927565,-0.5423661 c -0.1606271,-0.1727888 -0.0027,-0.00487 -0.1302887,-0.1477704 -0.027487,-0.030751 -0.05193,-0.053254 -0.07913,-0.082784 C 9.3968828,-0.8667915 9.337373,-0.9311687 9.264084,-1 c 0.1147449,0.1488736 0.1840683,0.2520289 0.269171,0.3755899 0.081452,0.1182638 0.1595795,0.2353036 0.2230545,0.3365129 0.01984,0.031645 0.05835,0.084345 0.07435,0.1121771 0.01022,0.017525 0.0079,0.027346 0.01998,0.048333 0.0069,0.012038 0.02484,0.034915 0.02975,0.0448712 0.01663,0.0340316 0.01156,0.04693 0.02495,0.0742414 0.01761,0.0359894 0.02038,0.0147419 0.02648,0.0460248 0.0012,0.006223 -0.01253,-0.004299 -0.0098,0.003507 0.0015,0.004299 0.04744,0.0847748 0.05294,0.092061 0.06174,0.0817201 0.4867645,0.56121201 0.4964815,0.57212311 0.337161,0.37868199 0.292421,0.32535519 0.689274,0.75318579 0.11737,0.1265275 0.728878,0.7988326 0.918357,0.9767738 0.523883,0.5477067 1.048396,1.0863056 1.582673,1.6556941 0.08152,0.086879 0.2172,0.223811 0.295113,0.3110217 0.06565,0.073473 0.08189,0.093837 0.136842,0.1454533"
       id="path1188-5-3-8-3-9" />
    <path
       style="opacity:0.99;fill:#e83627;fill-opacity:1;stroke-width:0.264999;paint-order:markers fill stroke"
       d="m 8.4974665,5.9050591 c 0.3216559,-1.6306294 -0.00447,0.036114 0.2732398,-1.4175994 0.035323,-0.1848392 0.1356054,-0.6814604 0.166952,-0.8427611 0.043563,-0.2241412 0.08555,-0.4626467 0.1282534,-0.6897873 0.037122,-0.1974666 0.076054,-0.3832618 0.1133471,-0.5746234 0.061916,-0.3176302 2.34e-5,-0.00803 0.046544,-0.2683504 0.010007,-0.056026 0.021292,-0.099008 0.03165,-0.1531908 0.032906,-0.1721779 0.055667,-0.2903682 0.088775,-0.4212176 -0.031916,0.2626854 -0.044798,0.4399703 -0.062097,0.6532842 -0.016554,0.204169 -0.030692,0.4050694 -0.039219,0.5769043 -0.00266,0.053729 -0.01204,0.145734 -0.013063,0.1923008 -6.845e-4,0.029359 0.00617,0.042111 0.00532,0.077251 -4.237e-4,0.020138 -0.00564,0.060654 -0.00522,0.076912 0.00138,0.055574 0.012243,0.071379 0.013339,0.1160283 0.00149,0.058798 -0.011327,0.030197 -0.0017,0.077025 0.00192,0.00939 0.00926,-0.011936 0.010539,2.737e-4 7.878e-4,0.0069 -0.00192,0.141265 -0.0033,0.1540598 C 9.234468,3.6051793 9.081396,4.4769818 9.0778755,4.49684 8.9556434,5.1860322 8.970375,5.090249 8.8178396,5.8763061 8.7726801,6.1087789 8.5439749,7.3383874 8.4583963,7.676664 8.2486731,8.6903243 8.034066,9.6914692 7.8255226,10.740453 c -0.031815,0.160053 -0.088489,0.415667 -0.1168802,0.574516 -0.023926,0.133827 -0.028775,0.17001 -0.053599,0.268134"
       id="path1188-4-7" />
    <path
       style="opacity:0.99;fill:#e83627;fill-opacity:1;stroke-width:0.264999;paint-order:markers fill stroke"
       d="M 1.249145,6.1664265 C 0.21838423,4.2739308 1.269596,6.2094644 0.35888019,4.5183974 0.2430837,4.3033796 -0.07296608,3.7280151 -0.17449887,3.5406054 -0.315591,3.2801873 -0.46173701,3.0011873 -0.60339763,2.7366577 -0.72654953,2.5066852 -0.84607227,2.2920373 -0.96663138,2.0697527 -1.1667414,1.7007927 -0.97032877,2.0596833 -1.1304219,1.7555326 -1.1648881,1.6900592 -1.1946172,1.6413915 -1.2285519,1.5783574 -1.3364107,1.3780691 -1.410635,1.2406633 -1.5,1.0919595 c 0.1478767,0.3134994 0.2397826,0.5288317 0.3520053,0.7871409 0.1074081,0.2472397 0.21114554,0.4914508 0.29659367,0.7018842 0.0267135,0.065801 0.076882,0.1763798 0.0988698,0.2339595 0.0139003,0.036295 0.0134489,0.055132 0.0300872,0.098567 0.009475,0.024914 0.0325368,0.073144 0.0395503,0.093577 0.023836,0.069864 0.0210862,0.094244 0.0402785,0.1503658 0.0252349,0.073903 0.0239978,0.032731 0.0363725,0.095251 0.002544,0.012581 -0.0138534,-0.010862 -0.009475,0.00497 0.002427,0.00882 0.06564,0.1751863 0.0727567,0.1904995 0.0798628,0.1718667 0.61369825,1.1918652 0.62589027,1.2150847 C 0.50606126,5.4690746 0.44931606,5.3561046 0.9438995,6.2694913 1.0901726,6.53962 1.8548013,7.9726947 2.0858409,8.3571262 2.735429,9.529383 3.3839054,10.683881 4.0484746,11.900623 c 0.1014004,0.18565 0.2686832,0.479604 0.3664065,0.66524 0.082336,0.156389 0.1031218,0.199376 0.1701396,0.310887"
       id="path1188-5-6-9" />
    <path
       style="opacity:0.99;fill:#e83627;fill-opacity:1;stroke-width:0.264999;paint-order:markers fill stroke"
       d="M 4.0254234,2.3608223 C 3.1972648,1.4749373 4.041322,2.3812552 3.3114518,1.5886926 3.2186482,1.4879313 2.964246,1.2188377 2.8827691,1.131058 2.7695376,1.0090854 2.6531542,0.87794635 2.539768,0.7538943 2.4411988,0.6460505 2.3447013,0.54581076 2.2479289,0.44171298 2.087302,0.2689208 2.2452689,0.43684798 2.1176388,0.29394141 2.0901518,0.26319031 2.0657018,0.24068701 2.0385038,0.21115781 1.9520558,0.11728671 1.892538,0.05291072 1.8192495,-0.0159194 c 0.1147451,0.14887348 0.1840693,0.25202995 0.269172,0.37558984 0.081446,0.11826387 0.1595777,0.23530244 0.2230544,0.33651405 0.019838,0.0316449 0.058349,0.0843449 0.074351,0.112177 0.010167,0.0175252 0.00786,0.0273456 0.019977,0.0483329 0.00693,0.0120493 0.024842,0.0349146 0.029752,0.0448708 0.016627,0.0340321 0.011566,0.0469299 0.024957,0.0742416 0.017608,0.0359894 0.02037,0.014742 0.026471,0.0460248 0.00116,0.00622 -0.012525,-0.0043 -0.00983,0.00351 0.0015,0.0043 0.047442,0.084775 0.052942,0.092061 0.061722,0.08172 0.4867646,0.561212 0.4964793,0.5721231 0.3371656,0.3786811 0.2924266,0.3253544 0.6892808,0.7531848 0.1173701,0.1265276 0.7288766,0.7988327 0.9183567,0.9767751 0.5238838,0.5477066 1.0483961,1.0863044 1.5826717,1.6556929 0.081515,0.086879 0.2171999,0.2238122 0.2951135,0.3110228 0.06564,0.073473 0.081885,0.093837 0.1368425,0.1454534"
       id="path1188-5-3-8-3-1-2" />
    <path
       style="opacity:0.99;fill:#e83627;fill-opacity:1;stroke-width:0.264999;paint-order:markers fill stroke"
       d="m 17.874861,4.1372432 c 1.332566,-1.0868995 -0.03044,0.021482 1.160734,-0.93855 0.151455,-0.1220712 0.556477,-0.4554021 0.688461,-0.5624491 0.1834,-0.1487547 0.380094,-0.3027044 0.566459,-0.4520118 0.162017,-0.1297959 0.313048,-0.255905 0.469588,-0.3830169 0.259831,-0.2109862 0.0071,-0.00386 0.221556,-0.1725101 0.04616,-0.036312 0.08029,-0.067741 0.124688,-0.1035253 0.14108,-0.1137094 0.237859,-0.1919379 0.342215,-0.2864124 -0.221694,0.1552983 -0.37437,0.2515162 -0.557436,0.36907 -0.17522,0.1125119 -0.348394,0.2210857 -0.497776,0.3103946 -0.04671,0.02792 -0.12499,0.080545 -0.165925,0.1034732 -0.02581,0.014496 -0.0395,0.013758 -0.07039,0.031073 -0.01771,0.00991 -0.05181,0.034117 -0.06638,0.041391 -0.04978,0.024796 -0.06762,0.021392 -0.107616,0.041277 -0.05265,0.026222 -0.02278,0.025464 -0.06771,0.037931 -0.009,0.00251 0.0073,-0.014663 -0.004,-0.010389 -0.0064,0.00244 -0.12459,0.068399 -0.135424,0.075862 -0.121581,0.083848 -0.840699,0.6461474 -0.857067,0.6589896 -0.568056,0.4457467 -0.488312,0.3860418 -1.131575,0.907483 -0.190242,0.1542156 -1.199975,0.9600502 -1.469765,1.2042685 -0.824962,0.6852713 -1.637061,1.3696065 -2.49373,2.0704223 -0.130709,0.1069286 -0.337394,0.2835196 -0.468245,0.3864745 -0.110239,0.086739 -0.140614,0.1085906 -0.21887,0.1794408"
       id="path1188-50" />
    <path
       style="opacity:0.99;fill:#e83627;fill-opacity:1;stroke-width:0.264999;paint-order:markers fill stroke"
       d="m 23.963471,2.2595766 c 1.558867,-0.8673236 -0.03508,0.015889 1.356572,-0.7459035 0.176947,-0.096869 0.651219,-0.3639633 0.805522,-0.4491605 0.214416,-0.11838967 0.4435,-0.23883293 0.66109,-0.35698468 0.189166,-0.10271295 0.3663,-0.20442339 0.549336,-0.30563613 0.303808,-0.1680122 0.008,-0.002285 0.257899,-0.13462464 0.05377,-0.0285324 0.09427,-0.0548994 0.146146,-0.0832938 0.164825,-0.0902394 0.277932,-0.15240427 0.401473,-0.23125043 -0.255355,0.11447659 -0.429533,0.18075935 -0.638726,0.26278976 -0.200224,0.078516 -0.397702,0.15303444 -0.567366,0.21225723 -0.05306,0.0185072 -0.142872,0.0563249 -0.189122,0.0707468 -0.02915,0.009141 -0.04333,0.004096 -0.07823,0.0150214 -0.02,0.006212 -0.05932,0.0242671 -0.07565,0.0282609 -0.05575,0.0138979 -0.07383,0.004571 -0.118622,0.0157613 -0.059,0.0146594 -0.02773,0.0228677 -0.0765,0.0238971 -0.0098,1.542e-4 0.0099,-0.0150859 -0.0026,-0.0132587 -0.007,9.4481e-4 -0.140552,0.0422867 -0.153025,0.0476506 -0.139835,0.0612069 -0.977286,0.50094809 -0.996356,0.51100749 -0.661776,0.3491807 -0.569324,0.3035133 -1.321324,0.718414 -0.222389,0.1227739 -1.400828,0.7592292 -1.72021,0.9630648 -0.966995,0.5514274 -1.920442,1.105648 -2.922917,1.6656548 -0.152956,0.085446 -0.395993,0.229335 -0.548477,0.3100872 -0.128463,0.06805 -0.163542,0.084382 -0.256184,0.1435181"
       id="path1188-4-7-2" />
    <path
       style="opacity:0.99;fill:#e83627;fill-opacity:1;stroke-width:0.264999;paint-order:markers fill stroke"
       d="m 17.184421,3.9835634 c 2.107615,0.7741743 -0.04729,-0.013812 1.833799,0.6648526 0.239179,0.086292 0.880514,0.3250501 1.08911,0.4010285 0.289862,0.1055833 0.59934,0.2123434 0.893426,0.3174903 0.255665,0.091407 0.495267,0.1825291 0.742711,0.2728139 0.41072,0.1498588 0.01086,0.00185 0.348374,0.1192157 0.07267,0.02527 0.127547,0.049266 0.197661,0.074546 0.222794,0.080374 0.375688,0.1358037 0.543074,0.2072532 C 22.488303,5.941528 22.253887,5.8856261 21.972267,5.8160627 21.702715,5.7494874 21.436966,5.6867151 21.208811,5.6376226 c -0.07134,-0.015342 -0.192352,-0.047821 -0.254484,-0.059486 -0.03917,-0.00741 -0.05787,-0.00152 -0.104755,-0.0104 -0.02688,-0.00498 -0.07991,-0.020661 -0.101784,-0.0238 -0.07478,-0.010556 -0.09854,-1.941e-4 -0.158614,-0.00873 -0.07911,-0.01119 -0.03776,-0.021216 -0.102785,-0.019298 -0.01309,3.203e-4 0.01379,0.014517 -0.003,0.013422 -0.0094,-5.914e-4 -0.188771,-0.033898 -0.205565,-0.038612 C 20.089388,5.4378548 18.958063,5.0481375 18.9323,5.0392157 18.038237,4.7295656 18.163032,4.7697103 17.146437,4.3997425 16.845785,4.290323 15.253194,3.7242592 14.820462,3.5395311 13.512593,3.0458982 12.222684,2.5486717 10.867241,2.0485696 10.660429,1.9722638 10.331534,1.8429091 10.125516,1.7712625 9.9519539,1.7108933 9.9046399,1.6966403 9.7791175,1.6430553"
       id="path1188-5-6-9-5" />
    <path
       style="opacity:0.99;fill:#e83627;fill-opacity:1;stroke-width:0.264999;paint-order:markers fill stroke"
       d="m 20.40565,8.6949482 c 1.060045,0.8007886 -0.02376,-0.014412 0.922259,0.6880116 0.120274,0.089316 0.442875,0.3361682 0.547787,0.4147768 0.145783,0.10925 0.301383,0.2199154 0.449274,0.3287764 0.128567,0.09464 0.249107,0.188783 0.373554,0.282195 0.206571,0.155045 0.0054,0.002 0.175155,0.123616 0.03654,0.0262 0.06418,0.05087 0.09943,0.07705 0.112052,0.0832 0.188939,0.140549 0.273199,0.21411 -0.172947,-0.10359 -0.290623,-0.162455 -0.43201,-0.235583 -0.135329,-0.06998 -0.268727,-0.136104 -0.383219,-0.188099 -0.03579,-0.01625 -0.09657,-0.05024 -0.127744,-0.0627 -0.01965,-0.0079 -0.02896,-0.0023 -0.05248,-0.01173 -0.0135,-0.0054 -0.04011,-0.02167 -0.0511,-0.02509 -0.03749,-0.01151 -0.04929,-0.0015 -0.07939,-0.01075 -0.03966,-0.0122 -0.01904,-0.02168 -0.05156,-0.0206 -0.0065,2.87e-4 0.0069,0.01466 -0.0014,0.01344 -0.0046,-6.94e-4 -0.09467,-0.03628 -0.103115,-0.0412 C 21.869609,10.185912 21.300784,9.7819092 21.287831,9.7726616 20.838283,9.4517187 20.901008,9.4934386 20.389726,9.1106335 20.238518,8.9974175 19.437654,8.4112408 19.219812,8.2210517 18.561907,7.710906 17.912959,7.197397 17.231209,6.6801792 17.127186,6.6012689 16.961703,6.4677554 16.858115,6.3935059 16.770846,6.3309527 16.747068,6.3160863 16.683881,6.260925"
       id="path1188-5-3-8-3-1-2-0" />
    <path
       style="opacity:0.99;fill:#e83627;fill-opacity:1;stroke-width:0.264999;paint-order:markers fill stroke"
       d="m 18.747181,14.334661 c 1.36348,-0.769702 -0.02886,0.01876 1.18208,-0.673342 0.153973,-0.08799 0.570419,-0.320892 0.705053,-0.39734 0.187087,-0.106226 0.38393,-0.222129 0.57278,-0.330727 0.164175,-0.09441 0.320699,-0.180619 0.480483,-0.271238 0.265216,-0.150415 0.006,-0.0048 0.221112,-0.130869 0.04632,-0.02713 0.08369,-0.04558 0.128823,-0.07138 0.143425,-0.08197 0.241977,-0.138114 0.355117,-0.195097 -0.209457,0.137061 -0.346395,0.23524 -0.512079,0.352189 -0.158582,0.11194 -0.313523,0.223499 -0.444217,0.321265 -0.04087,0.03057 -0.113313,0.07975 -0.148077,0.107085 -0.02194,0.0172 -0.02785,0.02933 -0.05408,0.04995 -0.01503,0.01183 -0.04747,0.0328 -0.05922,0.04283 -0.04018,0.03432 -0.0462,0.05097 -0.07845,0.07856 -0.04249,0.03632 -0.028,0.01075 -0.05751,0.04522 -0.0059,0.0069 0.01352,-0.0012 0.0052,0.0071 -0.0046,0.0046 -0.104851,0.08368 -0.115011,0.09044 -0.113971,0.07564 -0.833262,0.499556 -0.849664,0.50919 -0.56926,0.334321 -0.491301,0.286376 -1.147287,0.659071 -0.194006,0.11022 -1.215078,0.699717 -1.507584,0.847024 -0.852541,0.472129 -1.69843,0.93346 -2.576389,1.427546 -0.133958,0.07539 -0.350893,0.191945 -0.48221,0.268857 -0.110631,0.0648 -0.139722,0.08337 -0.224567,0.126104"
       id="path1188-9" />
    <path
       style="opacity:0.99;fill:#e83627;fill-opacity:1;stroke-width:0.264999;paint-order:markers fill stroke"
       d="m 24.681129,19.466834 c 1.319823,-1.043047 -0.02723,0.02475 1.142511,-0.910818 0.148736,-0.118954 0.552472,-0.435156 0.682667,-0.538631 0.180919,-0.143788 0.370098,-0.299545 0.55234,-0.446163 0.15843,-0.127467 0.310552,-0.244875 0.465095,-0.367565 0.256525,-0.203639 0.0053,-0.0061 0.212315,-0.175691 0.04458,-0.03647 0.08148,-0.06221 0.125083,-0.09708 0.138551,-0.110808 0.233791,-0.186754 0.345272,-0.265848 -0.197403,0.180599 -0.324017,0.30795 -0.477733,0.460048 -0.147127,0.145577 -0.290249,0.290188 -0.409943,0.416125 -0.03742,0.03938 -0.105191,0.103768 -0.136644,0.13871 -0.01986,0.02201 -0.02305,0.03605 -0.04682,0.0624 -0.01359,0.01513 -0.04428,0.04278 -0.05462,0.05549 -0.03554,0.04335 -0.03765,0.06228 -0.06622,0.0971 -0.03757,0.04589 -0.02854,0.01593 -0.05205,0.05777 -0.0047,0.0084 0.01493,-0.0033 0.0079,0.0069 -0.0039,0.0058 -0.09455,0.106723 -0.104031,0.115621 -0.107095,0.09943 -0.798282,0.66901 -0.814051,0.681963 -0.547345,0.44951 -0.473,0.385612 -1.107303,0.890013 -0.187633,0.149141 -1.172285,0.944417 -1.460491,1.148895 -0.827842,0.642289 -1.651248,1.271866 -2.501529,1.941834 -0.129735,0.102222 -0.341406,0.26178 -0.467724,0.365251 -0.106426,0.08716 -0.133963,0.111759 -0.217568,0.171067"
       id="path1188-4-7-7" />
    <path
       style="opacity:0.99;fill:#e83627;fill-opacity:1;stroke-width:0.264999;paint-order:markers fill stroke"
       d="m 23.597835,13.934008 c -0.04943,-1.200024 -0.0013,0.02566 -0.03709,-1.040976 -0.0045,-0.135612 -0.02175,-0.501924 -0.0262,-0.620463 -0.0063,-0.164724 -0.0087,-0.338443 -0.01371,-0.504854 -0.0043,-0.144667 -0.01203,-0.282214 -0.01742,-0.422883 -0.0089,-0.233493 0.0012,-0.0054 -0.0022,-0.195213 -7.52e-4,-0.04085 -0.0046,-0.07349 -0.006,-0.113241 -0.0043,-0.126335 -0.0072,-0.213119 -0.018,-0.312006 -0.01043,0.186239 -0.02533,0.308855 -0.04167,0.457028 -0.01566,0.141816 -0.03302,0.280603 -0.05117,0.398038 -0.0056,0.03671 -0.01098,0.101308 -0.01707,0.132685 -0.0038,0.01981 -0.01201,0.02586 -0.01656,0.04956 -0.0027,0.01359 -0.004,0.04237 -0.0068,0.05308 -0.0097,0.03651 -0.02207,0.04318 -0.02982,0.07249 -0.01033,0.03862 0.0059,0.02413 -0.01001,0.05188 -0.0032,0.0055 -0.0067,-0.0112 -0.0098,-0.0035 -0.0017,0.0042 -0.01959,0.09476 -0.02017,0.103799 -0.0067,0.101423 0.0023,0.736299 0.0027,0.750773 0.0082,0.502325 0.0093,0.433318 0.03069,1.010903 0.0064,0.170819 0.03088,1.070797 0.05849,1.326449 0.03963,0.74942 0.08573,1.492277 0.119019,2.26483 0.0051,0.117874 0.01858,0.30821 0.02069,0.424064 0.0017,0.09761 7.74e-4,0.123425 0.0087,0.19758"
       id="path1188-5-3-8-3-1-2-1" />
    <path
       style="opacity:0.99;fill:#e83627;fill-opacity:1;stroke-width:0.264999;paint-order:markers fill stroke"
       d="M 10.359788,22.5191 C 9.3355426,20.532116 10.37927,22.563476 9.477083,20.790761 9.3623615,20.565361 9.0476105,19.960551 8.9468669,19.76393 8.806868,19.490708 8.6631676,19.19934 8.5230377,18.92225 8.4012235,18.681363 8.2817666,18.455293 8.1621029,18.222049 c -0.198616,-0.387154 -0.00335,-0.0102 -0.1608152,-0.327936 -0.033935,-0.06843 -0.0643,-0.120378 -0.097934,-0.186459 -0.1068651,-0.209961 -0.1804517,-0.35406 -0.2714504,-0.512436 0.1409188,0.32301 0.2255662,0.542279 0.3295971,0.805844 0.099563,0.252266 0.1949313,0.500809 0.2721701,0.713918 0.024148,0.06664 0.071335,0.180033 0.090712,0.237974 0.012259,0.03652 0.00912,0.05344 0.023605,0.09714 0.00831,0.02506 0.030411,0.07483 0.03628,0.09519 0.020105,0.06955 0.013044,0.09083 0.029106,0.146702 0.021079,0.07357 0.025465,0.03603 0.032065,0.09585 0.00138,0.01205 -0.015798,-0.01351 -0.012573,0.0018 0.0017,0.0086 0.057392,0.175937 0.064141,0.191685 0.075766,0.176757 0.600487,1.241854 0.6124827,1.26611 0.4163122,0.84184 0.3611871,0.724514 0.8518807,1.682728 0.1451171,0.283385 0.9007291,1.783739 1.1360081,2.193179 0.648401,1.23377 1.297953,2.451191 1.958809,3.729182 0.100837,0.194996 0.268947,0.505554 0.365164,0.69955 0.08107,0.163433 0.101029,0.207859 0.169276,0.326626"
       id="path1188-5-3-8-6" />
    <path
       style="opacity:0.99;fill:#e83627;fill-opacity:1;stroke-width:0.264999;paint-order:markers fill stroke"
       d="m 11.451675,25.50044 c 0.607861,-1.116295 -0.01022,0.02433 0.520265,-0.969514 0.06744,-0.126362 0.255546,-0.466687 0.31507,-0.57704 0.08272,-0.153347 0.165157,-0.315873 0.247134,-0.471058 0.07126,-0.13491 0.143439,-0.26244 0.214208,-0.393376 0.117464,-0.217335 0.0011,-0.0054 0.09184,-0.182762 0.01955,-0.03819 0.03916,-0.06805 0.05892,-0.105082 0.06282,-0.117717 0.106192,-0.198543 0.164293,-0.289196 -0.07243,0.176881 -0.11025,0.29498 -0.158046,0.437343 -0.04574,0.136259 -0.08801,0.270021 -0.119573,0.383899 -0.0098,0.03561 -0.03294,0.0973 -0.03985,0.127966 -0.0044,0.01934 0.0028,0.02669 -0.0026,0.04985 -0.003,0.01327 -0.01448,0.04058 -0.01596,0.05118 -0.005,0.03623 0.0071,0.04496 0.0032,0.07405 -0.0052,0.03832 -0.01813,0.02146 -0.01145,0.05073 0.0014,0.0059 0.01329,-0.0091 0.01352,-0.0014 1.72e-4,0.0044 -0.01948,0.09287 -0.02289,0.101475 -0.03824,0.09656 -0.339013,0.690568 -0.34591,0.704104 -0.239349,0.469786 -0.208977,0.404831 -0.49877,0.942577 -0.08571,0.159036 -0.526354,0.99875 -0.676588,1.233115 -0.39025,0.695365 -0.785373,1.383259 -1.178487,2.101611 -0.05998,0.10961 -0.1632685,0.28552 -0.2187125,0.393827 -0.04671,0.09124 -0.05729,0.115684 -0.100859,0.183664"
       id="path1188-5-3-8-3-91" />
    <path
       style="opacity:0.99;fill:#e83627;fill-opacity:1;stroke-width:0.264999;paint-order:markers fill stroke"
       d="m 15.114578,21.365902 c 0.4004,-2.060895 -0.0054,0.04556 0.339745,-1.791453 0.04388,-0.233573 0.168877,-0.861311 0.207865,-1.065159 0.05419,-0.283265 0.10615,-0.584545 0.159179,-0.871551 0.04609,-0.249514 0.09468,-0.484407 0.141097,-0.726247 0.07703,-0.40142 9e-6,-0.0102 0.05754,-0.338959 0.0124,-0.07078 0.02661,-0.125186 0.03949,-0.193658 0.04089,-0.217575 0.06921,-0.366935 0.110852,-0.532542 -0.03851,0.331366 -0.05321,0.554731 -0.07323,0.823542 -0.01917,0.257293 -0.03522,0.510393 -0.04428,0.726764 -0.0028,0.06766 -0.01397,0.183659 -0.01477,0.242255 -5.14e-4,0.03694 0.0085,0.05276 0.0079,0.097 -3.44e-4,0.02534 -0.0066,0.07646 -0.0059,0.0969 0.0024,0.06987 0.01691,0.08936 0.01869,0.145519 0.0024,0.07394 -0.01443,0.03834 -0.0013,0.09692 0.0027,0.01179 0.01175,-0.01528 0.01383,9.6e-5 0.0011,0.0086 -8.12e-4,0.177709 -0.0026,0.193849 -0.01964,0.181133 -0.209035,1.282375 -0.213396,1.307459 -0.151319,0.87061 -0.133236,0.749686 -0.32296,1.743077 -0.05611,0.293792 -0.339966,1.847412 -0.447642,2.275549 -0.261532,1.281437 -0.529719,2.547292 -0.789415,3.873121 -0.03963,0.202292 -0.11055,0.525554 -0.14571,0.726222 -0.02962,0.169058 -0.03555,0.214723 -0.06676,0.338909"
       id="path1188-3-5" />
    <path
       style="opacity:0.99;fill:#e83627;fill-opacity:1;stroke-width:0.264999;paint-order:markers fill stroke"
       d="m 17.200229,24.22006 c -1.126487,-1.24523 0.02178,0.02872 -0.971542,-1.085355 -0.126306,-0.141652 -0.47221,-0.519877 -0.583069,-0.64326 -0.154052,-0.171452 -0.312667,-0.355805 -0.46702,-0.530183 -0.134188,-0.151599 -0.265308,-0.292484 -0.396967,-0.438812 -0.218534,-0.242881 -0.0037,-0.0069 -0.177602,-0.207732 -0.03744,-0.04324 -0.07054,-0.07483 -0.107558,-0.116359 -0.117651,-0.13195 -0.198646,-0.222442 -0.297902,-0.31917 0.157255,0.209329 0.252862,0.3544 0.370087,0.528162 0.112191,0.166315 0.219979,0.330912 0.307819,0.473263 0.02745,0.04451 0.08035,0.118616 0.102604,0.157755 0.01405,0.02467 0.01164,0.03846 0.02839,0.068 0.0096,0.01692 0.03417,0.0491 0.04104,0.06309 0.02341,0.04786 0.01722,0.06606 0.03604,0.104504 0.02475,0.05063 0.02739,0.02071 0.0368,0.06473 0.0018,0.0088 -0.01664,-0.0061 -0.01274,0.0048 0.0021,0.0061 0.06607,0.119244 0.07359,0.129481 0.08466,0.114916 0.663937,0.788955 0.677175,0.804294 0.459426,0.532317 0.398323,0.457346 0.938287,1.058724 0.159695,0.177853 0.992301,1.122916 1.248922,1.372974 0.71203,0.76984 1.424478,1.526854 2.15112,2.3272 0.110874,0.122114 0.295055,0.314575 0.401213,0.43717 0.08944,0.103284 0.111659,0.131914 0.186092,0.204451"
       id="path1188-4-4" />
    <path
       style="opacity:0.99;fill:#e83627;fill-opacity:1;stroke-width:0.264999;paint-order:markers fill stroke"
       d="m 22.263926,21.544044 c 0.40041,-2.060907 -0.0054,0.04555 0.339753,-1.791464 0.0439,-0.233578 0.168881,-0.861314 0.207872,-1.065162 0.05419,-0.283268 0.106149,-0.584546 0.159178,-0.871557 0.04611,-0.249513 0.09468,-0.484409 0.141103,-0.726251 0.07703,-0.401423 9e-6,-0.0102 0.05754,-0.338959 0.0124,-0.07078 0.02661,-0.125187 0.03948,-0.19366 0.04089,-0.217576 0.06921,-0.366937 0.110851,-0.532544 -0.03851,0.331367 -0.05321,0.554733 -0.07323,0.823546 -0.01916,0.257293 -0.03522,0.510396 -0.04428,0.726768 -0.0028,0.06766 -0.01398,0.183661 -0.01477,0.242257 -5.15e-4,0.03694 0.0084,0.05278 0.0079,0.097 -3.42e-4,0.02534 -0.0066,0.07646 -0.0059,0.0969 0.0024,0.06987 0.01691,0.08936 0.01887,0.145483 0.0027,0.0739 -0.01442,0.03834 -0.0013,0.09692 0.0027,0.01179 0.01192,-0.01532 0.01382,-1.4e-5 0.0011,0.0086 -8.57e-4,0.177721 -0.0026,0.193857 -0.01964,0.181131 -0.209042,1.282377 -0.213402,1.307464 -0.151322,0.870614 -0.133239,0.749688 -0.322967,1.743086 -0.05611,0.293792 -0.339974,1.84742 -0.447653,2.275558 -0.261536,1.281447 -0.529728,2.547308 -0.78943,3.873144 -0.03964,0.202293 -0.110551,0.525556 -0.145713,0.726226 -0.02963,0.169061 -0.03554,0.214722 -0.06676,0.33891"
       id="path1188-5-6-3" />
    <path
       style="opacity:0.99;fill:#e83627;fill-opacity:1;stroke-width:0.264999;paint-order:markers fill stroke"
       d="m 20.950695,16.665201 c 0.60786,-1.116293 -0.01022,0.02433 0.520265,-0.969513 0.06744,-0.126363 0.255547,-0.466687 0.315071,-0.57704 0.08272,-0.153347 0.165156,-0.315874 0.247134,-0.471058 0.07126,-0.134911 0.143438,-0.26244 0.214207,-0.393376 0.117463,-0.217335 0.0011,-0.0054 0.09184,-0.18276 0.01955,-0.03819 0.03916,-0.06805 0.05893,-0.105083 0.06282,-0.117718 0.106192,-0.198544 0.164294,-0.289197 -0.07243,0.176882 -0.11025,0.294981 -0.158046,0.437344 -0.04575,0.13626 -0.08801,0.27002 -0.119572,0.383899 -0.0098,0.03561 -0.03294,0.0973 -0.03985,0.127965 -0.0044,0.01934 0.0028,0.02669 -0.0026,0.04984 -0.003,0.01327 -0.01449,0.04058 -0.01596,0.05118 -0.005,0.03623 0.0071,0.04496 0.0032,0.07405 -0.0052,0.03833 -0.01813,0.02146 -0.01144,0.05073 0.0014,0.0059 0.01328,-0.0091 0.01352,-0.0014 1.74e-4,0.0044 -0.01948,0.09287 -0.02289,0.101475 -0.03824,0.09655 -0.339013,0.690568 -0.34591,0.704104 -0.23935,0.469786 -0.208977,0.404832 -0.498771,0.942577 -0.08571,0.159036 -0.526354,0.99875 -0.67659,1.233116 -0.390248,0.695363 -0.785371,1.383257 -1.178483,2.101612 -0.05998,0.109608 -0.163268,0.285518 -0.218712,0.393825 -0.04671,0.09124 -0.05729,0.115684 -0.100859,0.183664"
       id="path1188-5-3-8-3-1-9" />
    <path
       style="opacity:0.99;fill:#e83627;fill-opacity:1;stroke-width:0.264999;paint-order:markers fill stroke"
       d="m 4.3445212,24.577141 c 1.5226248,1.270742 -0.034114,-0.02577 1.3246845,1.098928 0.1727719,0.143008 0.6361421,0.532131 0.7868308,0.657402 0.2093943,0.174084 0.4328789,0.35536 0.6452965,0.530459 0.1846678,0.152217 0.3578092,0.299076 0.5365644,0.447803 0.2967059,0.24686 0.00782,0.0048 0.2515568,0.203317 0.052481,0.04274 0.09218,0.07874 0.1428341,0.12067 0.1609366,0.133214 0.2713821,0.224828 0.3924502,0.33341 -0.2483347,-0.186639 -0.4172613,-0.304759 -0.6202376,-0.448508 -0.1942792,-0.137586 -0.3857762,-0.271018 -0.5501154,-0.3819 -0.051392,-0.03468 -0.1386404,-0.09842 -0.1833727,-0.127307 -0.028196,-0.01824 -0.041528,-0.01976 -0.075285,-0.04157 -0.019356,-0.01249 -0.057603,-0.04149 -0.073346,-0.05092 -0.053796,-0.03214 -0.070682,-0.03174 -0.1138888,-0.0575 -0.056899,-0.03398 -0.027392,-0.02841 -0.073992,-0.04778 -0.00926,-0.0037 0.010103,0.01557 -0.00192,0.0095 -0.00669,-0.0034 -0.1358744,-0.08657 -0.1479897,-0.09558 C 6.4486581,26.62645 5.6317086,25.964221 5.6131052,25.949106 4.9674613,25.424471 5.0575378,25.495335 4.3231578,24.885051 4.1059701,24.704561 2.9556846,23.758899 2.6426976,23.478176 1.6976565,22.679459 0.76544436,21.883736 -0.21381329,21.064794 -0.36322576,20.939839 -0.6009553,20.734973 -0.7497329,20.613857 -0.8750767,20.511815 -0.90921,20.485685 -1,20.404258"
       id="path1188-9-7" />
    <path
       style="opacity:0.99;fill:#e83627;fill-opacity:1;stroke-width:0.264999;paint-order:markers fill stroke"
       d="m 21.028321,21.824248 c 1.55744,-1.679173 -0.03099,0.03769 1.345395,-1.46099 0.175013,-0.190553 0.652458,-0.701527 0.805886,-0.867718 0.213204,-0.230935 0.434217,-0.47748 0.648348,-0.711774 0.186151,-0.203685 0.366661,-0.394589 0.548828,-0.591731 0.302386,-0.327221 0.0056,-0.0086 0.24773,-0.277527 0.05218,-0.05788 0.09693,-0.101622 0.148233,-0.157481 0.163029,-0.177507 0.275175,-0.299312 0.409931,-0.432703 -0.224198,0.274205 -0.363904,0.460874 -0.534407,0.685142 -0.163194,0.214655 -0.320879,0.426276 -0.450979,0.607941 -0.04067,0.0568 -0.116786,0.153178 -0.15032,0.202647 -0.02118,0.03118 -0.02085,0.04604 -0.04621,0.08337 -0.01448,0.0214 -0.04949,0.06363 -0.06009,0.08105 -0.0365,0.05951 -0.03287,0.07839 -0.0622,0.126209 -0.03858,0.06299 -0.03604,0.03011 -0.05552,0.08181 -0.0039,0.01041 0.02064,-0.01108 0.01394,0.0023 -0.0037,0.0075 -0.100188,0.15029 -0.110887,0.163673 -0.121117,0.150117 -0.928441,1.051378 -0.946875,1.071901 -0.639862,0.712258 -0.553961,0.612851 -1.301354,1.422777 -0.22111,0.239523 -1.376951,1.50831 -1.725325,1.853154 -0.981136,1.042039 -1.960307,2.069803 -2.964384,3.149714 -0.153203,0.16477 -0.405728,0.426835 -0.553492,0.590959 -0.124501,0.138267 -0.155989,0.175959 -0.25705,0.275985"
       id="path1188-4-7-7-6" />
    <path
       style="opacity:0.99;fill:#e83627;fill-opacity:1;stroke-width:0.264999;paint-order:markers fill stroke"
       d="m 18.378318,15.497983 c -0.332975,-1.157344 0.0036,0.02549 -0.280018,-1.005811 -0.036,-0.13113 -0.140899,-0.483729 -0.173127,-0.59819 -0.04485,-0.159047 -0.08606,-0.328063 -0.129293,-0.489171 -0.03761,-0.140055 -0.07892,-0.27205 -0.11733,-0.407844 -0.06368,-0.225421 6.42e-4,-0.0057 -0.04531,-0.190137 -0.0099,-0.0397 -0.02278,-0.07037 -0.03346,-0.108783 -0.03368,-0.12213 -0.05683,-0.206023 -0.09441,-0.299256 0.02413,0.185414 0.02772,0.31008 0.03464,0.460181 0.0066,0.14367 0.0099,0.284929 0.0076,0.405561 -7.03e-4,0.0377 0.005,0.102559 0.0026,0.135195 -0.0015,0.02058 -0.01273,0.02914 -0.01461,0.05377 -0.0012,0.01414 0.0029,0.04273 0.001,0.05409 -0.0069,0.0388 -0.02436,0.0493 -0.02988,0.08046 -0.0073,0.04105 0.0141,0.02172 -0.0042,0.05396 -0.0038,0.0063 -0.01257,-0.0088 -0.01572,-2.77e-4 -0.0017,0.0046 -0.0095,0.09892 -0.0084,0.107946 0.01161,0.101307 0.161589,0.719106 0.165262,0.733137 0.120358,0.488467 0.10712,0.420667 0.263812,0.978462 0.0464,0.164955 0.276967,1.036956 0.373923,1.278035 0.221293,0.719955 0.45104,1.431415 0.667633,2.17602 0.03311,0.113599 0.09448,0.295363 0.122566,0.407951 0.02356,0.09488 0.02763,0.12043 0.05581,0.190346"
       id="path1188-5-3-8-3-1-2-1-7" />
    <path
       style="opacity:0.99;fill:#e83627;fill-opacity:1;stroke-width:0.264999;paint-order:markers fill stroke"
       d="m 10.771714,6.0253671 c 1.768508,0.8971174 -0.04021,-0.017955 1.540029,0.7752941 0.200926,0.1008636 0.738605,0.3757709 0.913734,0.4641708 0.243359,0.1228425 0.504054,0.2504064 0.751244,0.373851 0.214899,0.1073119 0.415495,0.2111778 0.623214,0.3161377 0.344785,0.1742132 0.0095,0.0034 0.293607,0.1430084 0.06118,0.030073 0.106669,0.055732 0.165573,0.085307 0.18716,0.093962 0.315563,0.1585922 0.454557,0.2358478 C 15.2208,8.2888606 15.019673,8.2072922 14.778396,8.1078444 14.54746,8.0126604 14.319361,7.9205625 14.122826,7.8443761 c -0.06146,-0.023827 -0.16475,-0.068098 -0.218524,-0.087818 -0.03389,-0.012457 -0.05144,-0.012796 -0.09203,-0.027595 -0.02327,-0.00849 -0.06832,-0.028771 -0.08741,-0.035129 -0.06522,-0.021722 -0.08796,-0.020264 -0.14035,-0.037664 -0.06902,-0.022865 -0.03061,-0.020501 -0.08896,-0.032618 -0.01174,-0.00249 0.01022,0.011518 -0.0045,0.00747 -0.0082,-0.00226 -0.163621,-0.058978 -0.177926,-0.065246 C 13.152603,7.4953995 12.199509,7.0294367 12.177812,7.0187971 11.424829,6.6495408 11.530379,6.6992256 10.676844,6.268587 10.424416,6.1412301 9.0852903,5.4747472 8.7259619,5.2750087 7.630463,4.7103357 6.5515279,4.1471608 5.4144936,3.5688728 5.2410069,3.4806359 4.9662819,3.3354902 4.7928217,3.2502256 4.6466885,3.1783938 4.6065316,3.1601333 4.5022998,3.1021971"
       id="path1188-5-3-8-31" />
    <path
       style="opacity:0.99;fill:#e83627;fill-opacity:1;stroke-width:0.264999;paint-order:markers fill stroke"
       d="m 5.5414246,16.718774 c 0.9867333,0.523927 -0.022173,-0.0095 0.8586005,0.450326 0.1119836,0.05847 0.4122237,0.219909 0.5098881,0.271354 0.1357136,0.0715 0.2806522,0.144048 0.4183554,0.215333 0.1197146,0.06197 0.2318692,0.1235 0.34772,0.184628 0.1922959,0.101465 0.00509,0.0014 0.163163,0.08107 0.034027,0.01716 0.059701,0.03323 0.092526,0.05037 0.1043226,0.05447 0.1759038,0.092 0.2541987,0.139921 -0.1613732,-0.06835 -0.2713359,-0.107506 -0.4034251,-0.156067 -0.1264263,-0.04648 -0.2510918,-0.09048 -0.3581545,-0.125225 -0.033473,-0.01086 -0.090216,-0.03336 -0.119384,-0.04174 -0.018383,-0.0054 -0.027233,-0.0019 -0.049244,-0.0083 -0.012617,-0.0036 -0.03747,-0.01436 -0.047754,-0.0167 -0.035137,-0.0079 -0.04639,-0.0017 -0.074606,-0.008 -0.03717,-0.0084 -0.01762,-0.01403 -0.04825,-0.01387 -0.00612,3.3e-5 0.00636,0.0094 -0.0015,0.0085 -0.00439,-4.81e-4 -0.088633,-0.02449 -0.096501,-0.02774 C 6.8987009,17.686112 6.368854,17.421249 6.3567891,17.415186 5.9380662,17.204807 5.9965329,17.232224 5.5205633,16.981695 5.3797982,16.907601 4.6340524,16.523685 4.431642,16.399798 3.8194238,16.066308 3.2156866,15.730832 2.5811168,15.392482 2.4842923,15.340856 2.3303749,15.253689 2.2338947,15.205024 c -0.081284,-0.041 -0.103456,-0.05079 -0.1621693,-0.08672"
       id="path1188-5-3-8-3-2" />
    <path
       style="opacity:0.99;fill:#e83627;fill-opacity:1;stroke-width:0.264999;paint-order:markers fill stroke"
       d="M 4.4688917,5.8399912 C 2.4954318,6.3639103 4.5132257,5.8304912 2.7516964,6.2903114 2.5277176,6.3487704 1.9272502,6.5102168 1.7319224,6.561661 1.4604975,6.633153 1.1706192,6.7057081 0.89521376,6.776991 0.65578466,6.838957 0.43148015,6.9004899 0.19977965,6.9616164 c -0.38459054,0.101463 -0.0101668,0.00136 -0.3263249,0.081064 -0.0680662,0.017163 -0.11939329,0.033229 -0.18505255,0.05037 -0.2086346,0.054466 -0.3518043,0.092004 -0.5083952,0.1399186 0.32274532,-0.068347 0.54266856,-0.1075043 0.80684563,-0.1560623 0.25285502,-0.046477 0.50218138,-0.090477 0.71630673,-0.1252242 0.066957,-0.010861 0.1804308,-0.033353 0.2387681,-0.041748 0.036777,-0.00532 0.054466,-0.00192 0.098488,-0.00825 0.025235,-0.00362 0.074952,-0.014368 0.095507,-0.016699 0.070261,-0.00792 0.092769,-0.00169 0.1492195,-0.00815 0.07434,-0.00849 0.035251,-0.01404 0.096501,-0.013871 0.012328,3.39e-5 -0.012791,0.00927 0.003,0.00849 0.00878,-4.729e-4 0.177258,-0.024472 0.1930018,-0.027731 0.17672,-0.0365 1.2364045,-0.3013704 1.2605321,-0.3074323 C 3.6755991,6.325906 3.558668,6.353324 4.5106013,6.1027976 4.7921317,6.0287031 6.2836197,5.644793 6.6884417,5.5209073 7.91287,5.1874219 9.1203416,4.8519499 10.389476,4.5136041 c 0.193642,-0.051625 0.501483,-0.1387894 0.694441,-0.1874549 0.162566,-0.04099 0.206913,-0.050788 0.324338,-0.086721"
       id="path1188-3-2" />
    <path
       style="opacity:0.99;fill:#e83627;fill-opacity:1;stroke-width:0.264999;paint-order:markers fill stroke"
       d="M 5.0280864,1.7765801 C 3.5479919,1.252653 5.0613394,1.7860838 3.7401907,1.3262553 3.5722073,1.2677853 3.121857,1.1063465 2.9753608,1.0549001 2.7717926,0.98340778 2.5543849,0.91085194 2.3478299,0.83956891 2.1682599,0.77760286 2.0000303,0.71606785 1.8262536,0.65494015 1.5378115,0.5534774 1.8186312,0.65358259 1.5815107,0.57387631 1.530464,0.55671316 1.4919655,0.54064753 1.4427213,0.52350699 1.2862459,0.46904205 1.1788678,0.4315026 1.0614248,0.38358611 c 0.24206,0.0683471 0.4070023,0.10750438 0.6051342,0.15606577 0.1896407,0.0464774 0.3766368,0.090477 0.5372301,0.12522642 0.050214,0.0108614 0.1353232,0.0333533 0.1790766,0.0417369 0.02758,0.005318 0.040845,0.001923 0.073866,0.008259 0.018926,0.003621 0.056211,0.0143686 0.071625,0.0166993 0.052699,0.007919 0.06958,0.001697 0.1119143,0.008033 0.055749,0.008373 0.026436,0.0140292 0.072376,0.0138708 0.00924,-3.507e-5 -0.00959,-0.00939 0.00219,-0.008485 0.00659,4.8084e-4 0.1329442,0.0244945 0.1447526,0.0277416 0.1325355,0.0364983 0.9272966,0.3013719 0.9453939,0.3074338 0.628066,0.2103803 0.5403671,0.1829622 1.2543167,0.433492 0.2111466,0.074094 1.3297623,0.4580081 1.6333775,0.5818972 0.9183208,0.3334887 1.8239225,0.6689653 2.7757726,1.0073167 0.1452322,0.051625 0.3761102,0.1387918 0.5208316,0.1874572 0.1219231,0.041001 0.1551831,0.050788 0.2432521,0.086721"
       id="path1188-4-1" />
    <path
       style="opacity:0.99;fill:#e83627;fill-opacity:1;stroke-width:0.264999;paint-order:markers fill stroke"
       d="M 9.4211201,3.0312271 C 7.4476528,3.5551542 9.4654493,3.021721 7.7039174,3.481553 7.4799388,3.5400229 6.8794701,3.7014618 6.6841412,3.7529082 6.4127139,3.8244006 6.1228368,3.8969552 5.8474279,3.9682395 5.608,4.0302058 5.3836919,4.0917405 5.1519892,4.1528682 4.7673963,4.2543312 5.1418225,4.1542247 4.8256631,4.233932 4.757597,4.2510955 4.7062698,4.2671613 4.6406095,4.2843017 4.4319748,4.3387663 4.2888029,4.3763058 4.1322118,4.4242212 4.4549596,4.3558741 4.674884,4.3167168 4.939061,4.2681554 5.1919172,4.221678 5.4412459,4.1776783 5.6553723,4.14293 5.7223293,4.132068 5.8358043,4.109565 5.8941428,4.101182 c 0.036777,-0.00532 0.054467,-0.00192 0.098488,-0.00825 0.025235,-0.00362 0.074952,-0.014368 0.095507,-0.016699 0.070261,-0.00792 0.092769,-0.00169 0.1492195,-0.00803 0.074328,-0.00837 0.035252,-0.014029 0.096501,-0.013871 0.012328,3.4e-5 -0.012791,0.00939 0.00289,0.00849 C 6.3455283,4.0623401 6.5140087,4.038328 6.5297524,4.035081 6.7064674,3.9985651 7.7661543,3.7336905 7.7902842,3.7276286 8.6277085,3.5172494 8.5107759,3.5446675 9.4627144,3.2941376 9.7442465,3.2200436 11.235741,2.8361273 11.640563,2.7122393 12.864999,2.3787494 14.072476,2.043274 15.341616,1.7049237 15.535259,1.6532987 15.8431,1.5661309 16.036061,1.5174665 c 0.162565,-0.041002 0.206911,-0.050788 0.324338,-0.086721"
       id="path1188-5-6-0" />
    <path
       style="opacity:0.99;fill:#e83627;fill-opacity:1;stroke-width:0.264999;paint-order:markers fill stroke"
       d="m 5.6651007,14.16109 c 0.9867329,0.523927 -0.022173,-0.0095 0.8586001,0.450325 0.1119835,0.05847 0.4122236,0.219909 0.5098881,0.271354 0.1357136,0.0715 0.2806522,0.144048 0.4183554,0.215333 0.1197146,0.06197 0.2318691,0.123501 0.3477199,0.184628 0.1922959,0.101465 0.00509,0.0014 0.1631631,0.08107 0.034027,0.01716 0.059701,0.03323 0.092526,0.05037 0.1043226,0.05446 0.1759038,0.092 0.2541987,0.139919 -0.1613733,-0.06836 -0.271336,-0.107509 -0.4034251,-0.15607 -0.1264264,-0.04648 -0.2510919,-0.09048 -0.3581545,-0.125226 -0.033473,-0.01086 -0.090216,-0.03336 -0.1193841,-0.04174 -0.018383,-0.0054 -0.027233,-0.0019 -0.049244,-0.0083 -0.012617,-0.0036 -0.03747,-0.01436 -0.047754,-0.0167 -0.035137,-0.0079 -0.04639,-0.0017 -0.074606,-0.008 -0.03717,-0.0084 -0.01762,-0.01403 -0.04825,-0.01387 -0.00612,3.3e-5 0.00636,0.0094 -0.0015,0.0085 -0.00439,-4.81e-4 -0.088633,-0.02449 -0.096501,-0.02774 C 7.0223766,15.128427 6.4925297,14.863565 6.4804648,14.857502 6.0617418,14.647123 6.1202086,14.67454 5.6442395,14.424011 5.5034743,14.349917 4.7577285,13.966001 4.5553181,13.842114 3.9430999,13.508623 3.3393627,13.173148 2.7047929,12.834798 2.6079684,12.783172 2.454051,12.696004 2.357571,12.64734 2.276287,12.60634 2.2541138,12.59655 2.1954015,12.56062"
       id="path1188-5-3-8-3-1-7" />
    <path
       style="opacity:0.99;fill:#e83627;fill-opacity:1;stroke-width:0.264999;paint-order:markers fill stroke"
       d="m 4.4331832,17.938657 c 1.363481,-0.769701 -0.028863,0.01876 1.1820809,-0.673342 0.1539728,-0.08799 0.5704194,-0.320893 0.7050529,-0.397341 0.1870871,-0.106225 0.3839296,-0.222128 0.57278,-0.330727 0.1641741,-0.09442 0.3206992,-0.180619 0.4804826,-0.271238 0.2652169,-0.150413 0.006,-0.0048 0.2211122,-0.130869 0.046321,-0.02713 0.083687,-0.04559 0.1288227,-0.07138 0.1434261,-0.08197 0.2419768,-0.138114 0.3551181,-0.195097 -0.2094575,0.137061 -0.3463958,0.235239 -0.51208,0.352188 -0.1585818,0.11194 -0.3135229,0.223499 -0.4442173,0.321265 -0.040867,0.03057 -0.1133124,0.07975 -0.1480768,0.107085 -0.021941,0.01722 -0.027845,0.02933 -0.054085,0.04995 -0.015032,0.01183 -0.047464,0.0328 -0.059227,0.04283 -0.040174,0.03432 -0.046205,0.05097 -0.078453,0.07856 -0.042485,0.03632 -0.027996,0.01075 -0.057506,0.04522 -0.0059,0.0069 0.013518,-0.0012 0.0052,0.0071 -0.00462,0.0046 -0.1048549,0.08368 -0.1150108,0.09043 -0.113971,0.07563 -0.8332621,0.499558 -0.8496646,0.509191 -0.5692595,0.334321 -0.4912996,0.286376 -1.1472863,0.659072 -0.1940059,0.11022 -1.2150785,0.699716 -1.5075843,0.847022 -0.8525414,0.47213 -1.69843,0.933461 -2.5763885,1.427547 -0.13395858,0.07539 -0.35089269,0.191944 -0.48220993,0.268857 -0.11063178,0.0648 -0.13972191,0.08337 -0.22456685,0.126104"
       id="path1188-9-0" />
    <path
       style="opacity:0.99;fill:#e83627;fill-opacity:1;stroke-width:0.264999;paint-order:markers fill stroke"
       d="M 8.3963197,5.9937602 C 7.3311133,7.2861265 8.4216001,5.9670934 7.4661511,7.1125027 7.3446699,7.258145 7.0217501,7.6534821 6.9160762,7.7809691 6.7692346,7.958125 6.6101688,8.143367 6.4604352,8.3218183 6.3302606,8.476953 6.210359,8.6259103 6.0850614,8.7772378 5.8770956,9.028426 6.0788214,8.7824378 5.905638,8.9851358 5.868399,9.0287958 5.842101,9.0649208 5.806491,9.1076175 5.6933291,9.2432866 5.6157702,9.3365457 5.5349958,9.4457076 5.7194313,9.2524101 5.849488,9.1284305 6.0048173,8.9779119 6.1534867,8.8338456 6.3011694,8.6937018 6.4297818,8.5764969 c 0.04022,-0.036646 0.1059749,-0.1030014 0.1416571,-0.1338012 0.022473,-0.019449 0.036812,-0.022571 0.063722,-0.045844 0.015448,-0.013305 0.043686,-0.043355 0.056673,-0.053492 0.044264,-0.034801 0.063607,-0.036872 0.099158,-0.06484 0.046864,-0.036793 0.016268,-0.027945 0.058996,-0.050969 0.00855,-0.00464 -0.00335,0.014618 0.00705,0.0077 0.0059,-0.00385 0.108991,-0.092581 0.1180774,-0.1018699 C 7.0766526,8.0285061 7.6583371,7.3516994 7.6715656,7.3362571 8.1306255,6.8002988 8.0653707,6.8730967 8.5804868,6.2519903 8.7327966,6.0682597 9.5449682,5.1040907 9.7537905,4.821881 10.409724,4.0112604 11.052676,3.2049855 11.736877,2.3723911 11.84127,2.2453545 12.004219,2.0380866 12.109888,1.9143966 c 0.08901,-0.104212 0.114133,-0.1311764 0.174701,-0.2130413"
       id="path1188-4-7-7-2" />
    <path
       style="opacity:0.99;fill:#e83627;fill-opacity:1;stroke-width:0.264999;paint-order:markers fill stroke"
       d="m 7.6130406,11.497241 c -0.049429,-1.200025 -0.00127,0.02566 -0.037089,-1.040977 -0.00451,-0.135612 -0.021745,-0.5019237 -0.026193,-0.6204625 -0.00624,-0.1647243 -0.00878,-0.3384442 -0.013715,-0.5048543 -0.00427,-0.144667 -0.012028,-0.2822142 -0.017412,-0.422883 -0.0089,-0.2334933 0.00116,-0.00543 -0.00219,-0.1952128 -7.522e-4,-0.040854 -0.00462,-0.073495 -0.006,-0.1132417 -0.00428,-0.1263341 -0.00728,-0.2131182 -0.018001,-0.3120048 -0.010401,0.1862387 -0.025326,0.3088539 -0.041665,0.4570272 -0.015656,0.1418159 -0.033022,0.2806031 -0.051173,0.3980388 -0.00566,0.036713 -0.010977,0.1013042 -0.017065,0.1326845 -0.00381,0.01981 -0.012005,0.025863 -0.016569,0.049555 -0.00266,0.013588 -0.00405,0.042371 -0.00681,0.053085 -0.00971,0.03651 -0.022069,0.043174 -0.029821,0.072499 -0.010284,0.038626 0.0059,0.024132 -0.01005,0.051885 -0.00324,0.00543 -0.0067,-0.011201 -0.00983,-0.00351 -0.00174,0.00419 -0.019584,0.094754 -0.020174,0.1037932 -0.0067,0.1014293 0.00231,0.7363004 0.00266,0.7507734 0.00821,0.502326 0.00924,0.433318 0.030688,1.010904 0.00636,0.170819 0.030885,1.070797 0.058487,1.326449 0.039631,0.74942 0.085733,1.492276 0.1190189,2.264829 0.00509,0.117875 0.018579,0.308211 0.020682,0.424066 0.00174,0.09761 7.741e-4,0.123425 0.00878,0.19758"
       id="path1188-5-3-8-3-1-2-1-5" />
    <text
       xml:space="preserve"
       style="font-weight:bold;font-size:57.1676px;font-family:'Microsoft Uighur';-inkscape-font-specification:'Microsoft Uighur, Bold';display:none;opacity:0.99;fill:#ffb400;fill-opacity:1;stroke-width:0.264999;paint-order:markers fill stroke"
       x="4.8933015"
       y="26.999321"
       id="text186"
       transform="scale(1.0650069,0.93896106)"><tspan
         sodipodi:role="line"
         id="tspan184"
         x="4.8933015"
         y="26.999321"
         style="fill:#ffb400;fill-opacity:1;stroke-width:0.265">?</tspan></text>
  </g>
</svg>
